<svg width="194" height="118" viewBox="0 0 194 118" fill="none" xmlns="http://www.w3.org/2000/svg">
<g clip-path="url(#clip0_131_524)">
<path d="M117.912 0L78.5742 0V39.3382L117.912 39.3382V0Z" fill="#D62340"/>
<path d="M39.376 0L0.0377808 0L0.0377808 39.3382L39.376 39.3382L39.376 0Z" fill="#2E2E2E"/>
<path d="M196.589 0L157.25 0V39.3382L196.589 39.3382V0Z" fill="#2E2E2E"/>
<path d="M78.7141 0L39.3759 0L39.3759 39.3382L78.7141 39.3382V0Z" fill="#FAFAFA"/>
<path d="M157.251 0L117.912 0V39.3382L157.251 39.3382V0Z" fill="#2E2E2E"/>
<path d="M19.6593 9.8893L9.85938 0.0893555L0.0594275 9.8893L9.85938 19.6893L19.6593 9.8893Z" fill="#FAFAFA"/>
<path d="M39.2712 9.85756L29.4713 0.0576172L19.6713 9.85756L29.4713 19.6575L39.2712 9.85756Z" fill="#FAFAFA"/>
<path d="M19.6911 29.5011L9.89111 19.7012L0.0911658 29.5011L9.89111 39.3011L19.6911 29.5011Z" fill="#FAFAFA"/>
<path d="M39.3031 29.4696L29.5031 19.6697L19.7032 29.4696L29.5031 39.2696L39.3031 29.4696Z" fill="#FAFAFA"/>
<path d="M68.7746 0L78.5741 9.79954V0L68.7746 0Z" fill="#FAFAFA"/>
<path d="M58.9751 0L49.1756 0L78.5742 29.3986V19.5991L58.9751 0Z" fill="#FAFAFA"/>
<path d="M39.3759 0L78.5741 39.3382H68.7745L39.3759 9.79955V0Z" fill="#FAFAFA"/>
<path d="M39.376 19.5991L58.9751 39.3382H49.1756L39.376 29.3987V19.5991Z" fill="#FAFAFA"/>
<path d="M157.25 29.3987L147.311 39.3382H157.25V29.3987Z" fill="#FAFAFA"/>
<path d="M157.251 19.5991V9.79956L127.712 39.3382H137.511L157.251 19.5991Z" fill="#FAFAFA"/>
<path d="M157.251 0L117.912 39.3382V29.3986L147.311 0L157.251 0Z" fill="#FAFAFA"/>
<path d="M137.511 0L117.912 19.5991V9.79954L127.712 0L137.511 0Z" fill="#FAFAFA"/>
<path d="M39.376 39.185L39.376 78.5232H78.7142V39.185L39.376 39.185Z" fill="#D62340"/>
<path d="M78.6631 39.2737V78.6118H118.001V39.2737L78.6631 39.2737Z" fill="#2E2E2E"/>
<path d="M117.95 39.2226V78.5608H157.288V39.2226L117.95 39.2226Z" fill="#2E2E2E"/>
<path d="M78.574 39.3381V78.6763H117.912C117.912 56.8373 100.273 39.3381 78.574 39.3381Z" fill="#FAFAFA"/>
<path d="M78.5741 49.1377V78.5363H107.973C108.113 62.2971 94.9533 49.1377 78.5741 49.1377Z" fill="#2E2E2E"/>
<path d="M58.977 39.3305L39.3771 58.9304L58.977 78.5303L78.5769 58.9304L58.977 39.3305Z" fill="#FAFAFA"/>
<path d="M117.912 78.5363L137.511 58.9372L117.912 39.3381V78.5363Z" fill="#FAFAFA"/>
<path d="M39.2871 78.4721L39.2871 117.81H78.6253V78.4721H39.2871Z" fill="#FAFAFA"/>
<path d="M0 78.5232L0 117.861H39.3382L39.3382 78.5232H0Z" fill="#2E2E2E"/>
<path d="M19.6369 108.075C25.049 108.075 29.4364 103.688 29.4364 98.2754C29.4364 92.8632 25.049 88.4758 19.6369 88.4758C14.2247 88.4758 9.83734 92.8632 9.83734 98.2754C9.83734 103.688 14.2247 108.075 19.6369 108.075Z" fill="#FAFAFA"/>
<path d="M58.9751 88.3357C64.4348 88.3357 68.7746 92.6755 68.7746 98.1352C68.7746 103.595 64.4348 107.935 58.9751 107.935C53.5153 107.935 49.1755 103.595 49.1755 98.1352C49.1755 92.8155 53.5153 88.3357 58.9751 88.3357Z" fill="#FAFAFA"/>
</g>
<defs>
<clipPath id="clip0_131_524">
<rect width="194" height="118" fill="white"/>
</clipPath>
</defs>
</svg>
