<svg width="467" height="233" viewBox="0 0 467 233" fill="none" xmlns="http://www.w3.org/2000/svg">
<g clip-path="url(#clip0_118_1556)">
<path d="M46.7453 91.9997L93.4907 91.9998L93.4907 138.745L46.7453 138.745L46.7453 91.9997Z" fill="#2E2E2E"/>
<path d="M186.815 138.745L233.561 138.745L233.561 185.491L186.815 185.491L186.815 138.745Z" fill="#FAFAFA"/>
<path d="M-6.48499e-05 138.745L46.7454 138.745L46.7454 185.491L-7.30231e-05 185.491L-6.48499e-05 138.745Z" fill="#2E2E2E"/>
<path d="M326.885 91.9997L373.63 91.9998L373.63 138.745L326.885 138.745L326.885 91.9997Z" fill="#D62340"/>
<path d="M93.4908 91.9997L140.236 91.9998L140.236 138.745L93.4908 138.745L93.4908 91.9997Z" fill="#FAFAFA"/>
<path d="M46.7453 138.745L93.4907 138.745L93.4907 185.491L46.7453 185.491L46.7453 138.745Z" fill="#D62340"/>
<path d="M420.21 91.9997L466.955 91.9998L466.955 138.745L420.21 138.745L420.21 91.9997Z" fill="#2E2E2E"/>
<path d="M186.815 91.9997L233.561 91.9998L233.561 138.745L186.815 138.745L186.815 91.9997Z" fill="#D62340"/>
<path d="M233.394 91.9997L280.14 91.9998L280.14 138.745L233.394 138.745L233.394 91.9997Z" fill="#2E2E2E"/>
<path d="M373.464 91.9997L420.21 91.9998L420.21 138.745L373.464 138.745L373.464 91.9997Z" fill="#FAFAFA"/>
<path d="M280.14 91.9997L326.885 91.9998L326.885 138.745L280.14 138.745L280.14 91.9997Z" fill="#2E2E2E"/>
<path d="M140.07 91.9997L186.815 91.9998L186.815 138.745L140.07 138.745L140.07 91.9997Z" fill="#FAFAFA"/>
<path d="M140.07 138.745L186.815 138.745L186.815 185.49L140.07 185.49L140.07 138.745Z" fill="#2E2E2E"/>
<path d="M443.639 103.751L455.284 92.106L466.929 103.751L455.284 115.396L443.639 103.751Z" fill="#FAFAFA"/>
<path d="M420.334 103.713L431.979 92.0681L443.624 103.713L431.979 115.359L420.334 103.713Z" fill="#FAFAFA"/>
<path d="M443.601 127.056L455.246 115.41L466.891 127.056L455.246 138.701L443.601 127.056Z" fill="#FAFAFA"/>
<path d="M420.296 127.019L431.941 115.373L443.587 127.019L431.941 138.664L420.296 127.019Z" fill="#FAFAFA"/>
<path d="M385.275 91.9998L373.631 103.645L373.631 91.9998L385.275 91.9998Z" fill="#FAFAFA"/>
<path d="M396.92 91.9998L408.565 91.9998L373.63 126.934L373.63 115.289L396.92 91.9998Z" fill="#FAFAFA"/>
<path d="M420.21 91.9998L373.631 138.745L385.275 138.745L420.21 103.645L420.21 91.9998Z" fill="#FAFAFA"/>
<path d="M420.209 115.289L396.92 138.745L408.565 138.745L420.209 126.934L420.209 115.289Z" fill="#FAFAFA"/>
<path d="M280.14 126.934L291.951 138.745L280.14 138.745L280.14 126.934Z" fill="#FAFAFA"/>
<path d="M280.14 115.289L280.14 103.645L315.24 138.745L303.595 138.745L280.14 115.289Z" fill="#FAFAFA"/>
<path d="M280.14 91.9997L326.885 138.745L326.885 126.934L291.951 91.9997L280.14 91.9997Z" fill="#FAFAFA"/>
<path d="M303.596 91.9998L326.885 115.289L326.885 103.645L315.24 91.9998L303.596 91.9998Z" fill="#FAFAFA"/>
<path d="M186.815 115.289L186.815 138.579L210.105 138.579C210.271 125.77 199.791 115.289 186.815 115.289Z" fill="#2E2E2E"/>
<path d="M163.526 138.745L186.815 138.745L186.815 115.289C174.006 115.289 163.526 125.77 163.526 138.745Z" fill="#D62340"/>
<path d="M186.815 162.034L186.815 138.745L163.526 138.745C163.526 151.554 174.006 162.034 186.815 162.034Z" fill="#2E2E2E"/>
<path d="M210.271 138.745L186.982 138.745L186.982 162.035C199.791 162.035 210.271 151.555 210.271 138.745Z" fill="#D62340"/>
<path d="M105.136 103.645L128.425 103.645L128.425 126.934L105.136 126.934L105.136 103.645Z" fill="#2E2E2E"/>
<path d="M58.5565 103.645L81.846 103.645L81.846 126.934L58.5565 126.934L58.5565 103.645Z" fill="#FAFAFA"/>
<path d="M93.4907 162.035L70.2012 138.745L46.7453 162.035L93.4907 162.035Z" fill="#FAFAFA"/>
<path d="M420.21 138.563L420.21 185.309L373.464 185.309L373.464 138.563L420.21 138.563Z" fill="#D62340"/>
<path d="M373.525 138.668L373.525 185.414L326.78 185.414L326.78 138.668L373.525 138.668Z" fill="#2E2E2E"/>
<path d="M326.84 138.608L326.84 185.353L280.095 185.353L280.095 138.608L326.84 138.608Z" fill="#2E2E2E"/>
<path d="M373.631 138.745L373.631 185.491L326.885 185.491C326.885 159.54 347.846 138.745 373.631 138.745Z" fill="#FAFAFA"/>
<path d="M396.918 138.736L420.208 162.027L396.918 185.317L373.627 162.027L396.918 138.736Z" fill="#FAFAFA"/>
<path d="M326.885 185.324L303.596 162.035L326.885 138.745L326.885 185.324Z" fill="#FAFAFA"/>
<path d="M93 92.7456L93 46.0002L139.745 46.0003L139.745 92.7456L93 92.7456Z" fill="#FAFAFA"/>
<path d="M139.684 92.8516L139.684 46.1062L186.429 46.1062L186.429 92.8516L139.684 92.8516Z" fill="#FAFAFA"/>
<path d="M186.368 92.7905L186.368 46.0452L233.113 46.0452L233.113 92.7905L186.368 92.7905Z" fill="#2E2E2E"/>
<path d="M174.661 92.6855L186.306 81.0408L186.306 92.6855L174.661 92.6855Z" fill="#D62340"/>
<path d="M163.017 92.6855L151.372 92.6855L186.306 57.7512L186.306 69.396L163.017 92.6855Z" fill="#D62340"/>
<path d="M139.727 92.6852L186.306 46.1062L174.661 46.1062L139.727 81.0405L139.727 92.6852Z" fill="#D62340"/>
<path d="M139.727 69.3957L163.017 46.1062L151.372 46.1062L139.727 57.7509L139.727 69.3957Z" fill="#D62340"/>
<path d="M116.319 92.7487L93.0286 69.4583L116.319 46.1678L139.609 69.4582L116.319 92.7487Z" fill="#2E2E2E"/>
<path d="M233.05 46.1072L209.761 69.3967L233.05 92.6862L233.05 46.1072Z" fill="#FAFAFA"/>
<path d="M467.11 46L467.11 92.7454L420.365 92.7454L420.365 46L467.11 46Z" fill="#D62340"/>
<path d="M420.426 46.1052L420.426 92.8506L373.681 92.8506L373.681 46.1052L420.426 46.1052Z" fill="#2E2E2E"/>
<path d="M373.742 46.0447L373.742 92.79L326.997 92.79L326.997 46.0447L373.742 46.0447Z" fill="#2E2E2E"/>
<path d="M420.532 46.1821L420.532 92.9275L373.787 92.9275C373.787 66.9763 394.747 46.1821 420.532 46.1821Z" fill="#FAFAFA"/>
<path d="M420.532 57.8267L420.532 92.7609L385.598 92.7609C385.431 73.4639 401.068 57.8267 420.532 57.8267Z" fill="#2E2E2E"/>
<path d="M443.819 46.1729L467.109 69.4634L443.819 92.7538L420.528 69.4634L443.819 46.1729Z" fill="#FAFAFA"/>
<path d="M373.787 92.7611L350.498 69.4716L373.787 46.1821L373.787 92.7611Z" fill="#FAFAFA"/>
<path d="M280.428 46L280.428 92.7454L233.683 92.7454L233.683 46L280.428 46Z" fill="#D62340"/>
<path d="M327.112 46.0608L327.112 92.8062L280.367 92.8061L280.367 46.0608L327.112 46.0608Z" fill="#2E2E2E"/>
<path d="M303.778 81.177C297.347 81.1769 292.133 75.9634 292.133 69.5322C292.133 63.101 297.347 57.8874 303.778 57.8874C310.209 57.8875 315.422 63.101 315.422 69.5322C315.422 75.9634 310.209 81.177 303.778 81.177Z" fill="#FAFAFA"/>
<path d="M257.033 57.7209C250.545 57.7209 245.388 62.8779 245.388 69.3657C245.388 75.8535 250.545 81.0104 257.033 81.0105C263.521 81.0105 268.678 75.8535 268.678 69.3657C268.678 63.0443 263.521 57.7209 257.033 57.7209Z" fill="#FAFAFA"/>
<path d="M326 46.7459L326 0.000488281L372.745 0.000496454L372.745 46.7459L326 46.7459Z" fill="#FAFAFA"/>
<path d="M372.684 46.8518L372.684 0.106445L419.429 0.106453L419.429 46.8518L372.684 46.8518Z" fill="#FAFAFA"/>
<path d="M419.368 46.7908L419.368 0.0454102L466.113 0.0454183L466.113 46.7908L419.368 46.7908Z" fill="#2E2E2E"/>
<path d="M407.661 46.6858L419.306 35.041L419.306 46.6858L407.661 46.6858Z" fill="#D62340"/>
<path d="M396.017 46.6857L384.372 46.6857L419.306 11.7515L419.306 23.3962L396.017 46.6857Z" fill="#D62340"/>
<path d="M372.727 46.6854L419.306 0.106445L407.661 0.106443L372.727 35.0407L372.727 46.6854Z" fill="#D62340"/>
<path d="M372.727 23.3959L396.017 0.106445L384.372 0.106443L372.727 11.7512L372.727 23.3959Z" fill="#D62340"/>
<path d="M349.319 46.749L326.028 23.4585L349.319 0.168028L372.609 23.4585L349.319 46.749Z" fill="#2E2E2E"/>
<path d="M466.05 0.107422L442.761 23.3969L466.05 46.6864L466.05 0.107422Z" fill="#FAFAFA"/>
<path d="M513.428 0.000232697L513.428 46.7456L466.683 46.7456L466.683 0.000224523L513.428 0.000232697Z" fill="#D62340"/>
</g>
<path d="M186 139.182L186 185.927L232.745 185.927L232.744 139.182L186 139.182Z" fill="#FAFAFA"/>
<path d="M232.684 139.076L232.684 185.821L279.429 185.821L279.429 139.076L232.684 139.076Z" fill="#FAFAFA"/>
<path d="M279.368 139.137L279.368 185.882L326.113 185.882L326.113 139.137L279.368 139.137Z" fill="#2E2E2E"/>
<path d="M267.661 139.242L279.306 150.887L279.306 139.242L267.661 139.242Z" fill="#D62340"/>
<path d="M256.016 139.242L244.372 139.242L279.306 174.176L279.306 162.532L256.016 139.242Z" fill="#D62340"/>
<path d="M232.727 139.242L279.306 185.821L267.661 185.821L232.727 150.887L232.727 139.242Z" fill="#D62340"/>
<path d="M232.727 162.532L256.016 185.821L244.372 185.821L232.727 174.177L232.727 162.532Z" fill="#D62340"/>
<path d="M209.319 139.179L186.028 162.469L209.319 185.76L232.609 162.469L209.319 139.179Z" fill="#2E2E2E"/>
<path d="M326.05 185.82L302.761 162.531L326.05 139.241L326.05 185.82Z" fill="#FAFAFA"/>
<path d="M466.742 185.883L466.742 139.137L419.997 139.137L419.997 185.883L466.742 185.883Z" fill="#2E2E2E"/>
<path d="M466.787 139.166L443.498 162.456L466.787 185.745L466.787 139.166Z" fill="#FAFAFA"/>
<path d="M373.428 185.928L373.428 139.182L326.683 139.182L326.683 185.928L373.428 185.928Z" fill="#D62340"/>
<path d="M420.112 185.867L420.112 139.122L373.367 139.122L373.367 185.867L420.112 185.867Z" fill="#2E2E2E"/>
<path d="M396.778 150.751C390.347 150.751 385.133 155.964 385.133 162.396C385.133 168.827 390.347 174.04 396.778 174.04C403.209 174.04 408.422 168.827 408.422 162.396C408.422 155.964 403.209 150.751 396.778 150.751Z" fill="#FAFAFA"/>
<path d="M350.033 174.207C343.545 174.207 338.389 169.05 338.389 162.562C338.389 156.074 343.545 150.917 350.033 150.917C356.521 150.917 361.678 156.074 361.678 162.562C361.678 168.883 356.521 174.207 350.033 174.207Z" fill="#FAFAFA"/>
<path d="M373 186.106L373 232.851L419.745 232.851L419.745 186.106L373 186.106Z" fill="#FAFAFA"/>
<path d="M419.684 186L419.684 232.745L466.429 232.745L466.429 186L419.684 186Z" fill="#FAFAFA"/>
<path d="M454.661 186.166L466.306 197.811L466.306 186.166L454.661 186.166Z" fill="#D62340"/>
<path d="M443.017 186.166L431.372 186.166L466.306 221.1L466.306 209.456L443.017 186.166Z" fill="#D62340"/>
<path d="M419.727 186.166L466.306 232.745L454.661 232.745L419.727 197.811L419.727 186.166Z" fill="#D62340"/>
<path d="M419.727 209.456L443.016 232.745L431.372 232.745L419.727 221.101L419.727 209.456Z" fill="#D62340"/>
<path d="M396.318 186.103L373.028 209.393L396.318 232.684L419.609 209.393L396.318 186.103Z" fill="#2E2E2E"/>
<defs>
<clipPath id="clip0_118_1556">
<rect width="467" height="139" fill="white" transform="translate(0 -0.000244141)"/>
</clipPath>
</defs>
</svg>
