<svg width="252" height="94" viewBox="0 0 252 94" fill="none" xmlns="http://www.w3.org/2000/svg">
<path d="M-0.000133044 0.105942L-0.00012207 46.8513L41.8399 46.8513L41.8399 0.10593L-0.000133044 0.105942Z" fill="#FAFAFA"/>
<path d="M41.7856 -1.52588e-05L41.7856 46.7454L83.6257 46.7453L83.6257 -2.75185e-05L41.7856 -1.52588e-05Z" fill="#FAFAFA"/>
<path d="M83.5715 0.0610466L83.5715 46.8064L125.412 46.8064L125.412 0.0610343L83.5715 0.0610466Z" fill="#2E2E2E"/>
<path d="M73.0927 0.166042L83.5155 11.8108L83.5155 0.166039L73.0927 0.166042Z" fill="#D62340"/>
<path d="M62.6699 0.166095L52.2471 0.166098L83.5155 35.1003L83.5155 23.4556L62.6699 0.166095Z" fill="#D62340"/>
<path d="M41.8243 0.166364L83.5155 46.7454L73.0927 46.7454L41.8243 11.8111L41.8243 0.166364Z" fill="#D62340"/>
<path d="M41.8245 23.4559L62.67 46.7454L52.2473 46.7454L41.8245 35.1006L41.8245 23.4559Z" fill="#D62340"/>
<path d="M20.8719 0.102853L0.0255127 23.3933L20.872 46.6838L41.7184 23.3933L20.8719 0.102853Z" fill="#2E2E2E"/>
<path d="M125.355 46.7444L104.51 23.4549L125.355 0.165375L125.355 46.7444Z" fill="#FAFAFA"/>
<path d="M251.285 46.8069L251.285 0.0615234L209.445 0.0615357L209.445 46.8069L251.285 46.8069Z" fill="#2E2E2E"/>
<path d="M251.325 0.0904234L230.48 23.3799L251.325 46.6694L251.325 0.0904234Z" fill="#FAFAFA"/>
<path d="M167.762 46.8518L167.762 0.106445L125.922 0.106458L125.922 46.8518L167.762 46.8518Z" fill="#D62340"/>
<path d="M209.548 46.7913L209.548 0.0458984L167.708 0.0459107L167.708 46.7913L209.548 46.7913Z" fill="#2E2E2E"/>
<path d="M188.662 11.6749C182.906 11.6749 178.239 16.8884 178.239 23.3196C178.239 29.7508 182.906 34.9644 188.662 34.9644C194.418 34.9644 199.085 29.7508 199.085 23.3196C199.085 16.8884 194.418 11.6749 188.662 11.6749Z" fill="#FAFAFA"/>
<path d="M146.822 35.1309C141.015 35.1309 136.399 29.9739 136.399 23.4861C136.399 16.9983 141.015 11.8414 146.822 11.8414C152.629 11.8414 157.245 16.9983 157.245 23.4861C157.245 29.8075 152.629 35.1309 146.822 35.1309Z" fill="#FAFAFA"/>
<path d="M167.379 47.03L167.379 93.7754L209.219 93.7754L209.219 47.03L167.379 47.03Z" fill="#FAFAFA"/>
<path d="M209.165 46.9241L209.165 93.6694L251.005 93.6694L251.005 46.924L209.165 46.9241Z" fill="#FAFAFA"/>
<path d="M240.472 47.0901L250.895 58.7349L250.895 47.0901L240.472 47.0901Z" fill="#D62340"/>
<path d="M230.049 47.0902L219.626 47.0902L250.895 82.0244L250.895 70.3797L230.049 47.0902Z" fill="#D62340"/>
<path d="M209.203 47.0904L250.895 93.6694L240.472 93.6694L209.203 58.7352L209.203 47.0904Z" fill="#D62340"/>
<path d="M209.203 70.3799L230.049 93.6694L219.626 93.6694L209.203 82.0247L209.203 70.3799Z" fill="#D62340"/>
<path d="M188.251 47.0269L167.404 70.3174L188.251 93.6078L209.097 70.3174L188.251 47.0269Z" fill="#2E2E2E"/>
</svg>
