<svg width="234" height="47" viewBox="0 0 234 47" fill="none" xmlns="http://www.w3.org/2000/svg">
<g clip-path="url(#clip0_140_822)">
<path d="M234.001 -46.5056L187.256 -46.5056L187.256 0.23974L234.001 0.239736L234.001 -46.5056Z" fill="#D62340"/>
<path d="M93.9314 -46.5059L47.186 -46.5059L47.186 0.239496L93.9314 0.239492L93.9314 -46.5059Z" fill="#2E2E2E"/>
<path d="M140.51 -46.5059L93.765 -46.5059L93.765 0.239496L140.51 0.239492L140.51 -46.5059Z" fill="#2E2E2E"/>
<path d="M47.1859 -46.5059L0.440552 -46.5059L0.440556 0.239496L47.1859 0.239492L47.1859 -46.5059Z" fill="#D62340"/>
<path d="M140.51 -11.4053L128.866 0.23948L140.51 0.239479L140.51 -11.4053Z" fill="#FAFAFA"/>
<path d="M140.51 -23.2161L140.51 -34.8608L105.576 0.239763L117.221 0.239762L140.51 -23.2161Z" fill="#FAFAFA"/>
<path d="M140.51 -46.5059L93.765 0.239495L93.765 -11.4053L128.866 -46.5059L140.51 -46.5059Z" fill="#FAFAFA"/>
<path d="M47.186 -46.5059L70.4755 -23.2164L47.186 0.239495L47.186 -46.5059Z" fill="#FAFAFA"/>
<path d="M70.4755 -46.5059L93.765 -23.2164L70.4755 0.239495L70.4755 -46.5059Z" fill="#FAFAFA"/>
<path d="M40.1606 -6.66578C49.2557 -15.7608 49.2557 -30.5068 40.1606 -39.6018C31.0656 -48.6968 16.3196 -48.6968 7.2246 -39.6018C-1.87043 -30.5068 -1.87043 -15.7608 7.2246 -6.66578C16.3196 2.42925 31.0656 2.42925 40.1606 -6.66578Z" fill="#FAFAFA"/>
<path d="M187.256 -46.5056L210.545 -23.2161L187.256 0.239739L187.256 -46.5056Z" fill="#FAFAFA"/>
<path d="M140.493 46.8789L140.493 0.133545L93.7477 0.133549L93.7477 46.8789L140.493 46.8789Z" fill="#FAFAFA"/>
<path d="M233.862 47.0005L233.862 0.255127L187.117 0.255131L187.117 47.0005L233.862 47.0005Z" fill="#D62340"/>
<path d="M93.8084 46.9849L93.8083 0.239502L47.063 0.239506L47.063 46.9849L93.8084 46.9849Z" fill="#FAFAFA"/>
<path d="M187.178 46.9397L187.178 0.194336L140.432 0.19434L140.432 46.9397L187.178 46.9397Z" fill="#2E2E2E"/>
<path d="M47.1235 46.9241L47.1235 0.178711L0.378153 0.178715L0.378157 46.9241L47.1235 46.9241Z" fill="#2E2E2E"/>
<path d="M58.8307 46.8188L47.1859 35.1741L47.1859 46.8188L58.8307 46.8188Z" fill="#D62340"/>
<path d="M70.4754 46.8188L82.1202 46.8188L47.1859 11.8845L47.1859 23.5293L70.4754 46.8188Z" fill="#D62340"/>
<path d="M93.7649 46.8188L47.1859 0.239746L58.8307 0.239745L93.7649 35.174L93.7649 46.8188Z" fill="#D62340"/>
<path d="M93.765 23.529L70.4755 0.239502L82.1202 0.239501L93.765 11.8843L93.765 23.529Z" fill="#D62340"/>
<path d="M210.545 35.174C216.976 35.174 222.19 29.9605 222.19 23.5293C222.19 17.0981 216.976 11.8845 210.545 11.8845C204.114 11.8845 198.9 17.0981 198.9 23.5293C198.9 29.9605 204.114 35.174 210.545 35.174Z" fill="#2E2E2E"/>
<path d="M163.8 35.174C170.231 35.174 175.445 29.9605 175.445 23.5293C175.445 17.0981 170.231 11.8845 163.8 11.8845C157.369 11.8845 152.155 17.0981 152.155 23.5293C152.155 29.9605 157.369 35.174 163.8 35.174Z" fill="#FAFAFA"/>
<path d="M117.174 46.8818L140.464 23.5913L117.174 0.300836L93.8835 23.5913L117.174 46.8818Z" fill="#2E2E2E"/>
<path d="M0.44104 0.240479L23.7305 23.53L0.441044 46.8195L0.44104 0.240479Z" fill="#FAFAFA"/>
</g>
<defs>
<clipPath id="clip0_140_822">
<rect width="234" height="47" fill="white" transform="translate(234.001 47.0005) rotate(-180)"/>
</clipPath>
</defs>
</svg>
