<svg width="419" height="94" viewBox="0 0 419 94" fill="none" xmlns="http://www.w3.org/2000/svg">
<path d="M167 0.105942L167 46.8513L208.84 46.8513L208.84 0.10593L167 0.105942Z" fill="#FAFAFA"/>
<path d="M208.786 -1.52588e-05L208.786 46.7454L250.626 46.7453L250.626 -2.75185e-05L208.786 -1.52588e-05Z" fill="#FAFAFA"/>
<path d="M250.571 0.0610466L250.571 46.8064L292.412 46.8064L292.412 0.0610343L250.571 0.0610466Z" fill="#2E2E2E"/>
<path d="M240.093 0.166042L250.516 11.8108L250.516 0.166039L240.093 0.166042Z" fill="#D62340"/>
<path d="M229.67 0.166095L219.247 0.166098L250.516 35.1003L250.516 23.4556L229.67 0.166095Z" fill="#D62340"/>
<path d="M208.824 0.166364L250.516 46.7454L240.093 46.7454L208.824 11.8111L208.824 0.166364Z" fill="#D62340"/>
<path d="M208.824 23.4559L229.67 46.7454L219.247 46.7454L208.824 35.1006L208.824 23.4559Z" fill="#D62340"/>
<path d="M187.872 0.102853L167.026 23.3933L187.872 46.6838L208.718 23.3933L187.872 0.102853Z" fill="#2E2E2E"/>
<path d="M292.355 46.7444L271.51 23.4549L292.355 0.165375L292.355 46.7444Z" fill="#FAFAFA"/>
<path d="M418.285 46.8069L418.285 0.0615234L376.445 0.0615357L376.445 46.8069L418.285 46.8069Z" fill="#2E2E2E"/>
<path d="M418.325 0.0904234L397.48 23.3799L418.325 46.6694L418.325 0.0904234Z" fill="#FAFAFA"/>
<path d="M334.762 46.8518L334.762 0.106445L292.922 0.106458L292.922 46.8518L334.762 46.8518Z" fill="#D62340"/>
<path d="M376.548 46.7913L376.548 0.0458984L334.708 0.0459107L334.708 46.7913L376.548 46.7913Z" fill="#2E2E2E"/>
<path d="M355.662 11.6749C349.906 11.6749 345.239 16.8884 345.239 23.3196C345.239 29.7508 349.906 34.9644 355.662 34.9644C361.418 34.9644 366.085 29.7508 366.085 23.3196C366.085 16.8884 361.418 11.6749 355.662 11.6749Z" fill="#FAFAFA"/>
<path d="M313.822 35.1309C308.015 35.1309 303.399 29.9739 303.399 23.4861C303.399 16.9983 308.015 11.8414 313.822 11.8414C319.629 11.8414 324.245 16.9983 324.245 23.4861C324.245 29.8075 319.629 35.1309 313.822 35.1309Z" fill="#FAFAFA"/>
<path d="M334.379 47.03L334.379 93.7754L376.219 93.7754L376.219 47.03L334.379 47.03Z" fill="#FAFAFA"/>
<path d="M376.165 46.9241L376.165 93.6694L418.005 93.6694L418.005 46.924L376.165 46.9241Z" fill="#FAFAFA"/>
<path d="M407.472 47.0901L417.895 58.7349L417.895 47.0901L407.472 47.0901Z" fill="#D62340"/>
<path d="M397.049 47.0902L386.626 47.0902L417.895 82.0244L417.895 70.3797L397.049 47.0902Z" fill="#D62340"/>
<path d="M376.203 47.0904L417.895 93.6694L407.472 93.6694L376.203 58.7352L376.203 47.0904Z" fill="#D62340"/>
<path d="M376.203 70.3799L397.049 93.6694L386.626 93.6694L376.203 82.0247L376.203 70.3799Z" fill="#D62340"/>
<path d="M355.251 47.0269L334.404 70.3174L355.251 93.6078L376.097 70.3174L355.251 47.0269Z" fill="#2E2E2E"/>
</svg>
