<svg width="313" height="204" viewBox="0 0 313 204" fill="none" xmlns="http://www.w3.org/2000/svg">
<g clip-path="url(#clip0_147_1015)">
<path d="M163.443 178.739C145.82 178.74 128.593 173.499 113.94 163.679C99.2868 153.859 87.8661 139.901 81.122 123.57C74.378 107.24 72.6135 89.27 76.0518 71.9334C79.49 54.5969 87.9765 38.6724 100.438 26.1738C108.69 17.7783 118.517 11.1035 129.352 6.5339C140.187 1.96428 151.816 -0.409848 163.57 -0.451707C175.324 -0.493567 186.97 1.79767 197.837 6.29C208.704 10.7823 218.578 17.387 226.889 25.7235C235.201 34.06 241.785 43.9636 246.264 54.8637C250.743 65.7638 253.027 77.4451 252.985 89.2346C252.944 101.024 250.577 112.689 246.021 123.557C241.465 134.425 234.81 144.281 226.44 152.558C218.188 160.885 208.371 167.486 197.557 171.98C186.743 176.474 175.148 178.771 163.443 178.739Z" fill="#882F23"/>
<path d="M163.443 173.093C209.542 173.093 246.913 135.609 246.913 89.3696C246.913 43.1307 209.542 5.64661 163.443 5.64661C117.344 5.64661 79.973 43.1307 79.973 89.3696C79.973 135.609 117.344 173.093 163.443 173.093Z" fill="#FFC9D4"/>
<path d="M111.218 18.5398C95.4094 18.5398 113.478 56.8175 109.215 72.0783C106.562 81.4984 103.215 90.7075 99.2006 99.6297L112.791 100.017L121.196 18.5398H111.218Z" fill="#D06E6D"/>
<path d="M224.888 25.7648H111.218V109.875H224.888V25.7648Z" fill="white"/>
<path d="M128.929 64.6093H124.487V71.289H128.929V64.6093Z" fill="#D292B4"/>
<path d="M136.733 60.7565H132.291V71.2891H136.733V60.7565Z" fill="#D292B4"/>
<path d="M144.537 56.0426H140.095V71.2891H144.537V56.0426Z" fill="#D292B4"/>
<path d="M152.341 52.4767H147.899V71.2891H152.341V52.4767Z" fill="#D292B4"/>
<path d="M160.138 48.552H155.696V71.289H160.138V48.552Z" fill="#D292B4"/>
<path d="M167.942 44.5557H163.5V71.2891H167.942V44.5557Z" fill="#D292B4"/>
<path d="M175.746 40.423H171.304V71.2891H175.746V40.423Z" fill="#D292B4"/>
<path d="M183.55 36.7638H179.108V71.289H183.55V36.7638Z" fill="#D292B4"/>
<path d="M187.148 74.2738H121.196V36.7638H121.525V73.9437H187.148V74.2738Z" fill="#D292B4"/>
<path d="M127.663 52.7853C127.603 52.7877 127.543 52.7728 127.491 52.7423C127.439 52.7118 127.397 52.6669 127.37 52.6131C127.329 52.5359 127.321 52.4459 127.346 52.3625C127.372 52.2792 127.429 52.2093 127.505 52.1682L148.843 40.7316C149.009 40.6443 149.195 40.6013 149.382 40.6066C149.569 40.6119 149.752 40.6654 149.913 40.7619C150.074 40.8584 150.207 40.9946 150.301 41.1577C150.394 41.3207 150.444 41.505 150.446 41.693C150.445 41.7661 150.463 41.8383 150.498 41.9024C150.533 41.9666 150.584 42.0205 150.646 42.0589C150.705 42.0997 150.774 42.1245 150.845 42.1308C150.916 42.1371 150.988 42.1247 151.054 42.0948L170.603 33.2339C170.642 33.216 170.684 33.2061 170.727 33.2048C170.77 33.2034 170.812 33.2106 170.852 33.226C170.892 33.2413 170.929 33.2646 170.96 33.2942C170.991 33.3239 171.015 33.3595 171.032 33.3989C171.069 33.4779 171.073 33.5683 171.044 33.6503C171.014 33.7323 170.953 33.7992 170.875 33.8365L151.325 42.6903C151.161 42.7685 150.978 42.8023 150.796 42.7885C150.615 42.7746 150.439 42.7136 150.288 42.6114C150.134 42.5132 150.007 42.3774 149.92 42.2168C149.832 42.0563 149.787 41.876 149.787 41.693C149.786 41.6185 149.767 41.5454 149.73 41.4803C149.694 41.4152 149.643 41.3601 149.58 41.3199C149.515 41.2828 149.441 41.2633 149.365 41.2633C149.29 41.2633 149.216 41.2828 149.151 41.3199L127.813 52.7494C127.767 52.7746 127.715 52.787 127.663 52.7853V52.7853Z" fill="#D292B4"/>
<path d="M172.034 32.746L169.537 32.5522L170.961 35.0132L172.034 32.746Z" fill="#D292B4"/>
<path d="M206.247 32.545H190.811V33.9728H206.247V32.545Z" fill="#D292B4"/>
<path d="M201.705 34.9055H190.811V36.3333H201.705V34.9055Z" fill="#D292B4"/>
<path d="M218.114 38.988H190.811V40.4158H218.114V38.988Z" fill="#D292B4"/>
<path d="M218.114 41.3413H190.811V42.7691H218.114V41.3413Z" fill="#D292B4"/>
<path d="M218.114 43.6875H190.811V45.1153H218.114V43.6875Z" fill="#D292B4"/>
<path d="M211.569 46.0409H190.811V47.4687H211.569V46.0409Z" fill="#D292B4"/>
<path d="M218.114 50.3673H190.811V51.7951H218.114V50.3673Z" fill="#D292B4"/>
<path d="M218.114 52.7135H190.811V54.1413H218.114V52.7135Z" fill="#D292B4"/>
<path d="M218.114 55.0596H190.811V56.4874H218.114V55.0596Z" fill="#D292B4"/>
<path d="M198.057 57.413H190.811V58.8408H198.057V57.413Z" fill="#D292B4"/>
<path d="M158.765 85.0001H159.072V82.8333H174.287V85.0001H174.602V82.8333V82.5176H174.287H159.072H158.765H151.311V78.7509H150.996V82.5176H143.543H143.235H128.02H127.713V82.8333V85.0001H128.02V82.8333H143.235V85.0001H143.543V82.8333H150.996H151.311H158.765V85.0001Z" fill="#D292B4"/>
<path d="M131.411 86.2343H124.315V86.8513H131.411V86.2343Z" fill="#D292B4"/>
<path d="M123.7 91.6512H121.511V92.2683H123.7V91.6512Z" fill="#D292B4"/>
<path d="M134.215 91.6512H132.026V92.2683H134.215V91.6512Z" fill="#D292B4"/>
<path d="M139.23 91.6512H137.041V92.2683H139.23V91.6512Z" fill="#D292B4"/>
<path d="M149.745 91.6512H147.556V92.2683H149.745V91.6512Z" fill="#D292B4"/>
<path d="M154.759 91.6512H152.57V92.2683H154.759V91.6512Z" fill="#D292B4"/>
<path d="M165.267 91.6512H163.078V92.2683H165.267V91.6512Z" fill="#D292B4"/>
<path d="M170.281 91.6512H168.092V92.2683H170.281V91.6512Z" fill="#D292B4"/>
<path d="M180.796 91.6512H178.607V92.2683H180.796V91.6512Z" fill="#D292B4"/>
<path d="M146.933 86.2343H139.838V86.8513H146.933V86.2343Z" fill="#D292B4"/>
<path d="M154.702 76.5984H147.606V77.2154H154.702V76.5984Z" fill="#D292B4"/>
<path d="M153.4 77.7607H148.908V78.3778H153.4V77.7607Z" fill="#D292B4"/>
<path d="M162.463 86.2343H155.367V86.8513H162.463V86.2343Z" fill="#D292B4"/>
<path d="M177.992 86.2343H170.896V86.8513H177.992V86.2343Z" fill="#D292B4"/>
<path d="M132.97 90.7616H133.278V88.8674V88.5589H132.97H128.02V87.5544H127.713V88.5589H122.763H122.455V88.8674V90.7616H122.763V88.8674H127.713H128.02H132.97V90.7616Z" fill="#D292B4"/>
<path d="M148.493 90.7616H148.8V88.8674V88.5589H148.493H143.543V87.5544H143.235V88.5589H138.285H137.978V88.8674V90.7616H138.285V88.8674H143.235H143.543H148.493V90.7616Z" fill="#D292B4"/>
<path d="M164.022 90.7616H164.33V88.8674V88.5589H164.022H159.072V87.5544H158.765V88.5589H153.815H153.507V88.8674V90.7616H153.815V88.8674H158.765H159.072H164.022V90.7616Z" fill="#D292B4"/>
<path d="M179.545 90.7616H179.852V88.8674V88.5589H179.545H174.602V87.5544H174.287V88.5589H169.337H169.029V88.8674V90.7616H169.337V88.8674H174.287H174.602H179.545V90.7616Z" fill="#D292B4"/>
<path d="M185.296 95.0808H121.475V96.114H185.296V95.0808Z" fill="#D292B4"/>
<path d="M185.296 96.7812H121.475V97.8144H185.296V96.7812Z" fill="#D292B4"/>
<path d="M185.296 98.4745H121.475V99.5077H185.296V98.4745Z" fill="#D292B4"/>
<path d="M169.988 100.175H121.475V101.208H169.988V100.175Z" fill="#D292B4"/>
<path d="M218.114 62.4497H190.811V83.1921H218.114V62.4497Z" fill="white"/>
<path d="M218.2 83.2781H190.725V62.3635H218.2V83.2781ZM190.889 83.1131H218.035V62.5285H190.889V83.1131Z" fill="#D292B4"/>
<path d="M193.45 67.1779V79.9275H215.21C214.902 79.3254 214.435 78.8199 213.86 78.4668C213.284 78.1136 212.623 77.9264 211.948 77.9257C211.147 77.9257 210.317 78.1984 209.573 77.9257C208.443 77.5024 208.143 76.1033 207.499 75.0558C207.025 74.2869 206.341 73.6706 205.528 73.2801C204.716 72.8897 203.808 72.7415 202.914 72.8531C201.916 73.087 200.936 73.3915 199.981 73.7643C199.551 73.9806 199.075 74.0861 198.594 74.0715C198.113 74.0568 197.644 73.9224 197.228 73.6804C196.812 73.4384 196.463 73.0963 196.212 72.6851C195.961 72.2739 195.815 71.8065 195.789 71.3249C195.676 70.464 195.499 69.6126 195.26 68.7778C195.153 68.3599 194.923 67.9839 194.6 67.6986C194.278 67.4133 193.877 67.2319 193.45 67.1779V67.1779Z" fill="#D292B4"/>
<path d="M215.468 66.5178H193.45V66.6828H215.468V66.5178Z" fill="#D292B4"/>
<path d="M215.468 70.6648H193.45V70.8298H215.468V70.6648Z" fill="#D292B4"/>
<path d="M215.468 74.8119H193.45V74.9769H215.468V74.8119Z" fill="#D292B4"/>
<path d="M215.468 78.959H193.45V79.124H215.468V78.959Z" fill="#D292B4"/>
<path d="M111.218 25.7648C115.989 22.8949 113.757 18.5398 111.218 18.5398H224.881C227.427 18.5398 229.681 23.4832 224.881 25.7648H111.218Z" fill="#D292B4"/>
<path d="M167.992 76.1106L180.045 96.0423L191.912 90.0011L194.466 96.0423L182.821 103.454C181.712 104.159 180.381 104.424 179.088 104.195C177.795 103.967 176.634 103.262 175.832 102.22L167.248 91.0701L167.992 76.1106Z" fill="#D06E6D"/>
<path d="M204.065 82.6182L204.724 84.4693C205.075 85.4653 205.185 86.5312 205.043 87.5782C204.901 88.6252 204.512 89.6231 203.908 90.4889C203.194 91.5157 202.201 92.315 201.047 92.7921L198.186 86.428L204.065 82.6182Z" fill="#EBA588"/>
<path d="M193.228 90.4029V83.228C193.777 83.4604 194.258 83.8295 194.625 84.3003C194.991 84.7712 195.232 85.3282 195.324 85.9186L195.66 88.071L198.171 86.4495L201.032 92.8136C200.491 93.0471 199.921 93.2064 199.337 93.2871L196.09 93.7104L194.015 95.0091L192.37 91.0629L193.228 90.4029Z" fill="#F0BF9C"/>
<path d="M167.992 76.1106L172.441 86.2056C173.035 87.5529 173.235 89.0413 173.018 90.498C172.801 91.9547 172.177 93.3199 171.218 94.4351L170.503 95.2745L167.27 91.0701L167.992 76.1106Z" fill="#C47170"/>
<path d="M159.709 68.5125V72.4227L157.456 75.142L153.056 72.9035V67.3932L159.709 68.5125Z" fill="#F0BF9C"/>
<path d="M155.281 70.7582C154.345 70.1211 153.573 69.2703 153.028 68.2757V67.3932L159.68 68.5125V71.9636C158.122 72.0508 156.578 71.6277 155.281 70.7582V70.7582Z" fill="#69323B"/>
<path d="M146.003 62.9304C146.454 60.699 146.282 58.3959 146.447 56.1287C146.611 53.8614 147.162 51.4794 148.829 49.9009C150.261 48.6337 152.105 47.9324 154.015 47.9279C155.05 47.9002 156.085 47.9771 157.105 48.1575C156.039 49.1548 154.959 50.7404 153.9 51.6659C154.237 55.1673 154.53 58.891 152.942 62.0264C152.079 63.6557 150.769 65.0028 149.167 65.9082C147.564 66.8136 145.737 67.2393 143.9 67.1349C144.994 65.9682 145.725 64.5071 146.003 62.9304V62.9304Z" fill="#4C242F"/>
<path d="M139.566 65.4774C138.57 64.5035 137.995 63.1769 137.963 61.7824C138.285 62.8945 139.845 63.2174 140.825 62.6434C141.292 62.3079 141.685 61.8803 141.982 61.3868C142.278 60.8933 142.471 60.3443 142.549 59.7735C143.085 57.1977 142.634 54.543 142.634 51.8812C142.634 49.2193 143.235 46.3781 145.295 44.7566C147.084 43.3216 149.652 43.2211 151.798 43.9888C153.933 44.854 155.828 46.2252 157.32 47.9852L157.141 48.1574C156.121 47.9771 155.086 47.9002 154.051 47.9278C152.141 47.9323 150.297 48.6336 148.865 49.9009C147.234 51.4794 146.654 53.8614 146.483 56.1287C146.311 58.3959 146.483 60.699 146.039 62.9304C145.761 64.5071 145.03 65.9682 143.936 67.1348C143.707 67.1348 143.486 67.0918 143.257 67.0631C141.903 66.8916 140.624 66.3422 139.566 65.4774Z" fill="#69323B"/>
<path d="M168.986 57.5708C169.329 55.8029 169.077 53.971 168.271 52.3618C167.319 50.3293 165.739 48.6592 163.765 47.6002C161.791 46.5413 159.528 46.15 157.315 46.4846C155.101 46.8192 153.054 47.8618 151.479 49.4573C149.903 51.0527 148.884 53.1158 148.571 55.3394C148.335 56.6205 148.4 57.9394 148.763 59.1906C149.125 60.4418 149.775 61.5906 150.659 62.5451C151.543 63.4996 152.637 64.2334 153.855 64.6877C155.072 65.1421 156.379 65.3044 157.67 65.1617C161.612 64.9465 168.049 61.8254 168.986 57.5708Z" fill="#69323B"/>
<path d="M153.35 58.726C154.345 58.2598 155.228 57.583 155.938 56.742C156.648 55.9011 157.168 54.9159 157.463 53.8542C160.391 55.7602 163.742 56.9135 167.22 57.2121C167.23 57.42 167.23 57.6283 167.22 57.8363V61.969C167.223 64.0669 166.439 66.0892 165.024 67.6344C163.609 69.1795 161.667 70.1346 159.583 70.3098C157.498 70.4851 155.424 69.8678 153.773 68.5805C152.121 67.2932 151.013 65.43 150.667 63.3609C150.824 63.2763 150.975 63.1804 151.118 63.0739C151.784 62.557 152.33 61.8998 152.715 61.1485C153.101 60.3973 153.318 59.5703 153.35 58.726V58.726Z" fill="#F0BF9C"/>
<path d="M146.876 62.6864C146.876 63.237 147.039 63.7752 147.344 64.233C147.649 64.6908 148.082 65.0477 148.589 65.2584C149.097 65.4691 149.655 65.5242 150.193 65.4168C150.731 65.3094 151.226 65.0442 151.614 64.6549C152.002 64.2656 152.267 63.7695 152.374 63.2295C152.481 62.6895 152.426 62.1298 152.216 61.6211C152.006 61.1124 151.65 60.6777 151.193 60.3718C150.737 60.0659 150.2 59.9026 149.652 59.9026C149.287 59.9017 148.925 59.973 148.588 60.1126C148.251 60.2521 147.945 60.4572 147.687 60.7159C147.429 60.9745 147.225 61.2818 147.085 61.62C146.946 61.9582 146.875 62.3206 146.876 62.6864Z" fill="#F0BF9C"/>
<path d="M148.171 62.6865C148.171 62.9802 148.258 63.2674 148.42 63.5116C148.583 63.7558 148.814 63.9462 149.085 64.0586C149.356 64.171 149.653 64.2004 149.94 64.1431C150.228 64.0858 150.492 63.9444 150.699 63.7367C150.906 63.529 151.047 63.2643 151.104 62.9762C151.161 62.6881 151.132 62.3895 151.02 62.1181C150.908 61.8467 150.718 61.6148 150.474 61.4516C150.231 61.2884 149.944 61.2013 149.652 61.2013C149.259 61.2013 148.882 61.3578 148.605 61.6363C148.327 61.9148 148.171 62.2926 148.171 62.6865Z" fill="#EBA588"/>
<path d="M159.709 60.6704C159.709 60.8123 159.667 60.951 159.588 61.069C159.51 61.187 159.398 61.2789 159.267 61.3332C159.137 61.3875 158.993 61.4017 158.854 61.3741C158.715 61.3464 158.588 61.278 158.488 61.1777C158.388 61.0774 158.32 60.9495 158.292 60.8103C158.264 60.6712 158.279 60.5269 158.333 60.3958C158.387 60.2647 158.478 60.1526 158.596 60.0738C158.714 59.995 158.852 59.9529 158.994 59.9529C159.183 59.9529 159.365 60.0285 159.499 60.163C159.633 60.2976 159.709 60.4801 159.709 60.6704Z" fill="#69323B"/>
<path d="M165.832 60.6704C165.832 60.8607 165.757 61.0431 165.622 61.1777C165.488 61.3123 165.306 61.3878 165.117 61.3878C164.927 61.3878 164.745 61.3123 164.611 61.1777C164.477 61.0431 164.401 60.8607 164.401 60.6704C164.401 60.4801 164.477 60.2976 164.611 60.163C164.745 60.0285 164.927 59.9529 165.117 59.9529C165.306 59.9529 165.488 60.0285 165.622 60.163C165.757 60.2976 165.832 60.4801 165.832 60.6704Z" fill="#69323B"/>
<path d="M158.464 57.5708C158.052 57.6261 157.658 57.7759 157.314 58.0086C156.969 58.2413 156.682 58.5506 156.476 58.9125L160.767 58.3457C160.47 58.0457 160.107 57.8195 159.707 57.685C159.307 57.5505 158.882 57.5114 158.464 57.5708V57.5708Z" fill="#69323B"/>
<path d="M165.274 57.6425C165.602 57.7523 165.9 57.9401 166.14 58.19C166.38 58.4398 166.557 58.7443 166.655 59.0775L163.793 58.36C163.937 58.1022 164.156 57.8949 164.421 57.7665C164.686 57.6381 164.984 57.5948 165.274 57.6425V57.6425Z" fill="#69323B"/>
<path d="M164.78 64.5735L158.607 65.0255C158.887 65.6695 159.35 66.2167 159.937 66.5994C160.525 66.982 161.212 67.1832 161.912 67.1779C163.264 67.1134 164.358 65.8291 164.78 64.5735Z" fill="white"/>
<path d="M163.443 62.7941L161.132 62.8945C161.244 63.1088 161.411 63.2887 161.616 63.4151C161.822 63.5414 162.057 63.6095 162.298 63.612C162.543 63.586 162.777 63.497 162.978 63.3537C163.178 63.2104 163.338 63.0177 163.443 62.7941V62.7941Z" fill="#EBA588"/>
<path d="M167.992 76.1106L171.032 85.9473C171.372 87.0393 171.408 88.204 171.134 89.3147C170.86 90.4253 170.288 91.4395 169.48 92.2468C168.857 92.8735 168.507 93.7223 168.507 94.6073V103.899H145.939L144.666 88.4513L146.404 76.1106H167.992Z" fill="#D06E6D"/>
<path d="M159.709 72.4227L168.808 75.142C166.844 77.5996 164.44 79.6679 161.719 81.2406V81.2406L157.484 75.1276L159.709 72.4227Z" fill="#FFC9D4"/>
<path d="M157.456 75.142L154.308 81.2549L154.179 81.2119C150.817 79.9853 147.837 77.8917 145.538 75.142L153.028 72.9034L157.456 75.142Z" fill="#FFC9D4"/>
<path d="M157.456 75.142L159.301 77.811L157.735 79.2962L155.989 77.9832L157.456 75.142Z" fill="#69323B"/>
<path d="M158.822 78.2629L157.735 79.2961C159.619 83.1052 160.561 87.3135 160.481 91.5651C160.943 91.5989 161.406 91.5273 161.836 91.3558C162.266 91.1844 162.651 90.9174 162.964 90.5749C163.047 86.1136 161.583 81.7617 158.822 78.2629V78.2629Z" fill="#69323B"/>
<path d="M153.629 90.8477C154.115 91.4432 155.474 91.6441 156.24 91.5651C155.723 87.4026 156.236 83.1765 157.735 79.2603L156.383 78.2487C154.458 81.9509 153.028 86.7365 153.629 90.8477Z" fill="#69323B"/>
<path d="M168.507 103.899C172.498 111.499 174.202 120.098 173.414 128.652L172.234 141.437H145.538L142.677 127.375C141.068 119.407 142.213 111.126 145.925 103.899H168.493H168.507Z" fill="#69323B"/>
<path d="M162.112 141.437H171.197L171.032 144.479H162.627L162.112 141.437Z" fill="#EBA588"/>
<path d="M171.54 185.362L175.896 188.992L181.619 191.79H170.718L166.426 188.031V191.79H164.752L163.443 189.236C162.976 188.327 162.7 187.331 162.632 186.31C162.564 185.29 162.706 184.266 163.049 183.302C163.049 183.302 163.049 183.259 163.049 183.231L171.297 185.146C171.383 185.218 171.454 185.297 171.54 185.362Z" fill="#9E333D"/>
<path d="M163.414 179.887L161.132 161.068C160.78 158.183 161.001 155.256 161.783 152.458L163.15 147.579L162.627 144.465H171.032L169.079 179.693C169.025 180.709 169.196 181.724 169.581 182.664C169.966 183.605 170.554 184.448 171.304 185.132L163.042 183.231C163.419 182.159 163.546 181.016 163.414 179.887Z" fill="#F0BF9C"/>
<path d="M148.8 141.437H157.885L157.72 144.479H149.315L148.8 141.437Z" fill="#EBA588"/>
<path d="M158.228 185.362L162.584 188.992L168.307 191.79H157.406L153.114 188.031V191.79H151.44L150.131 189.236C149.664 188.327 149.388 187.331 149.319 186.311C149.25 185.29 149.39 184.267 149.73 183.302C149.734 183.279 149.734 183.254 149.73 183.231L157.978 185.146C158.071 185.218 158.142 185.297 158.228 185.362Z" fill="#9E333D"/>
<path d="M150.102 179.887L147.82 161.068C147.468 158.183 147.689 155.256 148.471 152.458L149.838 147.579L149.315 144.465H157.72L155.767 179.693C155.711 180.709 155.882 181.724 156.267 182.665C156.651 183.606 157.241 184.449 157.992 185.132L149.745 183.216C150.114 182.148 150.236 181.01 150.102 179.887V179.887Z" fill="#F0BF9C"/>
<path d="M153.636 83.6656L159.709 103.16L157.649 103.899H145.939L153.636 83.6656Z" fill="#9E333D"/>
<path d="M157.649 103.899L156.454 104.473L157.649 108.189L143.278 110.715L145.023 103.899H157.649Z" fill="#4C242F"/>
<path d="M149.652 71.2676L157.735 102.636L139.365 107.551L131.282 79.2962L149.652 71.2676Z" fill="#E25F66"/>
<path d="M147.627 76.8424L129.008 83.6226L140.002 110.069L155.61 105.635L147.627 76.8424Z" fill="#C5464E"/>
<path d="M153.056 75.142H150.503L153.493 86.1768L153.056 75.142Z" fill="#9E333D"/>
<path d="M146.218 88.3077L147.777 84.8997C147.97 84.4788 148.316 84.1478 148.744 83.9744C149.173 83.801 149.651 83.7983 150.081 83.967L151.061 84.3544L153.636 83.6369C153.978 83.5491 154.341 83.5914 154.654 83.7557C154.967 83.9199 155.208 84.1945 155.331 84.5266V84.5266C155.414 84.7578 155.437 85.0065 155.397 85.249C155.357 85.4914 155.255 85.7195 155.102 85.9113L154.88 86.184L155.302 89.7714C155.341 90.1064 155.308 90.4458 155.207 90.7672C155.105 91.0887 154.937 91.3851 154.714 91.637C154.49 91.8889 154.216 92.0907 153.91 92.2292C153.603 92.3676 153.271 92.4396 152.935 92.4404H148.192L146.218 88.3077Z" fill="#F0BF9C"/>
<path d="M148.736 93.6315L146.046 87.8916L132.856 92.9929C131.807 93.4002 130.952 94.1927 130.464 95.2095C129.977 96.2262 129.893 97.391 130.231 98.4673V98.4673C130.432 99.1089 130.777 99.6961 131.238 100.184C131.699 100.673 132.265 101.049 132.893 101.286C133.521 101.522 134.195 101.612 134.862 101.549C135.53 101.486 136.175 101.271 136.747 100.921L148.736 93.6315Z" fill="#D06E6D"/>
<path d="M184.595 137.613H175.481V141.15H184.595H185.024H234.48H237.771V137.613H184.595Z" fill="#C5464E"/>
<path d="M184.595 141.15H175.481H172.191V200.3H185.024H234.48V141.15H185.024H184.595Z" fill="#9E333D"/>
<path d="M148.407 141.15H157.52H160.803H172.191H175.481V137.613H157.52H148.407H103.063V141.15H106.354H147.978H148.407Z" fill="#E25F66"/>
<path d="M172.191 141.15H106.354V200.307H172.191V141.15Z" fill="#C5464E"/>
<path d="M204.824 136.063H176.419C176.187 136.063 175.962 135.987 175.778 135.845C175.595 135.704 175.463 135.506 175.403 135.281L170.031 115.515C169.984 115.34 169.977 115.157 170.012 114.98C170.046 114.803 170.121 114.636 170.23 114.492C170.34 114.349 170.48 114.232 170.642 114.152C170.803 114.072 170.981 114.03 171.161 114.03H197.499C197.884 114.032 198.257 114.16 198.563 114.395C198.869 114.629 199.09 114.957 199.194 115.328L204.824 136.063Z" fill="#F0ABBE"/>
<path d="M205.589 136.063H176.376L170.796 115.515C170.749 115.34 170.742 115.157 170.777 114.98C170.812 114.803 170.886 114.636 170.996 114.492C171.105 114.349 171.246 114.232 171.407 114.152C171.569 114.072 171.746 114.03 171.926 114.03H198.264C198.65 114.03 199.024 114.157 199.33 114.392C199.637 114.626 199.858 114.955 199.959 115.328L205.589 136.063Z" fill="#F5B9B9"/>
<path d="M176.748 136.063L171.14 115.429C171.103 115.307 171.096 115.178 171.12 115.053C171.143 114.928 171.197 114.811 171.275 114.711C171.351 114.61 171.45 114.528 171.563 114.472C171.676 114.416 171.8 114.387 171.926 114.388H198.264C198.57 114.393 198.866 114.496 199.11 114.682C199.353 114.868 199.531 115.127 199.616 115.421L205.246 136.063H176.748Z" fill="#8B3B38"/>
<path d="M177.67 134.887L172.434 115.637H198.264C198.308 115.639 198.35 115.655 198.384 115.682C198.419 115.709 198.444 115.746 198.457 115.787L203.643 134.887H177.67Z" fill="#F5B9B9"/>
<path d="M198.186 137.613H178.064C177.619 137.613 177.193 137.436 176.878 137.122C176.563 136.807 176.385 136.38 176.383 135.934H198.193L198.186 137.613Z" fill="#F0ABBE"/>
<path d="M219.795 137.613H196.855C196.41 137.613 195.984 137.436 195.669 137.122C195.354 136.807 195.176 136.38 195.174 135.934H221.476C221.474 136.38 221.296 136.807 220.981 137.122C220.666 137.436 220.24 137.613 219.795 137.613V137.613Z" fill="#F5B9B9"/>
<path d="M218.629 196.77L219.888 195.98C221.002 195.289 222.23 194.803 223.515 194.545L224.459 194.366C224.194 192.515 223.851 189.021 223.851 189.021H218.128L218.293 193.591L213.343 198.477L214.652 198.269C216.063 198.036 217.415 197.527 218.629 196.77V196.77Z" fill="#F0BF9C"/>
<path d="M224.623 195.299C224.553 194.991 224.498 194.68 224.459 194.366L223.515 194.545C222.23 194.803 221.002 195.289 219.888 195.98L218.629 196.77C217.406 197.53 216.044 198.04 214.623 198.269L213.314 198.477L210.367 199.381C209.783 199.559 209.261 199.9 208.862 200.363C208.464 200.827 208.204 201.394 208.114 202H215.425C217.416 202.001 219.343 201.297 220.868 200.013L222.005 199.051L221.433 202H223.787L224.809 198.642C225.094 197.704 225.074 196.699 224.752 195.772C224.7 195.61 224.657 195.452 224.623 195.299Z" fill="#69323B"/>
<path d="M224.151 191.84C223.987 190.405 223.851 189.021 223.851 189.021H218.128L218.25 192.278C220.226 192.549 222.237 192.4 224.151 191.84Z" fill="#A64F5A"/>
<path d="M210.367 157.129L213.386 190.248C215.583 191.052 217.919 191.402 220.254 191.279C222.59 191.156 224.876 190.561 226.977 189.53L221.598 157.129H210.367Z" fill="white"/>
<path d="M221.598 157.107H210.367L211.927 174.198H224.409L221.598 157.107Z" fill="#F5B9B9"/>
<path d="M202.957 196.77L204.216 195.98C205.333 195.29 206.563 194.804 207.849 194.545L208.794 194.366C208.529 192.515 208.186 189.021 208.186 189.021H202.463L202.628 193.591L197.671 198.477L198.987 198.269C200.395 198.035 201.744 197.526 202.957 196.77V196.77Z" fill="#F0BF9C"/>
<path d="M208.951 195.299C208.908 195.112 208.851 194.775 208.794 194.366L207.849 194.545C206.563 194.804 205.333 195.29 204.216 195.98L202.957 196.77C201.736 197.529 200.377 198.039 198.958 198.269L197.642 198.477L194.702 199.381C194.117 199.558 193.594 199.898 193.195 200.362C192.796 200.825 192.537 201.394 192.449 202H199.759C201.748 202.001 203.674 201.297 205.196 200.013L206.333 199.051L205.768 202H208.107L209.123 198.642C209.409 197.704 209.392 196.699 209.073 195.772C209.037 195.6 208.987 195.449 208.951 195.299Z" fill="#69323B"/>
<path d="M208.479 191.84C208.314 190.405 208.186 189.021 208.186 189.021H202.463L202.578 192.278C204.554 192.55 206.564 192.4 208.479 191.84Z" fill="#A64F5A"/>
<path d="M223.844 148.375L201.812 154.976C199.807 155.572 198.069 156.846 196.895 158.582C195.722 160.318 195.184 162.408 195.374 164.497L197.713 190.226C199.905 191.026 202.235 191.374 204.564 191.251C206.893 191.127 209.173 190.535 211.269 189.509L207.392 165.81L220.267 161.699H238.465C239.786 161.702 241.089 161.392 242.269 160.796C243.449 160.199 244.473 159.333 245.257 158.266C246.041 157.199 246.564 155.963 246.783 154.656C247.003 153.349 246.912 152.008 246.519 150.743L245.804 148.375L240.911 144.666L223.844 148.375Z" fill="white"/>
<path d="M246.898 153.577C246.94 152.606 246.812 151.634 246.519 150.707L245.804 148.34L240.911 144.63L223.844 148.375C227.42 154.488 237.621 158.348 246.898 153.577Z" fill="#F5B9B9"/>
<path d="M207.392 165.81L200.761 165.408C204.115 169.713 207.606 167.123 207.606 167.123L207.392 165.81Z" fill="#F5B9B9"/>
<path d="M224.809 112.135L217.771 113.075L215.861 109.301L222.756 106.065L224.809 112.135Z" fill="#F0BF9C"/>
<path d="M241.963 150.671C243.702 149.939 245.297 148.899 246.669 147.6L242.034 141.703C238.637 137.398 234.724 127.949 234.359 122.453L233.679 112.15H218.758L214.988 113.09L215.861 129.341L223.844 148.375C226.88 151.033 230.794 152.463 234.824 152.386C236.507 152.318 238.173 152.016 239.774 151.489C239.273 149.983 238.78 148.469 238.286 146.962C239.445 148.225 240.732 149.423 241.963 150.671Z" fill="white"/>
<path d="M215.861 129.326L218.2 121.57V135.066L215.861 129.326Z" fill="#F5B9B9"/>
<path d="M220.503 114.797C220.275 116.143 220.125 117.502 220.053 118.865C220.106 120.141 220.42 121.392 220.975 122.541C221.53 123.69 222.314 124.712 223.279 125.545C225.23 127.198 227.609 128.26 230.139 128.609C231.413 128.849 232.72 128.849 233.994 128.609C234.46 128.507 234.913 128.355 235.346 128.157C234.82 126.307 234.489 124.407 234.359 122.489L233.679 112.186H220.36C220.559 113.041 220.607 113.925 220.503 114.797V114.797Z" fill="#69323B"/>
<path d="M209.616 105.083C210.124 106.883 210.889 108.749 212.477 109.753C212.999 110.082 213.582 110.3 214.191 110.396C214.799 110.493 215.421 110.464 216.018 110.313C217.212 109.989 218.236 109.219 218.879 108.161C219.302 107.415 219.558 106.586 219.63 105.731C219.701 104.876 219.587 104.016 219.294 103.21C218.699 101.598 217.678 100.179 216.34 99.1059C215.288 98.1749 214.03 97.5085 212.671 97.1615C211.347 96.8674 208.701 96.8602 208.522 98.6467C208.321 100.677 209.065 103.153 209.616 105.083Z" fill="#F0BF9C"/>
<path d="M209.781 101C210.954 101.653 212.176 102.212 213.436 102.672C214.705 103.145 215.756 104.069 216.39 105.269C217.041 106.783 216.562 108.684 217.499 110.033C218.214 111.073 219.645 111.468 220.31 112.566C221.304 114.094 220.439 116.103 220.453 117.933C220.54 119.686 221.311 121.335 222.599 122.524C223.869 123.701 225.366 124.602 226.998 125.172C232.006 127.109 239.044 124.397 240.117 118.715C240.351 116.937 240.305 115.133 239.981 113.369C239.709 111.303 239.309 109.021 237.657 107.766C236.226 106.654 233.923 106.503 233.086 104.896C232.249 103.289 233.508 101.022 232.699 99.3068C231.984 97.7355 229.938 97.3839 228.522 96.3794C226.984 95.2817 226.219 93.4162 225.06 91.9167C224.241 90.8685 223.223 89.9947 222.063 89.3467C220.903 88.6986 219.627 88.2893 218.307 88.1427C215.897 87.8396 213.466 88.5055 211.544 89.9951C209.621 91.4847 208.365 93.6768 208.05 96.0924C207.735 98.1373 207.799 99.687 209.781 101Z" fill="#69323B"/>
<path d="M199.781 133.574L198.2 132.77C197.068 132.189 195.758 132.061 194.536 132.413C193.314 132.765 192.271 133.57 191.619 134.664L190.861 135.934H199.781V133.574Z" fill="#F0BF9C"/>
<path d="M208.35 133.767L212.399 117.402C212.824 115.737 213.735 114.238 215.017 113.097V113.097L218.229 121.592L213.665 136.738C213.491 137.314 213.204 137.85 212.82 138.313C212.435 138.776 211.962 139.157 211.428 139.433C210.895 139.708 210.311 139.874 209.712 139.919C209.113 139.963 208.511 139.887 207.942 139.694L197.585 136.2L197.799 135.31C198.02 134.399 198.58 133.607 199.366 133.098C200.151 132.59 201.101 132.403 202.02 132.576L208.35 133.767Z" fill="white"/>
<path d="M210.296 167.547C210.523 165.927 211.325 164.444 212.555 163.369C213.785 162.295 215.36 161.702 216.991 161.699H218.915C219.612 161.696 220.286 161.451 220.823 161.007C221.36 160.562 221.727 159.945 221.862 159.26L228.071 127.604C228.951 123.099 231.366 119.042 234.901 116.127C238.436 113.211 242.873 111.62 247.449 111.626H253.701L252.685 112.645C255.801 113.876 258.387 116.165 259.994 119.112C261.6 122.059 262.125 125.478 261.476 128.774L254.91 162.259C254.522 164.235 253.462 166.016 251.911 167.296C250.36 168.576 248.413 169.275 246.405 169.276H210.053L210.296 167.547Z" fill="#C47170"/>
<path d="M261.162 162.237L267.728 128.752C268.137 126.671 268.082 124.526 267.565 122.469C267.048 120.412 266.083 118.496 264.74 116.858C263.396 115.221 261.708 113.902 259.795 112.997C257.883 112.092 255.794 111.624 253.679 111.626V111.626C249.108 111.625 244.677 113.217 241.146 116.131C237.616 119.044 235.204 123.097 234.323 127.597L227.528 162.237C227.14 164.214 226.08 165.994 224.529 167.274C222.977 168.554 221.031 169.254 219.023 169.254H252.642C254.653 169.257 256.603 168.559 258.157 167.279C259.711 165.999 260.773 164.216 261.162 162.237V162.237Z" fill="#882F23"/>
<path d="M250.804 169.254H252.657L253.157 173.71L251.183 172.641L250.804 169.254Z" fill="#69323B"/>
<path d="M253.157 173.71L256.297 202H254.445L251.183 172.641L253.157 173.71Z" fill="#B08887"/>
<path d="M236.991 173.215L240.196 202H238.343L235.024 172.146L236.991 173.215Z" fill="#B08887"/>
<path d="M234.695 169.254H236.548L236.991 173.215L235.024 172.146L234.695 169.254Z" fill="#69323B"/>
<path d="M227.728 169.254H229.581L229.13 173.315L227.385 172.368L227.728 169.254Z" fill="#69323B"/>
<path d="M224.087 202L227.385 172.368L229.13 173.315L225.94 202H224.087Z" fill="#B08887"/>
<path d="M211.619 169.254H213.472L213.057 173.042L211.304 172.095L211.619 169.254Z" fill="#69323B"/>
<path d="M207.978 202L211.304 172.095L213.057 173.042L209.831 202H207.978Z" fill="#B08887"/>
<path d="M128.536 136.573H159.294C159.545 136.573 159.789 136.491 159.988 136.338C160.188 136.184 160.331 135.969 160.396 135.726L166.211 114.345C166.261 114.157 166.268 113.959 166.23 113.767C166.192 113.576 166.111 113.395 165.993 113.24C165.875 113.085 165.723 112.959 165.549 112.872C165.374 112.785 165.183 112.739 164.988 112.738H136.468C136.047 112.739 135.637 112.881 135.305 113.14C134.972 113.4 134.735 113.763 134.63 114.173L128.536 136.573Z" fill="#F0ABBE"/>
<path d="M127.706 136.573H159.323L165.36 114.331C165.412 114.143 165.419 113.945 165.382 113.753C165.346 113.562 165.265 113.381 165.148 113.226C165.03 113.07 164.878 112.944 164.704 112.857C164.53 112.77 164.338 112.724 164.144 112.724H135.639C135.217 112.725 134.808 112.866 134.475 113.126C134.142 113.386 133.905 113.749 133.8 114.159L127.706 136.573Z" fill="#F5B9B9"/>
<path d="M158.929 136.573L164.995 114.245C165.031 114.113 165.037 113.975 165.011 113.84C164.985 113.706 164.929 113.58 164.847 113.471C164.765 113.362 164.658 113.273 164.536 113.212C164.414 113.151 164.28 113.119 164.144 113.118H135.639C135.304 113.119 134.979 113.229 134.713 113.433C134.447 113.636 134.254 113.921 134.165 114.245L128.099 136.573H158.929Z" fill="#8B3B38"/>
<path d="M157.928 135.267L163.593 114.46H135.639C135.591 114.459 135.545 114.474 135.507 114.502C135.469 114.531 135.443 114.572 135.431 114.618L129.809 135.296L157.928 135.267Z" fill="#F5B9B9"/>
<path d="M135.724 138.252H157.506C157.988 138.252 158.45 138.06 158.79 137.718C159.131 137.376 159.323 136.913 159.323 136.429H135.717L135.724 138.252Z" fill="#F0ABBE"/>
<path d="M112.334 138.252H137.162C137.401 138.253 137.638 138.206 137.859 138.115C138.08 138.024 138.28 137.889 138.449 137.72C138.618 137.551 138.752 137.349 138.843 137.128C138.934 136.906 138.98 136.669 138.979 136.429H110.517C110.516 136.669 110.562 136.906 110.653 137.128C110.744 137.349 110.878 137.551 111.047 137.72C111.216 137.889 111.416 138.024 111.637 138.115C111.858 138.206 112.095 138.253 112.334 138.252V138.252Z" fill="#F5B9B9"/>
<path d="M119.637 95.4969V104.444C119.637 105.747 119.121 106.998 118.202 107.919C117.283 108.841 116.037 109.359 114.737 109.359H113.914L113.199 110.55H103.557L106.819 105.47L119.637 95.4969Z" fill="#F0BF9C"/>
<path d="M119.659 97.2189L117.448 100.29V103.59C117.448 104.492 117.091 105.357 116.455 105.995C115.819 106.633 114.957 106.991 114.058 106.991H108.149C107.577 106.99 107.014 106.843 106.514 106.565C106.013 106.286 105.592 105.885 105.288 105.398C99.1934 95.6907 100.767 88.3437 107.52 89.3266C113.299 80.9177 128.092 90.9338 119.659 97.2189Z" fill="#69323B"/>
<path d="M118.764 98.4601L117.448 100.29V103.497C117.507 103.722 117.65 103.915 117.847 104.038C118.044 104.16 118.28 104.203 118.507 104.157C118.926 103.973 119.266 103.645 119.465 103.231C119.817 102.635 120.046 101.974 120.138 101.287C120.247 100.57 120.153 99.8363 119.866 99.1704C119.79 98.9445 119.639 98.7512 119.439 98.6222C119.239 98.4932 119.001 98.4361 118.764 98.4601V98.4601Z" fill="#F0BF9C"/>
<path d="M106.533 197.308C105.919 196.552 105.435 195.698 105.102 194.782L104.852 194.065H96.9831L96.3751 200.3H108.099C107.783 199.207 107.25 198.189 106.533 197.308Z" fill="#C47170"/>
<path d="M108.099 200.3H96.3751L96.2106 202H108.45L108.328 201.283C108.268 200.951 108.192 200.623 108.099 200.3Z" fill="white"/>
<path d="M104.809 194.065H96.9831L96.7471 196.468L104.809 194.065Z" fill="#69323B"/>
<path d="M111.475 156.024L108.464 194.065H94.6511L97.6054 163.457L111.475 156.024Z" fill="#D06E6D"/>
<path d="M109.973 175.044L96.8544 171.234L97.6054 163.457L111.475 156.024L109.973 175.044Z" fill="#8B5262"/>
<path d="M131.075 197.702C129.752 197.058 128.655 196.028 127.928 194.746L127.541 194.065H120.51L119.172 200.3H134.001C133.276 199.186 132.265 198.288 131.075 197.702V197.702Z" fill="#C47170"/>
<path d="M134.001 200.3H119.172L118.814 202H134.823V201.935C134.616 201.359 134.34 200.809 134.001 200.3V200.3Z" fill="white"/>
<path d="M127.541 194.065H120.51L119.995 196.468L127.541 194.065Z" fill="#69323B"/>
<path d="M112.255 147.084L127.277 153.749C128.781 154.41 130.042 155.526 130.882 156.941C131.722 158.357 132.1 160 131.962 161.642L129.422 194.065H115.61L118.564 163.457L109.701 162.467H87.6912V147.084H112.255Z" fill="#D06E6D"/>
<path d="M118.564 163.457H128.228L127.627 163.909C126.316 164.882 124.795 165.532 123.187 165.806C121.579 166.08 119.929 165.971 118.371 165.487V165.487L118.564 163.457Z" fill="#8B5262"/>
<path d="M138.071 120.221L134.702 114.209C135.059 114.037 135.463 113.988 135.851 114.07C136.239 114.152 136.589 114.359 136.847 114.661L137.87 115.845L138.071 120.221Z" fill="#F0BF9C"/>
<path d="M136.576 122.252L138.078 120.221L137.363 115.78C137.291 112.264 138.793 110.421 139.594 109.71C139.713 109.602 139.864 109.537 140.023 109.526C140.183 109.514 140.341 109.556 140.474 109.646V109.646C140.625 109.754 140.729 109.917 140.762 110.101C140.796 110.284 140.756 110.474 140.653 110.629C139.954 111.689 139.517 112.902 139.38 114.166C140.052 112.825 141.057 111.681 142.298 110.844C142.417 110.762 142.558 110.718 142.702 110.718C142.847 110.718 142.987 110.762 143.106 110.844L145.159 112.465C145.233 112.524 145.295 112.597 145.341 112.68C145.387 112.762 145.416 112.853 145.427 112.947C145.437 113.041 145.429 113.137 145.403 113.227C145.377 113.318 145.333 113.403 145.274 113.477C144.555 114.395 143.996 115.428 143.622 116.533C144.38 119.511 142.963 121.498 142.348 121.829L139.902 125.746L136.576 122.252Z" fill="#F0BF9C"/>
<path d="M99.3221 109.359H112.04C114.597 109.358 117.094 110.125 119.212 111.561C121.33 112.997 122.97 115.036 123.922 117.416L128.793 129.57L135.86 121.384C139.33 121.305 141.032 125.323 141.032 125.323L131.733 138.696C131.159 139.554 130.365 140.241 129.435 140.685C128.505 141.128 127.472 141.311 126.447 141.215C125.422 141.118 124.441 140.746 123.609 140.138C122.777 139.529 122.124 138.706 121.719 137.757L117.462 128.221L114.329 143.712C114.132 144.686 113.681 145.591 113.023 146.334C112.365 147.078 111.522 147.633 110.581 147.945C103.063 150.406 89.6153 151.102 86.5967 149.473C86.5967 149.473 84.3005 109.359 99.3221 109.359Z" fill="white"/>
<path d="M117.491 128.221L119.265 119.023L119.637 133.028L117.491 128.221Z" fill="#F5B9B9"/>
<path d="M128.793 129.57L130.939 135.009L131.146 132.139C131.194 131.455 131.09 130.77 130.843 130.131C130.595 129.492 130.211 128.916 129.716 128.444V128.444L128.793 129.57Z" fill="#F5B9B9"/>
<path d="M121.704 167.547C121.477 165.927 120.675 164.444 119.445 163.369C118.215 162.295 116.64 161.702 115.009 161.699H113.092C112.392 161.705 111.713 161.467 111.168 161.026C110.624 160.585 110.25 159.968 110.109 159.281L103.9 127.626C103.026 123.125 100.621 119.069 97.0957 116.151C93.5702 113.232 89.1435 111.633 84.5724 111.626H78.3206L79.3506 112.645C76.2326 113.869 73.6415 116.152 72.0285 119.095C70.4156 122.038 69.8831 125.456 70.5237 128.752L77.0902 162.237C77.478 164.214 78.5381 165.994 80.0893 167.274C81.6406 168.554 83.5867 169.254 85.5953 169.254H121.947L121.704 167.547Z" fill="#C47170"/>
<path d="M70.8384 162.237L64.2719 128.752C63.8627 126.671 63.9185 124.526 64.4352 122.469C64.952 120.412 65.9168 118.496 67.2603 116.858C68.6038 115.221 70.2925 113.902 72.205 112.997C74.1174 112.092 76.2061 111.624 78.3206 111.626V111.626C82.8925 111.625 87.3228 113.217 90.8536 116.131C94.3844 119.044 96.7964 123.097 97.6769 127.597L104.472 162.237C104.86 164.213 105.919 165.992 107.469 167.272C109.019 168.552 110.963 169.252 112.97 169.254H79.3506C77.3408 169.255 75.393 168.556 73.8403 167.276C72.2876 165.996 71.2265 164.215 70.8384 162.237V162.237Z" fill="#882F23"/>
<path d="M81.1962 169.254H79.3435L78.85 173.71L80.8171 172.641L81.1962 169.254Z" fill="#69323B"/>
<path d="M78.8499 173.71L75.7025 202H77.5552L80.817 172.641L78.8499 173.71Z" fill="#B08887"/>
<path d="M95.0088 173.215L91.8114 202H93.6641L96.9831 172.146L95.0088 173.215Z" fill="#B08887"/>
<path d="M97.3049 169.254H95.4523L95.0088 173.215L96.9831 172.146L97.3049 169.254Z" fill="#69323B"/>
<path d="M104.272 169.254H102.419L102.87 173.315L104.615 172.368L104.272 169.254Z" fill="#69323B"/>
<path d="M107.913 202L104.615 172.368L102.87 173.315L106.06 202H107.913Z" fill="#B08887"/>
<path d="M120.381 169.254H118.528L118.95 173.042L120.696 172.095L120.381 169.254Z" fill="#69323B"/>
<path d="M124.022 202L120.696 172.095L118.95 173.042L122.169 202H124.022Z" fill="#B08887"/>
</g>
<rect y="148" width="313" height="56" rx="28" fill="#2E2E2E"/>
<path d="M30.592 167.152V184H26.488V167.152H30.592ZM48.6381 184H44.5341L37.6701 173.608V184H33.5661V167.152H37.6701L44.5341 177.592V167.152H48.6381V184ZM63.733 167.152V170.44H59.269V184H55.165V170.44H50.701V167.152H63.733ZM69.8967 170.44V173.848H75.3927V177.016H69.8967V180.712H76.1127V184H65.7927V167.152H76.1127V170.44H69.8967ZM87.3691 184L83.8651 177.64H82.8811V184H78.7771V167.152H85.6651C86.9931 167.152 88.1211 167.384 89.0491 167.848C89.9931 168.312 90.6971 168.952 91.1611 169.768C91.6251 170.568 91.8571 171.464 91.8571 172.456C91.8571 173.576 91.5371 174.576 90.8971 175.456C90.2731 176.336 89.3451 176.96 88.1131 177.328L92.0011 184H87.3691ZM82.8811 174.736H85.4251C86.1771 174.736 86.7371 174.552 87.1051 174.184C87.4891 173.816 87.6811 173.296 87.6811 172.624C87.6811 171.984 87.4891 171.48 87.1051 171.112C86.7371 170.744 86.1771 170.56 85.4251 170.56H82.8811V174.736ZM109.505 184H105.401L98.5373 173.608V184H94.4333V167.152H98.5373L105.401 177.592V167.152H109.505V184ZM122.968 181.024H116.68L115.672 184H111.376L117.472 167.152H122.224L128.32 184H123.976L122.968 181.024ZM121.912 177.856L119.824 171.688L117.76 177.856H121.912ZM134.28 180.832H139.656V184H130.176V167.152H134.28V180.832ZM169.883 167.152L165.491 184H160.523L157.835 172.912L155.051 184H150.083L145.811 167.152H150.203L152.627 179.416L155.627 167.152H160.139L163.019 179.416L165.467 167.152H169.883ZM179.909 184.168C178.325 184.168 176.869 183.8 175.541 183.064C174.229 182.328 173.181 181.304 172.397 179.992C171.629 178.664 171.245 177.176 171.245 175.528C171.245 173.88 171.629 172.4 172.397 171.088C173.181 169.776 174.229 168.752 175.541 168.016C176.869 167.28 178.325 166.912 179.909 166.912C181.493 166.912 182.941 167.28 184.253 168.016C185.581 168.752 186.621 169.776 187.373 171.088C188.141 172.4 188.525 173.88 188.525 175.528C188.525 177.176 188.141 178.664 187.373 179.992C186.605 181.304 185.565 182.328 184.253 183.064C182.941 183.8 181.493 184.168 179.909 184.168ZM179.909 180.424C181.253 180.424 182.325 179.976 183.125 179.08C183.941 178.184 184.349 177 184.349 175.528C184.349 174.04 183.941 172.856 183.125 171.976C182.325 171.08 181.253 170.632 179.909 170.632C178.549 170.632 177.461 171.072 176.645 171.952C175.845 172.832 175.445 174.024 175.445 175.528C175.445 177.016 175.845 178.208 176.645 179.104C177.461 179.984 178.549 180.424 179.909 180.424ZM199.4 184L195.896 177.64H194.912V184H190.808V167.152H197.696C199.024 167.152 200.152 167.384 201.08 167.848C202.024 168.312 202.728 168.952 203.192 169.768C203.656 170.568 203.888 171.464 203.888 172.456C203.888 173.576 203.568 174.576 202.928 175.456C202.304 176.336 201.376 176.96 200.144 177.328L204.032 184H199.4ZM194.912 174.736H197.456C198.208 174.736 198.768 174.552 199.136 174.184C199.52 173.816 199.712 173.296 199.712 172.624C199.712 171.984 199.52 171.48 199.136 171.112C198.768 170.744 198.208 170.56 197.456 170.56H194.912V174.736ZM216.233 184L210.569 176.56V184H206.465V167.152H210.569V174.544L216.185 167.152H221.009L214.481 175.408L221.249 184H216.233ZM229.295 184.168C228.063 184.168 226.959 183.968 225.983 183.568C225.007 183.168 224.223 182.576 223.631 181.792C223.055 181.008 222.751 180.064 222.719 178.96H227.087C227.151 179.584 227.367 180.064 227.735 180.4C228.103 180.72 228.583 180.88 229.175 180.88C229.783 180.88 230.263 180.744 230.615 180.472C230.967 180.184 231.143 179.792 231.143 179.296C231.143 178.88 230.999 178.536 230.711 178.264C230.439 177.992 230.095 177.768 229.679 177.592C229.279 177.416 228.703 177.216 227.951 176.992C226.863 176.656 225.975 176.32 225.287 175.984C224.599 175.648 224.007 175.152 223.511 174.496C223.015 173.84 222.767 172.984 222.767 171.928C222.767 170.36 223.335 169.136 224.471 168.256C225.607 167.36 227.087 166.912 228.911 166.912C230.767 166.912 232.263 167.36 233.399 168.256C234.535 169.136 235.143 170.368 235.223 171.952H230.783C230.751 171.408 230.551 170.984 230.183 170.68C229.815 170.36 229.343 170.2 228.767 170.2C228.271 170.2 227.871 170.336 227.567 170.608C227.263 170.864 227.111 171.24 227.111 171.736C227.111 172.28 227.367 172.704 227.879 173.008C228.391 173.312 229.191 173.64 230.279 173.992C231.367 174.36 232.247 174.712 232.919 175.048C233.607 175.384 234.199 175.872 234.695 176.512C235.191 177.152 235.439 177.976 235.439 178.984C235.439 179.944 235.191 180.816 234.695 181.6C234.215 182.384 233.511 183.008 232.583 183.472C231.655 183.936 230.559 184.168 229.295 184.168ZM252.557 167.152V184H248.453V177.064H242.069V184H237.965V167.152H242.069V173.752H248.453V167.152H252.557ZM263.487 184.168C261.903 184.168 260.447 183.8 259.119 183.064C257.807 182.328 256.759 181.304 255.975 179.992C255.207 178.664 254.823 177.176 254.823 175.528C254.823 173.88 255.207 172.4 255.975 171.088C256.759 169.776 257.807 168.752 259.119 168.016C260.447 167.28 261.903 166.912 263.487 166.912C265.071 166.912 266.519 167.28 267.831 168.016C269.159 168.752 270.199 169.776 270.951 171.088C271.719 172.4 272.103 173.88 272.103 175.528C272.103 177.176 271.719 178.664 270.951 179.992C270.183 181.304 269.143 182.328 267.831 183.064C266.519 183.8 265.071 184.168 263.487 184.168ZM263.487 180.424C264.831 180.424 265.903 179.976 266.703 179.08C267.519 178.184 267.927 177 267.927 175.528C267.927 174.04 267.519 172.856 266.703 171.976C265.903 171.08 264.831 170.632 263.487 170.632C262.127 170.632 261.039 171.072 260.223 171.952C259.423 172.832 259.023 174.024 259.023 175.528C259.023 177.016 259.423 178.208 260.223 179.104C261.039 179.984 262.127 180.424 263.487 180.424ZM287.226 172.576C287.226 173.552 287.002 174.448 286.554 175.264C286.106 176.064 285.418 176.712 284.49 177.208C283.562 177.704 282.41 177.952 281.034 177.952H278.49V184H274.386V167.152H281.034C282.378 167.152 283.514 167.384 284.442 167.848C285.37 168.312 286.066 168.952 286.53 169.768C286.994 170.584 287.226 171.52 287.226 172.576ZM280.722 174.688C281.506 174.688 282.09 174.504 282.474 174.136C282.858 173.768 283.05 173.248 283.05 172.576C283.05 171.904 282.858 171.384 282.474 171.016C282.09 170.648 281.506 170.464 280.722 170.464H278.49V174.688H280.722Z" fill="white"/>
<defs>
<clipPath id="clip0_147_1015">
<rect width="204" height="202" fill="white" transform="translate(64)"/>
</clipPath>
</defs>
</svg>
