<svg width="67" height="59" viewBox="0 0 67 59" fill="none" xmlns="http://www.w3.org/2000/svg">
<path d="M60.4102 42.9992C60.1629 42.6054 59.9065 42.2207 59.6592 41.8269C56.9757 37.5864 54.2922 33.346 51.6179 29.1055C51.508 28.9315 51.4164 28.7209 51.3981 28.5194C51.0592 24.6453 49.6671 21.2016 47.1393 18.2526C43.714 14.2594 39.3362 12.1346 34.0883 11.8873C29.2251 11.6583 24.948 13.2519 21.3212 16.4483C18.3996 19.0127 16.5495 22.2732 15.6886 26.074C15.6795 26.129 15.652 26.1839 15.6337 26.2664C14.9468 24.7552 16.4671 17.7671 18.1889 14.4151C20.1031 10.6967 22.7591 7.60107 26.221 5.25646C31.8628 1.45563 38.0631 0.109308 44.7581 1.35488C51.4256 2.5913 56.6918 6.10821 60.6392 11.6583C62.6449 10.3944 64.6232 9.14888 66.6014 7.89414C66.6381 7.91246 66.6747 7.93078 66.7113 7.95825C64.6506 19.6355 62.59 31.3036 60.5384 42.9809C60.4926 42.99 60.4468 42.99 60.4102 42.9992Z" fill="white"/>
<path d="M51.0777 33.6574C51.5448 40.7187 48.0095 50.6191 38.4662 55.8762C32.8978 58.9443 26.9813 59.7503 20.7992 58.3032C14.6355 56.8562 9.7631 53.4308 6.09049 48.247C4.09391 49.5018 2.11564 50.7474 0 52.0845C2.07901 40.2699 4.1397 28.6018 6.20039 16.9245C6.23703 16.9154 6.28282 16.9062 6.31945 16.9062C6.57589 17.2909 6.83234 17.6847 7.07962 18.0694C9.75394 22.2915 12.4283 26.5228 15.0843 30.7541C15.2125 30.9647 15.3132 31.2212 15.3315 31.4684C15.6796 35.2235 17.035 38.5664 19.4346 41.4697C22.402 45.0598 26.2212 47.203 30.8096 47.8532C36.1583 48.6134 40.9482 47.1846 45.0879 43.7227C48.1927 41.1216 50.1252 37.7696 51.0319 33.8314C51.0502 33.7673 51.0685 33.7123 51.0777 33.6574Z" fill="white"/>
<path d="M47.7622 29.9939C47.7439 37.9619 41.3053 44.3638 33.3099 44.3455C25.3419 44.3272 18.94 37.8795 18.9583 29.8932C18.9766 21.8885 25.4151 15.5324 33.5022 15.5416C41.3786 15.5691 47.7805 22.0442 47.7622 29.9939ZM26.6699 29.5818C26.7065 29.5635 26.7523 29.536 26.7889 29.5177C28.9595 31.5417 31.1301 33.5566 33.3648 35.6265C33.3831 35.4158 33.3923 35.3151 33.3923 35.2143C33.3923 31.7066 33.3923 28.1897 33.3923 24.6819C33.3923 24.6086 33.4106 24.5079 33.3831 24.453C33.319 24.3522 33.2274 24.2148 33.145 24.2057C32.4947 24.1874 31.8445 24.1965 31.1118 24.1965C31.1118 26.2572 31.1118 28.2721 31.1118 30.287C31.0752 30.2962 31.0294 30.3145 30.9927 30.3236C28.8313 28.3179 26.6607 26.3122 24.4626 24.2698C24.4626 28.1347 24.4626 31.8989 24.4626 35.6631C25.2136 35.6631 25.9188 35.6631 26.6882 35.6631C26.6699 33.6207 26.6699 31.5967 26.6699 29.5818ZM34.7752 24.2057C34.7752 28.0706 34.7752 31.8623 34.7752 35.6997C35.5263 35.6997 36.2406 35.6997 36.955 35.6997C38.6036 35.6997 40.2521 35.7089 41.9007 35.6906C42.038 35.6906 42.2945 35.5624 42.3036 35.4799C42.3403 34.8205 42.322 34.1519 42.322 33.4834C42.1663 33.4742 42.0747 33.4559 41.9831 33.4559C40.4994 33.4559 39.0248 33.4376 37.5412 33.4559C37.1382 33.465 36.9733 33.3735 36.9916 32.9338C37.0283 32.0363 37.0008 31.1296 37.0008 30.232C37.0008 28.3728 37.01 26.5136 36.9916 24.6453C36.9916 24.4987 36.8543 24.224 36.7627 24.2148C36.1124 24.1874 35.453 24.2057 34.7752 24.2057Z" fill="white"/>
</svg>
