<svg width="340" height="100" viewBox="0 0 340 100" fill="none" xmlns="http://www.w3.org/2000/svg">
<g clip-path="url(#clip0_148_1092)">
<path d="M30.727 30.6256H61.501V-0.0155792H30.727V30.6256Z" fill="#D62340"/>
<path d="M77.2136 30.8262L60.3096 30.8262C60.3096 47.7189 74.0557 61.4674 91.0836 61.4674V44.5746C83.4056 44.5746 77.2136 38.4094 77.2136 30.8262Z" fill="#D62340"/>
<path d="M60.3223 99.985H100.013V61.5756H60.3223V99.985Z" fill="#2E2E2E"/>
<path d="M61.4862 78.4217V61.5289C44.5202 61.5289 30.7122 75.2157 30.7122 92.1701H47.6781C47.6781 84.5869 53.8701 78.4217 61.4862 78.4217Z" fill="#D62340"/>
<path d="M-0.0156956 61.4364H30.7583V30.7952H-0.0156956V61.4364Z" fill="#D62340"/>
<path d="M7.66236 53.7914H23.0803V38.44H7.66236V53.7914Z" fill="white"/>
<path d="M44.582 61.4674H61.486C61.486 44.513 47.7399 30.8262 30.7739 30.8262L30.7739 47.6572C38.39 47.6572 44.582 53.8225 44.582 61.4674Z" fill="#2E2E2E"/>
<path d="M61.1765 29.0999C61.1765 28.2368 61.8576 27.6202 62.6626 27.6202C63.4675 27.6202 64.1486 28.2984 64.1486 29.0999C64.1486 29.963 63.4675 30.5795 62.6626 30.5795C61.8576 30.5795 61.1765 29.963 61.1765 29.0999Z" fill="#D62340"/>
<path d="M67.678 29.0999C67.678 28.2368 68.3591 27.6202 69.164 27.6202C70.0309 27.6202 70.6501 28.2984 70.6501 29.0999C70.6501 29.963 69.969 30.5795 69.164 30.5795C68.3591 30.6412 67.678 29.963 67.678 29.0999Z" fill="#D62340"/>
<path d="M74.1797 29.0999C74.1797 28.2368 74.8608 27.6202 75.6658 27.6202C76.5326 27.6202 77.1518 28.2984 77.1518 29.0999C77.1518 29.963 76.4707 30.5795 75.6658 30.5795C74.8608 30.6412 74.1797 29.963 74.1797 29.0999Z" fill="#D62340"/>
<path d="M80.6812 29.0999C80.6812 28.2368 81.3623 27.6202 82.1672 27.6202C83.0341 27.6202 83.6533 28.2984 83.6533 29.0999C83.6533 29.963 82.9722 30.5795 82.1672 30.5795C81.3623 30.6412 80.6812 29.963 80.6812 29.0999Z" fill="#D62340"/>
<path d="M87.1208 29.0999C87.1208 28.2368 87.802 27.6202 88.6069 27.6202C89.4738 27.6202 90.093 28.2984 90.093 29.0999C90.093 29.963 89.4119 30.5795 88.6069 30.5795C87.802 30.6412 87.1208 29.963 87.1208 29.0999Z" fill="#D62340"/>
<path d="M61.1765 23.6128C61.1765 22.7497 61.8576 22.1332 62.6626 22.1332C63.4675 22.1332 64.1486 22.8114 64.1486 23.6128C64.1486 24.476 63.4675 25.0925 62.6626 25.0925C61.8576 25.0925 61.1765 24.4143 61.1765 23.6128Z" fill="#D62340"/>
<path d="M67.678 23.6128C67.678 22.7497 68.3591 22.1332 69.164 22.1332C70.0309 22.1332 70.6501 22.8114 70.6501 23.6128C70.6501 24.476 69.969 25.0925 69.164 25.0925C68.3591 25.0925 67.678 24.4143 67.678 23.6128Z" fill="#D62340"/>
<path d="M74.1797 23.6128C74.1797 22.7497 74.8608 22.1332 75.6658 22.1332C76.5326 22.1332 77.1518 22.8114 77.1518 23.6128C77.1518 24.476 76.4707 25.0925 75.6658 25.0925C74.8608 25.0925 74.1797 24.4143 74.1797 23.6128Z" fill="#D62340"/>
<path d="M80.6812 23.6128C80.6812 22.7497 81.3623 22.1332 82.1672 22.1332C83.0341 22.1332 83.6533 22.8114 83.6533 23.6128C83.6533 24.476 82.9722 25.0925 82.1672 25.0925C81.3623 25.0925 80.6812 24.4143 80.6812 23.6128Z" fill="#D62340"/>
<path d="M87.1208 23.6128C87.1208 22.7497 87.802 22.1332 88.6069 22.1332C89.4738 22.1332 90.093 22.8114 90.093 23.6128C90.093 24.476 89.4119 25.0925 88.6069 25.0925C87.802 25.0925 87.1208 24.4143 87.1208 23.6128Z" fill="#D62340"/>
<path d="M61.1765 18.0641C61.1765 17.201 61.8576 16.5845 62.6626 16.5845C63.4675 16.5845 64.1486 17.2626 64.1486 18.0641C64.1486 18.9273 63.4675 19.5438 62.6626 19.5438C61.8576 19.5438 61.1765 18.9273 61.1765 18.0641Z" fill="#D62340"/>
<path d="M67.678 18.0641C67.678 17.201 68.3591 16.5845 69.164 16.5845C70.0309 16.5845 70.6501 17.2626 70.6501 18.0641C70.6501 18.9273 69.969 19.5438 69.164 19.5438C68.3591 19.6054 67.678 18.9273 67.678 18.0641Z" fill="#D62340"/>
<path d="M74.1797 18.0641C74.1797 17.201 74.8608 16.5845 75.6658 16.5845C76.5326 16.5845 77.1518 17.2626 77.1518 18.0641C77.1518 18.9273 76.4707 19.5438 75.6658 19.5438C74.8608 19.6054 74.1797 18.9273 74.1797 18.0641Z" fill="#D62340"/>
<path d="M80.6812 18.0641C80.6812 17.201 81.3623 16.5845 82.1672 16.5845C83.0341 16.5845 83.6533 17.2626 83.6533 18.0641C83.6533 18.9273 82.9722 19.5438 82.1672 19.5438C81.3623 19.6054 80.6812 18.9273 80.6812 18.0641Z" fill="#D62340"/>
<path d="M87.1208 18.0641C87.1208 17.201 87.802 16.5845 88.6069 16.5845C89.4738 16.5845 90.093 17.2626 90.093 18.0641C90.093 18.9273 89.4119 19.5438 88.6069 19.5438C87.802 19.6054 87.1208 18.9273 87.1208 18.0641Z" fill="#D62340"/>
<path d="M61.1765 12.5771C61.1765 11.7139 61.8576 11.0974 62.6626 11.0974C63.4675 11.0974 64.1486 11.7756 64.1486 12.5771C64.1486 13.4402 63.4675 14.0567 62.6626 14.0567C61.8576 14.0567 61.1765 13.3785 61.1765 12.5771Z" fill="#D62340"/>
<path d="M67.678 12.5771C67.678 11.7139 68.3591 11.0974 69.164 11.0974C70.0309 11.0974 70.6501 11.7756 70.6501 12.5771C70.6501 13.4402 69.969 14.0567 69.164 14.0567C68.3591 14.0567 67.678 13.3785 67.678 12.5771Z" fill="#D62340"/>
<path d="M74.1797 12.5771C74.1797 11.7139 74.8608 11.0974 75.6658 11.0974C76.5326 11.0974 77.1518 11.7756 77.1518 12.5771C77.1518 13.4402 76.4707 14.0567 75.6658 14.0567C74.8608 14.0567 74.1797 13.3785 74.1797 12.5771Z" fill="#D62340"/>
<path d="M80.6812 12.5771C80.6812 11.7139 81.3623 11.0974 82.1672 11.0974C83.0341 11.0974 83.6533 11.7756 83.6533 12.5771C83.6533 13.4402 82.9722 14.0567 82.1672 14.0567C81.3623 14.0567 80.6812 13.3785 80.6812 12.5771Z" fill="#D62340"/>
<path d="M87.1208 12.5771C87.1208 11.7139 87.802 11.0974 88.6069 11.0974C89.4738 11.0974 90.093 11.7756 90.093 12.5771C90.093 13.4402 89.4119 14.0567 88.6069 14.0567C87.802 14.0567 87.1208 13.3785 87.1208 12.5771Z" fill="#D62340"/>
<path d="M61.1765 7.02836C61.1765 6.16523 61.8576 5.54871 62.6626 5.54871C63.4675 5.54871 64.1486 6.22688 64.1486 7.02836C64.1486 7.89149 63.4675 8.50802 62.6626 8.50802C61.8576 8.50802 61.1765 7.89149 61.1765 7.02836Z" fill="#D62340"/>
<path d="M67.678 7.02836C67.678 6.16523 68.3591 5.54871 69.164 5.54871C70.0309 5.54871 70.6501 6.22688 70.6501 7.02836C70.6501 7.89149 69.969 8.50802 69.164 8.50802C68.3591 8.56967 67.678 7.89149 67.678 7.02836Z" fill="#D62340"/>
<path d="M74.1797 7.02836C74.1797 6.16523 74.8608 5.54871 75.6658 5.54871C76.5326 5.54871 77.1518 6.22688 77.1518 7.02836C77.1518 7.89149 76.4707 8.50802 75.6658 8.50802C74.8608 8.56967 74.1797 7.89149 74.1797 7.02836Z" fill="#D62340"/>
<path d="M80.6812 7.02836C80.6812 6.16523 81.3623 5.54871 82.1672 5.54871C83.0341 5.54871 83.6533 6.22688 83.6533 7.02836C83.6533 7.89149 82.9722 8.50802 82.1672 8.50802C81.3623 8.56967 80.6812 7.89149 80.6812 7.02836Z" fill="#D62340"/>
<path d="M87.1208 7.02836C87.1208 6.16523 87.802 5.54871 88.6069 5.54871C89.4738 5.54871 90.093 6.22688 90.093 7.02836C90.093 7.89149 89.4119 8.50802 88.6069 8.50802C87.802 8.56967 87.1208 7.89149 87.1208 7.02836Z" fill="#D62340"/>
<path d="M61.1765 1.47966C61.1765 0.616523 61.8576 0 62.6626 0C63.4675 0 64.1486 0.678175 64.1486 1.47966C64.1486 2.34279 63.4675 2.95931 62.6626 2.95931C61.8576 2.95931 61.1765 2.34279 61.1765 1.47966Z" fill="#D62340"/>
<path d="M67.678 1.47966C67.678 0.616523 68.3591 0 69.164 0C70.0309 0 70.6501 0.678175 70.6501 1.47966C70.6501 2.34279 69.969 2.95931 69.164 2.95931C68.3591 3.02096 67.678 2.34279 67.678 1.47966Z" fill="#D62340"/>
<path d="M74.1797 1.47966C74.1797 0.616523 74.8608 0 75.6658 0C76.5326 0 77.1518 0.678175 77.1518 1.47966C77.1518 2.34279 76.4707 2.95931 75.6658 2.95931C74.8608 3.02096 74.1797 2.34279 74.1797 1.47966Z" fill="#D62340"/>
<path d="M80.6812 1.47966C80.6812 0.616523 81.3623 0 82.1672 0C83.0341 0 83.6533 0.678175 83.6533 1.47966C83.6533 2.34279 82.9722 2.95931 82.1672 2.95931C81.3623 3.02096 80.6812 2.34279 80.6812 1.47966Z" fill="#D62340"/>
<path d="M87.1208 1.47966C87.1208 0.616523 87.802 0 88.6069 0C89.4738 0 90.093 0.678175 90.093 1.47966C90.093 2.34279 89.4119 2.95931 88.6069 2.95931C87.802 3.02096 87.1208 2.34279 87.1208 1.47966Z" fill="#D62340"/>
<path d="M30.774 75.339L30.774 61.5289L16.904 61.5289H0C0 78.4217 13.7461 92.1701 30.774 92.1701V75.339Z" fill="#2E2E2E"/>
<path d="M100.062 44.5746H91.0835V61.4057H100.062V44.5746Z" fill="#D62340"/>
<path d="M47.678 92.1702H30.7739V100H47.678V92.1702Z" fill="#D62340"/>
</g>
<path d="M72 95.2C72 81.2824 83.2824 70 97.2 70H340V74.7826C340 88.7098 328.71 100 314.783 100H72V95.2Z" fill="#D62340"/>
<path d="M177.14 77.96V92H173.72V83.58L170.58 92H167.82L164.66 83.56V92H161.24V77.96H165.28L169.22 87.68L173.12 77.96H177.14ZM183.019 80.7V83.54H187.599V86.18H183.019V89.26H188.199V92H179.599V77.96H188.199V80.7H183.019ZM193.84 80.7V83.54H198.42V86.18H193.84V89.26H199.02V92H190.42V77.96H199.02V80.7H193.84ZM211.34 77.96V80.7H207.62V92H204.2V80.7H200.48V77.96H211.34ZM223.935 92.14C222.615 92.14 221.401 91.8333 220.295 91.22C219.201 90.6067 218.328 89.7533 217.675 88.66C217.035 87.5533 216.715 86.3133 216.715 84.94C216.715 83.5667 217.035 82.3333 217.675 81.24C218.328 80.1467 219.201 79.2933 220.295 78.68C221.401 78.0667 222.615 77.76 223.935 77.76C225.255 77.76 226.461 78.0667 227.555 78.68C228.661 79.2933 229.528 80.1467 230.155 81.24C230.795 82.3333 231.115 83.5667 231.115 84.94C231.115 86.3133 230.795 87.5533 230.155 88.66C229.515 89.7533 228.648 90.6067 227.555 91.22C226.461 91.8333 225.255 92.14 223.935 92.14ZM223.935 89.02C225.055 89.02 225.948 88.6467 226.615 87.9C227.295 87.1533 227.635 86.1667 227.635 84.94C227.635 83.7 227.295 82.7133 226.615 81.98C225.948 81.2333 225.055 80.86 223.935 80.86C222.801 80.86 221.895 81.2267 221.215 81.96C220.548 82.6933 220.215 83.6867 220.215 84.94C220.215 86.18 220.548 87.1733 221.215 87.92C221.895 88.6533 222.801 89.02 223.935 89.02ZM236.377 77.96V86.36C236.377 87.2 236.584 87.8467 236.997 88.3C237.411 88.7533 238.017 88.98 238.817 88.98C239.617 88.98 240.231 88.7533 240.657 88.3C241.084 87.8467 241.297 87.2 241.297 86.36V77.96H244.717V86.34C244.717 87.5933 244.451 88.6533 243.917 89.52C243.384 90.3867 242.664 91.04 241.757 91.48C240.864 91.92 239.864 92.14 238.757 92.14C237.651 92.14 236.657 91.9267 235.777 91.5C234.911 91.06 234.224 90.4067 233.717 89.54C233.211 88.66 232.957 87.5933 232.957 86.34V77.96H236.377ZM254.279 92L251.359 86.7H250.539V92H247.119V77.96H252.859C253.966 77.96 254.906 78.1533 255.679 78.54C256.466 78.9267 257.052 79.46 257.439 80.14C257.826 80.8067 258.019 81.5533 258.019 82.38C258.019 83.3133 257.752 84.1467 257.219 84.88C256.699 85.6133 255.926 86.1333 254.899 86.44L258.139 92H254.279ZM250.539 84.28H252.659C253.286 84.28 253.752 84.1267 254.059 83.82C254.379 83.5133 254.539 83.08 254.539 82.52C254.539 81.9867 254.379 81.5667 254.059 81.26C253.752 80.9533 253.286 80.8 252.659 80.8H250.539V84.28Z" fill="white"/>
<defs>
<clipPath id="clip0_148_1092">
<rect width="100" height="100" fill="white"/>
</clipPath>
</defs>
</svg>
