<svg width="854" height="204" viewBox="0 0 854 204" fill="none" xmlns="http://www.w3.org/2000/svg">
<path d="M94.1362 150H70.826L31.8393 90.9747V150H8.52908V54.3054H31.8393L70.826 113.603V54.3054H94.1362V150ZM134.343 54.3054V150H111.033V54.3054H134.343ZM214.76 84.5678C213.033 81.3871 210.534 78.9788 207.262 77.343C204.082 75.6163 200.31 74.753 195.948 74.753C188.405 74.753 182.362 77.2521 177.818 82.2504C173.274 87.1578 171.002 93.7465 171.002 102.016C171.002 110.832 173.365 117.738 178.09 122.737C182.907 127.644 189.496 130.098 197.856 130.098C203.582 130.098 208.398 128.644 212.306 125.736C216.305 122.827 219.213 118.647 221.03 113.194H191.45V96.0185H242.159V117.693C240.433 123.509 237.479 128.916 233.299 133.915C229.209 138.913 223.984 142.957 217.622 146.047C211.261 149.137 204.082 150.682 196.084 150.682C186.633 150.682 178.181 148.637 170.729 144.547C163.368 140.367 157.597 134.596 153.417 127.235C149.328 119.874 147.283 111.468 147.283 102.016C147.283 92.5651 149.328 84.1589 153.417 76.7978C157.597 69.3458 163.368 63.575 170.729 59.4855C178.09 55.3051 186.497 53.2149 195.948 53.2149C207.399 53.2149 217.032 55.9867 224.847 61.5302C232.754 67.0738 237.979 74.753 240.524 84.5678H214.76ZM337.952 54.3054V150H314.642V110.604H278.381V150H255.071V54.3054H278.381V91.7926H314.642V54.3054H337.952ZM423.62 54.3054V72.9809H398.265V150H374.955V72.9809H349.6V54.3054H423.62ZM487.516 132.006H518.051V150H464.206V54.3054H487.516V132.006ZM679.356 84.5678C677.629 81.3871 675.13 78.9788 671.858 77.343C668.678 75.6163 664.906 74.753 660.544 74.753C653.001 74.753 646.958 77.2521 642.414 82.2504C637.87 87.1578 635.598 93.7465 635.598 102.016C635.598 110.832 637.961 117.738 642.687 122.737C647.503 127.644 654.092 130.098 662.453 130.098C668.178 130.098 672.994 128.644 676.902 125.736C680.901 122.827 683.809 118.647 685.626 113.194H656.046V96.0185H706.756V117.693C705.029 123.509 702.075 128.916 697.895 133.915C693.805 138.913 688.58 142.957 682.219 146.047C675.857 149.137 668.678 150.682 660.68 150.682C651.229 150.682 642.777 148.637 635.325 144.547C627.964 140.367 622.194 134.596 618.013 127.235C613.924 119.874 611.879 111.468 611.879 102.016C611.879 92.5651 613.924 84.1589 618.013 76.7978C622.194 69.3458 627.964 63.575 635.325 59.4855C642.687 55.3051 651.093 53.2149 660.544 53.2149C671.995 53.2149 681.628 55.9867 689.443 61.5302C697.35 67.0738 702.575 74.753 705.12 84.5678H679.356ZM742.978 54.3054V150H719.667V54.3054H742.978ZM845.477 150H822.167L783.18 90.9747V150H759.87V54.3054H783.18L822.167 113.603V54.3054H845.477V150Z" fill="#D62340"/>
<path d="M597.928 61.0876C610.333 69.9486 618.406 84.4411 618.406 100.844C618.406 127.781 596.589 149.618 569.671 149.677C542.793 149.736 520.779 127.82 520.739 100.922C520.719 84.5199 528.793 69.988 541.178 61.1073C543.482 59.473 546.692 60.1622 548.07 62.6235L551.181 68.1567C552.343 70.2242 551.792 72.8431 549.882 74.2609C541.71 80.3257 536.492 89.9349 536.492 100.824C536.472 118.999 551.162 133.925 569.573 133.925C587.61 133.925 602.772 119.314 602.654 100.627C602.595 90.4272 597.79 80.5817 589.244 74.2412C587.334 72.8235 586.802 70.2046 587.964 68.1567L591.075 62.6235C592.454 60.1818 595.644 59.4533 597.928 61.0876ZM577.449 102.419V55.1606C577.449 52.5417 575.342 50.4348 572.723 50.4348H566.422C563.803 50.4348 561.696 52.5417 561.696 55.1606V102.419C561.696 105.038 563.803 107.145 566.422 107.145H572.723C575.342 107.145 577.449 105.038 577.449 102.419Z" fill="#2E2E2E" stroke="#2E2E2E" stroke-width="1.26087"/>
</svg>
