<svg width="312" height="312" viewBox="0 0 312 312" fill="none" xmlns="http://www.w3.org/2000/svg">
<rect width="312" height="312" rx="58" fill="url(#paint0_linear_115_1352)"/>
<path d="M246.728 200.568C245.903 199.253 245.046 197.969 244.221 196.654C235.26 182.494 226.299 168.333 217.368 154.173C217.001 153.592 216.695 152.889 216.634 152.216C215.503 139.279 210.854 127.78 202.413 117.932C190.975 104.598 176.356 97.5023 158.832 96.6765C142.592 95.9119 128.309 101.233 116.198 111.907C106.442 120.47 100.264 131.358 97.3895 144.05C97.3589 144.234 97.2672 144.417 97.206 144.692C94.9122 139.646 99.9891 116.311 105.739 105.118C112.131 92.7007 121 82.3635 132.56 74.5341C151.4 61.842 172.105 57.3462 194.461 61.5056C216.726 65.6343 234.311 77.3784 247.493 95.9119C254.191 91.6914 260.797 87.5321 267.403 83.3421C267.525 83.4033 267.647 83.4645 267.77 83.5562C260.889 122.55 254.007 161.513 247.157 200.507C247.004 200.538 246.851 200.538 246.728 200.568Z" fill="white"/>
<path d="M215.564 169.373C217.124 192.953 205.318 226.014 173.45 243.569C154.856 253.814 135.099 256.506 114.455 251.673C93.8723 246.841 77.6019 235.403 65.338 218.093C58.6708 222.283 52.0648 226.442 45 230.907C51.9424 191.455 58.8237 152.491 65.705 113.497C65.8273 113.467 65.9802 113.436 66.1026 113.436C66.9589 114.721 67.8152 116.036 68.641 117.32C77.5713 131.419 86.5017 145.549 95.3709 159.678C95.7991 160.382 96.1355 161.238 96.1966 162.064C97.3588 174.603 101.885 185.766 109.898 195.461C119.807 207.45 132.56 214.606 147.883 216.778C165.743 219.316 181.738 214.545 195.562 202.985C205.93 194.299 212.383 183.105 215.411 169.954C215.472 169.74 215.533 169.557 215.564 169.373Z" fill="white"/>
<path d="M204.493 157.14C204.431 183.747 182.931 205.125 156.232 205.064C129.624 205.003 108.247 183.472 108.308 156.803C108.369 130.073 129.869 108.849 156.874 108.879C183.176 108.971 204.554 130.593 204.493 157.14ZM134.059 155.764C134.181 155.702 134.334 155.611 134.457 155.549C141.705 162.308 148.953 169.037 156.415 175.949C156.477 175.245 156.507 174.909 156.507 174.572C156.507 162.859 156.507 151.115 156.507 139.401C156.507 139.157 156.568 138.82 156.477 138.637C156.263 138.3 155.957 137.842 155.681 137.811C153.51 137.75 151.339 137.781 148.892 137.781C148.892 144.662 148.892 151.39 148.892 158.118C148.77 158.149 148.617 158.21 148.494 158.241C141.277 151.543 134.028 144.845 126.688 138.025C126.688 150.931 126.688 163.501 126.688 176.071C129.196 176.071 131.551 176.071 134.12 176.071C134.059 169.251 134.059 162.492 134.059 155.764ZM161.125 137.811C161.125 150.717 161.125 163.379 161.125 176.193C163.633 176.193 166.019 176.193 168.404 176.193C173.909 176.193 179.414 176.224 184.919 176.163C185.378 176.163 186.234 175.735 186.265 175.459C186.387 173.257 186.326 171.025 186.326 168.792C185.806 168.762 185.5 168.7 185.194 168.7C180.24 168.7 175.316 168.639 170.362 168.7C169.016 168.731 168.465 168.425 168.527 166.957C168.649 163.96 168.557 160.932 168.557 157.935C168.557 151.727 168.588 145.518 168.527 139.279C168.527 138.79 168.068 137.872 167.762 137.842C165.591 137.75 163.389 137.811 161.125 137.811Z" fill="white"/>
<defs>
<linearGradient id="paint0_linear_115_1352" x1="156" y1="0" x2="156" y2="312" gradientUnits="userSpaceOnUse">
<stop stop-color="#D52440"/>
<stop offset="1" stop-color="#B32533"/>
</linearGradient>
</defs>
</svg>
