<svg width="100" height="145" viewBox="0 0 100 145" fill="none" xmlns="http://www.w3.org/2000/svg">
<path d="M78.1887 22.6528C90.594 31.5138 98.6673 46.0063 98.6673 62.4089C98.6673 89.3462 76.8497 111.183 49.9321 111.243C23.0539 111.302 1.03942 89.3856 1.00004 62.4877C0.980345 46.0851 9.05365 31.5531 21.4393 22.6725C23.7431 21.0382 26.9527 21.7273 28.3311 24.1887L31.4423 29.7219C32.6041 31.7894 32.0527 34.4083 30.1427 35.8261C21.9709 41.8909 16.7528 51.5001 16.7528 62.3892C16.7331 80.564 31.4226 95.4898 49.8337 95.4898C67.8706 95.4898 83.0326 80.879 82.9145 62.1923C82.8554 51.9924 78.0508 42.1469 69.5049 35.8064C67.5949 34.3886 67.0633 31.7697 68.225 29.7219L71.3362 24.1887C72.7146 21.747 75.9045 21.0185 78.1887 22.6528ZM57.71 63.9842V16.7258C57.71 14.1069 55.6031 12 52.9842 12H46.6831C44.0642 12 41.9573 14.1069 41.9573 16.7258V63.9842C41.9573 66.6031 44.0642 68.71 46.6831 68.71H52.9842C55.6031 68.71 57.71 66.6031 57.71 63.9842Z" fill="#2E2E2E" stroke="#2E2E2E" stroke-width="1.26087"/>
</svg>
