<svg width="468" height="164" viewBox="0 0 468 164" fill="none" xmlns="http://www.w3.org/2000/svg">
<path d="M36.288 109.072V117.84H24.384V154H13.44V117.84H1.536V109.072H36.288ZM52.7245 117.84V126.928H67.3805V135.376H52.7245V145.232H69.3005V154H41.7805V109.072H69.3005V117.84H52.7245ZM92.6615 154.448C89.3762 154.448 86.4322 153.915 83.8295 152.848C81.2268 151.781 79.1362 150.203 77.5575 148.112C76.0215 146.021 75.2108 143.504 75.1255 140.56H86.7735C86.9442 142.224 87.5202 143.504 88.5015 144.4C89.4828 145.253 90.7628 145.68 92.3415 145.68C93.9628 145.68 95.2428 145.317 96.1815 144.592C97.1202 143.824 97.5895 142.779 97.5895 141.456C97.5895 140.347 97.2055 139.429 96.4375 138.704C95.7122 137.979 94.7948 137.381 93.6855 136.912C92.6188 136.443 91.0828 135.909 89.0775 135.312C86.1762 134.416 83.8082 133.52 81.9735 132.624C80.1388 131.728 78.5602 130.405 77.2375 128.656C75.9148 126.907 75.2535 124.624 75.2535 121.808C75.2535 117.627 76.7682 114.363 79.7975 112.016C82.8268 109.627 86.7735 108.432 91.6375 108.432C96.5868 108.432 100.576 109.627 103.606 112.016C106.635 114.363 108.256 117.648 108.47 121.872H96.6295C96.5442 120.421 96.0108 119.291 95.0295 118.48C94.0482 117.627 92.7895 117.2 91.2535 117.2C89.9308 117.2 88.8642 117.563 88.0535 118.288C87.2428 118.971 86.8375 119.973 86.8375 121.296C86.8375 122.747 87.5202 123.877 88.8855 124.688C90.2508 125.499 92.3842 126.373 95.2855 127.312C98.1868 128.293 100.534 129.232 102.326 130.128C104.16 131.024 105.739 132.325 107.062 134.032C108.384 135.739 109.046 137.936 109.046 140.624C109.046 143.184 108.384 145.509 107.062 147.6C105.782 149.691 103.904 151.355 101.43 152.592C98.9548 153.829 96.0322 154.448 92.6615 154.448ZM148.101 109.072V117.84H136.197V154H125.253V117.84H113.349V109.072H148.101ZM164.537 109.072V154H153.593V109.072H164.537ZM223.348 109.072V154H212.404V127.056L202.356 154H193.524L183.412 126.992V154H172.468V109.072H185.396L198.004 140.176L210.484 109.072H223.348ZM252.466 154.448C248.242 154.448 244.359 153.467 240.818 151.504C237.319 149.541 234.525 146.811 232.434 143.312C230.386 139.771 229.362 135.803 229.362 131.408C229.362 127.013 230.386 123.067 232.434 119.568C234.525 116.069 237.319 113.339 240.818 111.376C244.359 109.413 248.242 108.432 252.466 108.432C256.69 108.432 260.551 109.413 264.05 111.376C267.591 113.339 270.365 116.069 272.37 119.568C274.418 123.067 275.442 127.013 275.442 131.408C275.442 135.803 274.418 139.771 272.37 143.312C270.322 146.811 267.549 149.541 264.05 151.504C260.551 153.467 256.69 154.448 252.466 154.448ZM252.466 144.464C256.05 144.464 258.909 143.269 261.042 140.88C263.218 138.491 264.306 135.333 264.306 131.408C264.306 127.44 263.218 124.283 261.042 121.936C258.909 119.547 256.05 118.352 252.466 118.352C248.839 118.352 245.938 119.525 243.762 121.872C241.629 124.219 240.562 127.397 240.562 131.408C240.562 135.376 241.629 138.555 243.762 140.944C245.938 143.291 248.839 144.464 252.466 144.464ZM321.723 154H310.779L292.475 126.288V154H281.531V109.072H292.475L310.779 136.912V109.072H321.723V154ZM340.6 109.072V154H329.656V109.072H340.6ZM376.499 146.064H359.731L357.043 154H345.587L361.843 109.072H374.515L390.771 154H379.187L376.499 146.064ZM373.683 137.616L368.115 121.168L362.611 137.616H373.683ZM406.662 145.552H420.998V154H395.718V109.072H406.662V145.552ZM442.474 154.448C439.189 154.448 436.245 153.915 433.642 152.848C431.039 151.781 428.949 150.203 427.37 148.112C425.834 146.021 425.023 143.504 424.938 140.56H436.586C436.757 142.224 437.333 143.504 438.314 144.4C439.295 145.253 440.575 145.68 442.154 145.68C443.775 145.68 445.055 145.317 445.994 144.592C446.933 143.824 447.402 142.779 447.402 141.456C447.402 140.347 447.018 139.429 446.25 138.704C445.525 137.979 444.607 137.381 443.498 136.912C442.431 136.443 440.895 135.909 438.89 135.312C435.989 134.416 433.621 133.52 431.786 132.624C429.951 131.728 428.373 130.405 427.05 128.656C425.727 126.907 425.066 124.624 425.066 121.808C425.066 117.627 426.581 114.363 429.61 112.016C432.639 109.627 436.586 108.432 441.45 108.432C446.399 108.432 450.389 109.627 453.418 112.016C456.447 114.363 458.069 117.648 458.282 121.872H446.442C446.357 120.421 445.823 119.291 444.842 118.48C443.861 117.627 442.602 117.2 441.066 117.2C439.743 117.2 438.677 117.563 437.866 118.288C437.055 118.971 436.65 119.973 436.65 121.296C436.65 122.747 437.333 123.877 438.698 124.688C440.063 125.499 442.197 126.373 445.098 127.312C447.999 128.293 450.346 129.232 452.138 130.128C453.973 131.024 455.551 132.325 456.874 134.032C458.197 135.739 458.858 137.936 458.858 140.624C458.858 143.184 458.197 145.509 456.874 147.6C455.594 149.691 453.717 151.355 451.242 152.592C448.767 153.829 445.845 154.448 442.474 154.448Z" fill="#2E2E2E"/>
<g clip-path="url(#clip0_167_606)">
<path d="M437.374 30.727L437.374 61.501L468.016 61.501L468.016 30.727L437.374 30.727Z" fill="#D62340"/>
<path d="M437.174 77.2136L437.174 60.3096C420.281 60.3096 406.533 74.0557 406.533 91.0836L423.425 91.0836C423.425 83.4056 429.591 77.2136 437.174 77.2136Z" fill="#D62340"/>
<path d="M368.015 60.3223L368.015 100.013L406.424 100.013L406.424 60.3223L368.015 60.3223Z" fill="#2E2E2E"/>
<path d="M389.578 61.4862L406.471 61.4862C406.471 44.5202 392.784 30.7122 375.83 30.7122L375.83 47.6781C383.413 47.6781 389.578 53.8701 389.578 61.4862Z" fill="#D62340"/>
<path d="M406.564 -0.0156956L406.564 30.7583L437.205 30.7583L437.205 -0.0156942L406.564 -0.0156956Z" fill="#D62340"/>
<path d="M414.209 7.66236L414.209 23.0803L429.56 23.0803L429.56 7.66236L414.209 7.66236Z" fill="white"/>
<path d="M406.533 44.582L406.533 61.486C423.487 61.486 437.174 47.7399 437.174 30.7739L420.343 30.7739C420.343 38.39 414.178 44.582 406.533 44.582Z" fill="#2E2E2E"/>
<path d="M438.9 61.1765C439.763 61.1765 440.38 61.8576 440.38 62.6626C440.38 63.4675 439.702 64.1486 438.9 64.1486C438.037 64.1486 437.42 63.4675 437.42 62.6626C437.42 61.8576 438.037 61.1765 438.9 61.1765Z" fill="#D62340"/>
<path d="M438.9 67.678C439.763 67.678 440.38 68.3591 440.38 69.164C440.38 70.0309 439.702 70.6501 438.9 70.6501C438.037 70.6501 437.42 69.969 437.42 69.164C437.359 68.3591 438.037 67.678 438.9 67.678Z" fill="#D62340"/>
<path d="M438.9 74.1797C439.763 74.1797 440.38 74.8608 440.38 75.6658C440.38 76.5326 439.702 77.1518 438.9 77.1518C438.037 77.1518 437.42 76.4707 437.42 75.6658C437.359 74.8608 438.037 74.1797 438.9 74.1797Z" fill="#D62340"/>
<path d="M438.9 80.6812C439.763 80.6812 440.38 81.3623 440.38 82.1672C440.38 83.0341 439.702 83.6533 438.9 83.6533C438.037 83.6533 437.42 82.9722 437.42 82.1672C437.359 81.3623 438.037 80.6812 438.9 80.6812Z" fill="#D62340"/>
<path d="M438.9 87.1208C439.763 87.1208 440.38 87.802 440.38 88.6069C440.38 89.4738 439.702 90.093 438.9 90.093C438.037 90.093 437.42 89.4119 437.42 88.6069C437.359 87.802 438.037 87.1208 438.9 87.1208Z" fill="#D62340"/>
<path d="M444.387 61.1765C445.25 61.1765 445.867 61.8576 445.867 62.6626C445.867 63.4675 445.189 64.1486 444.387 64.1486C443.524 64.1486 442.908 63.4675 442.908 62.6626C442.908 61.8576 443.586 61.1765 444.387 61.1765Z" fill="#D62340"/>
<path d="M444.387 67.678C445.25 67.678 445.867 68.3591 445.867 69.164C445.867 70.0309 445.189 70.6501 444.387 70.6501C443.524 70.6501 442.908 69.969 442.908 69.164C442.908 68.3591 443.586 67.678 444.387 67.678Z" fill="#D62340"/>
<path d="M444.387 74.1797C445.25 74.1797 445.867 74.8608 445.867 75.6658C445.867 76.5326 445.189 77.1518 444.387 77.1518C443.524 77.1518 442.908 76.4707 442.908 75.6658C442.908 74.8608 443.586 74.1797 444.387 74.1797Z" fill="#D62340"/>
<path d="M444.387 80.6812C445.25 80.6812 445.867 81.3623 445.867 82.1672C445.867 83.0341 445.189 83.6533 444.387 83.6533C443.524 83.6533 442.908 82.9722 442.908 82.1672C442.908 81.3623 443.586 80.6812 444.387 80.6812Z" fill="#D62340"/>
<path d="M444.387 87.1208C445.25 87.1208 445.867 87.802 445.867 88.6069C445.867 89.4738 445.189 90.093 444.387 90.093C443.524 90.093 442.908 89.4119 442.908 88.6069C442.908 87.802 443.586 87.1208 444.387 87.1208Z" fill="#D62340"/>
<path d="M449.936 61.1765C450.799 61.1765 451.416 61.8576 451.416 62.6626C451.416 63.4675 450.737 64.1486 449.936 64.1486C449.073 64.1486 448.456 63.4675 448.456 62.6626C448.456 61.8576 449.073 61.1765 449.936 61.1765Z" fill="#D62340"/>
<path d="M449.936 67.678C450.799 67.678 451.416 68.3591 451.416 69.164C451.416 70.0309 450.737 70.6501 449.936 70.6501C449.073 70.6501 448.456 69.969 448.456 69.164C448.395 68.3591 449.073 67.678 449.936 67.678Z" fill="#D62340"/>
<path d="M449.936 74.1797C450.799 74.1797 451.416 74.8608 451.416 75.6658C451.416 76.5326 450.737 77.1518 449.936 77.1518C449.073 77.1518 448.456 76.4707 448.456 75.6658C448.395 74.8608 449.073 74.1797 449.936 74.1797Z" fill="#D62340"/>
<path d="M449.936 80.6812C450.799 80.6812 451.416 81.3623 451.416 82.1672C451.416 83.0341 450.737 83.6533 449.936 83.6533C449.073 83.6533 448.456 82.9722 448.456 82.1672C448.395 81.3623 449.073 80.6812 449.936 80.6812Z" fill="#D62340"/>
<path d="M449.936 87.1208C450.799 87.1208 451.416 87.802 451.416 88.6069C451.416 89.4738 450.737 90.093 449.936 90.093C449.073 90.093 448.456 89.4119 448.456 88.6069C448.395 87.802 449.073 87.1208 449.936 87.1208Z" fill="#D62340"/>
<path d="M455.423 61.1765C456.286 61.1765 456.903 61.8576 456.903 62.6626C456.903 63.4675 456.224 64.1486 455.423 64.1486C454.56 64.1486 453.943 63.4675 453.943 62.6626C453.943 61.8576 454.621 61.1765 455.423 61.1765Z" fill="#D62340"/>
<path d="M455.423 67.678C456.286 67.678 456.903 68.3591 456.903 69.164C456.903 70.0309 456.224 70.6501 455.423 70.6501C454.56 70.6501 453.943 69.969 453.943 69.164C453.943 68.3591 454.621 67.678 455.423 67.678Z" fill="#D62340"/>
<path d="M455.423 74.1797C456.286 74.1797 456.903 74.8608 456.903 75.6658C456.903 76.5326 456.224 77.1518 455.423 77.1518C454.56 77.1518 453.943 76.4707 453.943 75.6658C453.943 74.8608 454.621 74.1797 455.423 74.1797Z" fill="#D62340"/>
<path d="M455.423 80.6812C456.286 80.6812 456.903 81.3623 456.903 82.1672C456.903 83.0341 456.224 83.6533 455.423 83.6533C454.56 83.6533 453.943 82.9722 453.943 82.1672C453.943 81.3623 454.621 80.6812 455.423 80.6812Z" fill="#D62340"/>
<path d="M455.423 87.1208C456.286 87.1208 456.903 87.802 456.903 88.6069C456.903 89.4738 456.224 90.093 455.423 90.093C454.56 90.093 453.943 89.4119 453.943 88.6069C453.943 87.802 454.621 87.1208 455.423 87.1208Z" fill="#D62340"/>
<path d="M460.972 61.1765C461.835 61.1765 462.451 61.8576 462.451 62.6626C462.451 63.4675 461.773 64.1486 460.972 64.1486C460.109 64.1486 459.492 63.4675 459.492 62.6626C459.492 61.8576 460.109 61.1765 460.972 61.1765Z" fill="#D62340"/>
<path d="M460.972 67.678C461.835 67.678 462.451 68.3591 462.451 69.164C462.451 70.0309 461.773 70.6501 460.972 70.6501C460.109 70.6501 459.492 69.969 459.492 69.164C459.43 68.3591 460.109 67.678 460.972 67.678Z" fill="#D62340"/>
<path d="M460.972 74.1797C461.835 74.1797 462.451 74.8608 462.451 75.6658C462.451 76.5326 461.773 77.1518 460.972 77.1518C460.109 77.1518 459.492 76.4707 459.492 75.6658C459.43 74.8608 460.109 74.1797 460.972 74.1797Z" fill="#D62340"/>
<path d="M460.972 80.6812C461.835 80.6812 462.451 81.3623 462.451 82.1672C462.451 83.0341 461.773 83.6533 460.972 83.6533C460.109 83.6533 459.492 82.9722 459.492 82.1672C459.43 81.3623 460.109 80.6812 460.972 80.6812Z" fill="#D62340"/>
<path d="M460.972 87.1208C461.835 87.1208 462.451 87.802 462.451 88.6069C462.451 89.4738 461.773 90.093 460.972 90.093C460.109 90.093 459.492 89.4119 459.492 88.6069C459.43 87.802 460.109 87.1208 460.972 87.1208Z" fill="#D62340"/>
<path d="M466.52 61.1765C467.383 61.1765 468 61.8576 468 62.6626C468 63.4675 467.322 64.1486 466.52 64.1486C465.657 64.1486 465.041 63.4675 465.041 62.6626C465.041 61.8576 465.657 61.1765 466.52 61.1765Z" fill="#D62340"/>
<path d="M466.52 67.678C467.383 67.678 468 68.3591 468 69.164C468 70.0309 467.322 70.6501 466.52 70.6501C465.657 70.6501 465.041 69.969 465.041 69.164C464.979 68.3591 465.657 67.678 466.52 67.678Z" fill="#D62340"/>
<path d="M466.52 74.1797C467.383 74.1797 468 74.8608 468 75.6658C468 76.5326 467.322 77.1518 466.52 77.1518C465.657 77.1518 465.041 76.4707 465.041 75.6658C464.979 74.8608 465.657 74.1797 466.52 74.1797Z" fill="#D62340"/>
<path d="M466.52 80.6812C467.383 80.6812 468 81.3623 468 82.1672C468 83.0341 467.322 83.6533 466.52 83.6533C465.657 83.6533 465.041 82.9722 465.041 82.1672C464.979 81.3623 465.657 80.6812 466.52 80.6812Z" fill="#D62340"/>
<path d="M466.52 87.1208C467.383 87.1208 468 87.802 468 88.6069C468 89.4738 467.322 90.093 466.52 90.093C465.657 90.093 465.041 89.4119 465.041 88.6069C464.979 87.802 465.657 87.1208 466.52 87.1208Z" fill="#D62340"/>
<path d="M392.661 30.774L406.471 30.774L406.471 16.904L406.471 0C389.578 -7.38405e-07 375.83 13.7461 375.83 30.774L392.661 30.774Z" fill="#2E2E2E"/>
<path d="M423.425 100.062L423.425 91.0835L406.594 91.0835L406.594 100.062L423.425 100.062Z" fill="#D62340"/>
<path d="M375.83 47.678L375.83 30.7739L368 30.7739L368 47.678L375.83 47.678Z" fill="#D62340"/>
</g>
<path d="M97 95.2C97 81.2824 108.282 70 122.2 70H398V74.7826C398 88.7098 386.71 100 372.783 100H97V95.2Z" fill="#D62340"/>
<path d="M192.88 92.14C191.56 92.14 190.347 91.8333 189.24 91.22C188.147 90.6067 187.273 89.7533 186.62 88.66C185.98 87.5533 185.66 86.3133 185.66 84.94C185.66 83.5667 185.98 82.3333 186.62 81.24C187.273 80.1467 188.147 79.2933 189.24 78.68C190.347 78.0667 191.56 77.76 192.88 77.76C194.2 77.76 195.407 78.0667 196.5 78.68C197.607 79.2933 198.473 80.1467 199.1 81.24C199.74 82.3333 200.06 83.5667 200.06 84.94C200.06 86.3133 199.74 87.5533 199.1 88.66C198.46 89.7533 197.593 90.6067 196.5 91.22C195.407 91.8333 194.2 92.14 192.88 92.14ZM192.88 89.02C194 89.02 194.893 88.6467 195.56 87.9C196.24 87.1533 196.58 86.1667 196.58 84.94C196.58 83.7 196.24 82.7133 195.56 81.98C194.893 81.2333 194 80.86 192.88 80.86C191.747 80.86 190.84 81.2267 190.16 81.96C189.493 82.6933 189.16 83.6867 189.16 84.94C189.16 86.18 189.493 87.1733 190.16 87.92C190.84 88.6533 191.747 89.02 192.88 89.02ZM205.323 77.96V86.36C205.323 87.2 205.529 87.8467 205.943 88.3C206.356 88.7533 206.963 88.98 207.763 88.98C208.563 88.98 209.176 88.7533 209.603 88.3C210.029 87.8467 210.243 87.2 210.243 86.36V77.96H213.663V86.34C213.663 87.5933 213.396 88.6533 212.863 89.52C212.329 90.3867 211.609 91.04 210.703 91.48C209.809 91.92 208.809 92.14 207.703 92.14C206.596 92.14 205.603 91.9267 204.723 91.5C203.856 91.06 203.169 90.4067 202.663 89.54C202.156 88.66 201.903 87.5933 201.903 86.34V77.96H205.323ZM223.224 92L220.304 86.7H219.484V92H216.064V77.96H221.804C222.911 77.96 223.851 78.1533 224.624 78.54C225.411 78.9267 225.998 79.46 226.384 80.14C226.771 80.8067 226.964 81.5533 226.964 82.38C226.964 83.3133 226.698 84.1467 226.164 84.88C225.644 85.6133 224.871 86.1333 223.844 86.44L227.084 92H223.224ZM219.484 84.28H221.604C222.231 84.28 222.698 84.1267 223.004 83.82C223.324 83.5133 223.484 83.08 223.484 82.52C223.484 81.9867 223.324 81.5667 223.004 81.26C222.698 80.9533 222.231 80.8 221.604 80.8H219.484V84.28ZM249.249 77.96V92H245.829V83.58L242.689 92H239.929L236.769 83.56V92H233.349V77.96H237.389L241.329 87.68L245.229 77.96H249.249ZM255.129 80.7V83.54H259.709V86.18H255.129V89.26H260.309V92H251.709V77.96H260.309V80.7H255.129ZM278.429 77.96V92H275.009V83.58L271.869 92H269.109L265.949 83.56V92H262.529V77.96H266.569L270.509 87.68L274.409 77.96H278.429ZM289.388 84.8C290.202 84.9733 290.855 85.38 291.348 86.02C291.842 86.6467 292.088 87.3667 292.088 88.18C292.088 89.3533 291.675 90.2867 290.848 90.98C290.035 91.66 288.895 92 287.428 92H280.888V77.96H287.208C288.635 77.96 289.748 78.2867 290.548 78.94C291.362 79.5933 291.768 80.48 291.768 81.6C291.768 82.4267 291.548 83.1133 291.108 83.66C290.682 84.2067 290.108 84.5867 289.388 84.8ZM284.308 83.64H286.548C287.108 83.64 287.535 83.52 287.828 83.28C288.135 83.0267 288.288 82.66 288.288 82.18C288.288 81.7 288.135 81.3333 287.828 81.08C287.535 80.8267 287.108 80.7 286.548 80.7H284.308V83.64ZM286.828 89.24C287.402 89.24 287.842 89.1133 288.148 88.86C288.468 88.5933 288.628 88.2133 288.628 87.72C288.628 87.2267 288.462 86.84 288.128 86.56C287.808 86.28 287.362 86.14 286.788 86.14H284.308V89.24H286.828ZM297.492 80.7V83.54H302.072V86.18H297.492V89.26H302.672V92H294.072V77.96H302.672V80.7H297.492ZM312.052 92L309.132 86.7H308.312V92H304.892V77.96H310.632C311.739 77.96 312.679 78.1533 313.452 78.54C314.239 78.9267 314.826 79.46 315.212 80.14C315.599 80.8067 315.792 81.5533 315.792 82.38C315.792 83.3133 315.526 84.1467 314.992 84.88C314.472 85.6133 313.699 86.1333 312.672 86.44L315.912 92H312.052ZM308.312 84.28H310.432C311.059 84.28 311.526 84.1267 311.832 83.82C312.152 83.5133 312.312 83.08 312.312 82.52C312.312 81.9867 312.152 81.5667 311.832 81.26C311.526 80.9533 311.059 80.8 310.432 80.8H308.312V84.28Z" fill="white"/>
<defs>
<clipPath id="clip0_167_606">
<rect width="100" height="100" fill="white" transform="translate(468) rotate(90)"/>
</clipPath>
</defs>
</svg>
