<svg width="475" height="100" viewBox="0 0 475 100" fill="none" xmlns="http://www.w3.org/2000/svg">
<path d="M25.216 59.448C20.992 59.448 17.1093 58.4667 13.568 56.504C10.0693 54.5413 7.27467 51.8107 5.184 48.312C3.136 44.7707 2.112 40.8027 2.112 36.408C2.112 32.0133 3.136 28.0667 5.184 24.568C7.27467 21.0693 10.0693 18.3387 13.568 16.376C17.1093 14.4133 20.992 13.432 25.216 13.432C29.44 13.432 33.3013 14.4133 36.8 16.376C40.3413 18.3387 43.1147 21.0693 45.12 24.568C47.168 28.0667 48.192 32.0133 48.192 36.408C48.192 40.8027 47.168 44.7707 45.12 48.312C43.072 51.8107 40.2987 54.5413 36.8 56.504C33.3013 58.4667 29.44 59.448 25.216 59.448ZM25.216 49.464C28.8 49.464 31.6587 48.2693 33.792 45.88C35.968 43.4907 37.056 40.3333 37.056 36.408C37.056 32.44 35.968 29.2827 33.792 26.936C31.6587 24.5467 28.8 23.352 25.216 23.352C21.5893 23.352 18.688 24.5253 16.512 26.872C14.3787 29.2187 13.312 32.3973 13.312 36.408C13.312 40.376 14.3787 43.5547 16.512 45.944C18.688 48.2907 21.5893 49.464 25.216 49.464ZM65.0325 14.072V40.952C65.0325 43.64 65.6938 45.7093 67.0165 47.16C68.3392 48.6107 70.2805 49.336 72.8405 49.336C75.4005 49.336 77.3632 48.6107 78.7285 47.16C80.0938 45.7093 80.7765 43.64 80.7765 40.952V14.072H91.7205V40.888C91.7205 44.8987 90.8672 48.2907 89.1605 51.064C87.4538 53.8373 85.1498 55.928 82.2485 57.336C79.3898 58.744 76.1898 59.448 72.6485 59.448C69.1072 59.448 65.9285 58.7653 63.1125 57.4C60.3392 55.992 58.1418 53.9013 56.5205 51.128C54.8992 48.312 54.0885 44.8987 54.0885 40.888V14.072H65.0325ZM122.318 59L112.974 42.04H110.35V59H99.4055V14.072H117.774C121.315 14.072 124.323 14.6907 126.798 15.928C129.315 17.1653 131.192 18.872 132.43 21.048C133.667 23.1813 134.286 25.5707 134.286 28.216C134.286 31.2027 133.432 33.8693 131.726 36.216C130.062 38.5627 127.587 40.2267 124.302 41.208L134.67 59H122.318ZM110.35 34.296H117.134C119.139 34.296 120.632 33.8053 121.614 32.824C122.638 31.8427 123.15 30.456 123.15 28.664C123.15 26.9573 122.638 25.6133 121.614 24.632C120.632 23.6507 119.139 23.16 117.134 23.16H110.35V34.296ZM187.038 14.072V22.84H175.134V59H164.19V22.84H152.286V14.072H187.038ZM203.475 22.84V31.928H218.131V40.376H203.475V50.232H220.051V59H192.531V14.072H220.051V22.84H203.475ZM255.124 51.064H238.356L235.668 59H224.212L240.468 14.072H253.14L269.396 59H257.812L255.124 51.064ZM252.308 42.616L246.74 26.168L241.236 42.616H252.308ZM325.223 14.072V59H314.279V32.056L304.231 59H295.399L285.287 31.992V59H274.343V14.072H287.271L299.879 45.176L312.359 14.072H325.223ZM349.349 59.448C346.064 59.448 343.12 58.9147 340.517 57.848C337.914 56.7813 335.824 55.2027 334.245 53.112C332.709 51.0213 331.898 48.504 331.813 45.56H343.461C343.632 47.224 344.208 48.504 345.189 49.4C346.17 50.2533 347.45 50.68 349.029 50.68C350.65 50.68 351.93 50.3173 352.869 49.592C353.808 48.824 354.277 47.7787 354.277 46.456C354.277 45.3467 353.893 44.4293 353.125 43.704C352.4 42.9787 351.482 42.3813 350.373 41.912C349.306 41.4427 347.77 40.9093 345.765 40.312C342.864 39.416 340.496 38.52 338.661 37.624C336.826 36.728 335.248 35.4053 333.925 33.656C332.602 31.9067 331.941 29.624 331.941 26.808C331.941 22.6267 333.456 19.3627 336.485 17.016C339.514 14.6267 343.461 13.432 348.325 13.432C353.274 13.432 357.264 14.6267 360.293 17.016C363.322 19.3627 364.944 22.648 365.157 26.872H353.317C353.232 25.4213 352.698 24.2907 351.717 23.48C350.736 22.6267 349.477 22.2 347.941 22.2C346.618 22.2 345.552 22.5627 344.741 23.288C343.93 23.9707 343.525 24.9733 343.525 26.296C343.525 27.7467 344.208 28.8773 345.573 29.688C346.938 30.4987 349.072 31.3733 351.973 32.312C354.874 33.2933 357.221 34.232 359.013 35.128C360.848 36.024 362.426 37.3253 363.749 39.032C365.072 40.7387 365.733 42.936 365.733 45.624C365.733 48.184 365.072 50.5093 363.749 52.6C362.469 54.6907 360.592 56.3547 358.117 57.592C355.642 58.8293 352.72 59.448 349.349 59.448Z" fill="#2E2E2E"/>
<g clip-path="url(#clip0_201_490)">
<path d="M444.375 30.727L444.375 61.501L475.016 61.501L475.016 30.727L444.375 30.727Z" fill="#D62340"/>
<path d="M444.174 77.2136L444.174 60.3096C427.281 60.3096 413.533 74.0557 413.533 91.0836L430.425 91.0836C430.425 83.4056 436.591 77.2136 444.174 77.2136Z" fill="#D62340"/>
<path d="M375.015 60.3223L375.015 100.013L413.425 100.013L413.425 60.3223L375.015 60.3223Z" fill="#2E2E2E"/>
<path d="M396.578 61.4862L413.471 61.4862C413.471 44.5202 399.784 30.7122 382.83 30.7122L382.83 47.6781C390.413 47.6781 396.578 53.8701 396.578 61.4862Z" fill="#D62340"/>
<path d="M413.563 -0.0156956L413.563 30.7583L444.205 30.7583L444.205 -0.0156942L413.563 -0.0156956Z" fill="#D62340"/>
<path d="M421.208 7.66236L421.208 23.0803L436.56 23.0803L436.56 7.66236L421.208 7.66236Z" fill="white"/>
<path d="M413.533 44.582L413.533 61.486C430.487 61.486 444.174 47.7399 444.174 30.7739L427.343 30.7739C427.343 38.39 421.178 44.582 413.533 44.582Z" fill="#2E2E2E"/>
<path d="M445.9 61.1765C446.763 61.1765 447.38 61.8576 447.38 62.6626C447.38 63.4675 446.702 64.1486 445.9 64.1486C445.037 64.1486 444.421 63.4675 444.421 62.6626C444.421 61.8576 445.037 61.1765 445.9 61.1765Z" fill="#D62340"/>
<path d="M445.9 67.678C446.763 67.678 447.38 68.3591 447.38 69.164C447.38 70.0309 446.702 70.6501 445.9 70.6501C445.037 70.6501 444.421 69.969 444.421 69.164C444.359 68.3591 445.037 67.678 445.9 67.678Z" fill="#D62340"/>
<path d="M445.9 74.1797C446.763 74.1797 447.38 74.8608 447.38 75.6658C447.38 76.5326 446.702 77.1518 445.9 77.1518C445.037 77.1518 444.421 76.4707 444.421 75.6658C444.359 74.8608 445.037 74.1797 445.9 74.1797Z" fill="#D62340"/>
<path d="M445.9 80.6812C446.763 80.6812 447.38 81.3623 447.38 82.1672C447.38 83.0341 446.702 83.6533 445.9 83.6533C445.037 83.6533 444.421 82.9722 444.421 82.1672C444.359 81.3623 445.037 80.6812 445.9 80.6812Z" fill="#D62340"/>
<path d="M445.9 87.1208C446.763 87.1208 447.38 87.802 447.38 88.6069C447.38 89.4738 446.702 90.093 445.9 90.093C445.037 90.093 444.421 89.4119 444.421 88.6069C444.359 87.802 445.037 87.1208 445.9 87.1208Z" fill="#D62340"/>
<path d="M451.387 61.1765C452.25 61.1765 452.867 61.8576 452.867 62.6626C452.867 63.4675 452.189 64.1486 451.387 64.1486C450.524 64.1486 449.907 63.4675 449.907 62.6626C449.907 61.8576 450.586 61.1765 451.387 61.1765Z" fill="#D62340"/>
<path d="M451.387 67.678C452.25 67.678 452.867 68.3591 452.867 69.164C452.867 70.0309 452.189 70.6501 451.387 70.6501C450.524 70.6501 449.907 69.969 449.907 69.164C449.907 68.3591 450.586 67.678 451.387 67.678Z" fill="#D62340"/>
<path d="M451.387 74.1797C452.25 74.1797 452.867 74.8608 452.867 75.6658C452.867 76.5326 452.189 77.1518 451.387 77.1518C450.524 77.1518 449.907 76.4707 449.907 75.6658C449.907 74.8608 450.586 74.1797 451.387 74.1797Z" fill="#D62340"/>
<path d="M451.387 80.6812C452.25 80.6812 452.867 81.3623 452.867 82.1672C452.867 83.0341 452.189 83.6533 451.387 83.6533C450.524 83.6533 449.907 82.9722 449.907 82.1672C449.907 81.3623 450.586 80.6812 451.387 80.6812Z" fill="#D62340"/>
<path d="M451.387 87.1208C452.25 87.1208 452.867 87.802 452.867 88.6069C452.867 89.4738 452.189 90.093 451.387 90.093C450.524 90.093 449.907 89.4119 449.907 88.6069C449.907 87.802 450.586 87.1208 451.387 87.1208Z" fill="#D62340"/>
<path d="M456.936 61.1765C457.799 61.1765 458.416 61.8576 458.416 62.6626C458.416 63.4675 457.737 64.1486 456.936 64.1486C456.073 64.1486 455.456 63.4675 455.456 62.6626C455.456 61.8576 456.073 61.1765 456.936 61.1765Z" fill="#D62340"/>
<path d="M456.936 67.678C457.799 67.678 458.416 68.3591 458.416 69.164C458.416 70.0309 457.737 70.6501 456.936 70.6501C456.073 70.6501 455.456 69.969 455.456 69.164C455.395 68.3591 456.073 67.678 456.936 67.678Z" fill="#D62340"/>
<path d="M456.936 74.1797C457.799 74.1797 458.416 74.8608 458.416 75.6658C458.416 76.5326 457.737 77.1518 456.936 77.1518C456.073 77.1518 455.456 76.4707 455.456 75.6658C455.395 74.8608 456.073 74.1797 456.936 74.1797Z" fill="#D62340"/>
<path d="M456.936 80.6812C457.799 80.6812 458.416 81.3623 458.416 82.1672C458.416 83.0341 457.737 83.6533 456.936 83.6533C456.073 83.6533 455.456 82.9722 455.456 82.1672C455.395 81.3623 456.073 80.6812 456.936 80.6812Z" fill="#D62340"/>
<path d="M456.936 87.1208C457.799 87.1208 458.416 87.802 458.416 88.6069C458.416 89.4738 457.737 90.093 456.936 90.093C456.073 90.093 455.456 89.4119 455.456 88.6069C455.395 87.802 456.073 87.1208 456.936 87.1208Z" fill="#D62340"/>
<path d="M462.423 61.1765C463.286 61.1765 463.902 61.8576 463.902 62.6626C463.902 63.4675 463.224 64.1486 462.423 64.1486C461.56 64.1486 460.943 63.4675 460.943 62.6626C460.943 61.8576 461.621 61.1765 462.423 61.1765Z" fill="#D62340"/>
<path d="M462.423 67.678C463.286 67.678 463.902 68.3591 463.902 69.164C463.902 70.0309 463.224 70.6501 462.423 70.6501C461.56 70.6501 460.943 69.969 460.943 69.164C460.943 68.3591 461.621 67.678 462.423 67.678Z" fill="#D62340"/>
<path d="M462.423 74.1797C463.286 74.1797 463.902 74.8608 463.902 75.6658C463.902 76.5326 463.224 77.1518 462.423 77.1518C461.56 77.1518 460.943 76.4707 460.943 75.6658C460.943 74.8608 461.621 74.1797 462.423 74.1797Z" fill="#D62340"/>
<path d="M462.423 80.6812C463.286 80.6812 463.902 81.3623 463.902 82.1672C463.902 83.0341 463.224 83.6533 462.423 83.6533C461.56 83.6533 460.943 82.9722 460.943 82.1672C460.943 81.3623 461.621 80.6812 462.423 80.6812Z" fill="#D62340"/>
<path d="M462.423 87.1208C463.286 87.1208 463.902 87.802 463.902 88.6069C463.902 89.4738 463.224 90.093 462.423 90.093C461.56 90.093 460.943 89.4119 460.943 88.6069C460.943 87.802 461.621 87.1208 462.423 87.1208Z" fill="#D62340"/>
<path d="M467.972 61.1765C468.835 61.1765 469.451 61.8576 469.451 62.6626C469.451 63.4675 468.773 64.1486 467.972 64.1486C467.108 64.1486 466.492 63.4675 466.492 62.6626C466.492 61.8576 467.108 61.1765 467.972 61.1765Z" fill="#D62340"/>
<path d="M467.972 67.678C468.835 67.678 469.451 68.3591 469.451 69.164C469.451 70.0309 468.773 70.6501 467.972 70.6501C467.108 70.6501 466.492 69.969 466.492 69.164C466.43 68.3591 467.108 67.678 467.972 67.678Z" fill="#D62340"/>
<path d="M467.972 74.1797C468.835 74.1797 469.451 74.8608 469.451 75.6658C469.451 76.5326 468.773 77.1518 467.972 77.1518C467.108 77.1518 466.492 76.4707 466.492 75.6658C466.43 74.8608 467.108 74.1797 467.972 74.1797Z" fill="#D62340"/>
<path d="M467.972 80.6812C468.835 80.6812 469.451 81.3623 469.451 82.1672C469.451 83.0341 468.773 83.6533 467.972 83.6533C467.108 83.6533 466.492 82.9722 466.492 82.1672C466.43 81.3623 467.108 80.6812 467.972 80.6812Z" fill="#D62340"/>
<path d="M467.972 87.1208C468.835 87.1208 469.451 87.802 469.451 88.6069C469.451 89.4738 468.773 90.093 467.972 90.093C467.108 90.093 466.492 89.4119 466.492 88.6069C466.43 87.802 467.108 87.1208 467.972 87.1208Z" fill="#D62340"/>
<path d="M473.52 61.1765C474.383 61.1765 475 61.8576 475 62.6626C475 63.4675 474.322 64.1486 473.52 64.1486C472.657 64.1486 472.041 63.4675 472.041 62.6626C472.041 61.8576 472.657 61.1765 473.52 61.1765Z" fill="#D62340"/>
<path d="M473.52 67.678C474.383 67.678 475 68.3591 475 69.164C475 70.0309 474.322 70.6501 473.52 70.6501C472.657 70.6501 472.041 69.969 472.041 69.164C471.979 68.3591 472.657 67.678 473.52 67.678Z" fill="#D62340"/>
<path d="M473.52 74.1797C474.383 74.1797 475 74.8608 475 75.6658C475 76.5326 474.322 77.1518 473.52 77.1518C472.657 77.1518 472.041 76.4707 472.041 75.6658C471.979 74.8608 472.657 74.1797 473.52 74.1797Z" fill="#D62340"/>
<path d="M473.52 80.6812C474.383 80.6812 475 81.3623 475 82.1672C475 83.0341 474.322 83.6533 473.52 83.6533C472.657 83.6533 472.041 82.9722 472.041 82.1672C471.979 81.3623 472.657 80.6812 473.52 80.6812Z" fill="#D62340"/>
<path d="M473.52 87.1208C474.383 87.1208 475 87.802 475 88.6069C475 89.4738 474.322 90.093 473.52 90.093C472.657 90.093 472.041 89.4119 472.041 88.6069C471.979 87.802 472.657 87.1208 473.52 87.1208Z" fill="#D62340"/>
<path d="M399.661 30.774L413.471 30.774L413.471 16.904L413.471 0C396.578 -7.38405e-07 382.83 13.7461 382.83 30.774L399.661 30.774Z" fill="#2E2E2E"/>
<path d="M430.425 100.062L430.425 91.0835L413.594 91.0835L413.594 100.062L430.425 100.062Z" fill="#D62340"/>
<path d="M382.83 47.678L382.83 30.7739L375 30.7739L375 47.678L382.83 47.678Z" fill="#D62340"/>
</g>
<path d="M133 95.2C133 81.2824 144.282 70 158.2 70H402V74.7826C402 88.7098 390.71 100 376.783 100H133V95.2Z" fill="#D62340"/>
<path d="M221.78 89.26C222.233 88.9 222.44 88.7333 222.4 88.76C223.707 87.68 224.733 86.7933 225.48 86.1C226.24 85.4067 226.88 84.68 227.4 83.92C227.92 83.16 228.18 82.42 228.18 81.7C228.18 81.1533 228.053 80.7267 227.8 80.42C227.547 80.1133 227.167 79.96 226.66 79.96C226.153 79.96 225.753 80.1533 225.46 80.54C225.18 80.9133 225.04 81.4467 225.04 82.14H221.74C221.767 81.0067 222.007 80.06 222.46 79.3C222.927 78.54 223.533 77.98 224.28 77.62C225.04 77.26 225.88 77.08 226.8 77.08C228.387 77.08 229.58 77.4867 230.38 78.3C231.193 79.1133 231.6 80.1733 231.6 81.48C231.6 82.9067 231.113 84.2333 230.14 85.46C229.167 86.6733 227.927 87.86 226.42 89.02H231.82V91.8H221.78V89.26ZM233.326 84.5C233.326 82.2067 233.766 80.4 234.646 79.08C235.539 77.76 236.972 77.1 238.946 77.1C240.919 77.1 242.346 77.76 243.226 79.08C244.119 80.4 244.566 82.2067 244.566 84.5C244.566 86.82 244.119 88.64 243.226 89.96C242.346 91.28 240.919 91.94 238.946 91.94C236.972 91.94 235.539 91.28 234.646 89.96C233.766 88.64 233.326 86.82 233.326 84.5ZM241.206 84.5C241.206 83.1533 241.059 82.12 240.766 81.4C240.472 80.6667 239.866 80.3 238.946 80.3C238.026 80.3 237.419 80.6667 237.126 81.4C236.832 82.12 236.686 83.1533 236.686 84.5C236.686 85.4067 236.739 86.16 236.846 86.76C236.952 87.3467 237.166 87.8267 237.486 88.2C237.819 88.56 238.306 88.74 238.946 88.74C239.586 88.74 240.066 88.56 240.386 88.2C240.719 87.8267 240.939 87.3467 241.046 86.76C241.152 86.16 241.206 85.4067 241.206 84.5ZM246.253 89.26C246.706 88.9 246.913 88.7333 246.873 88.76C248.179 87.68 249.206 86.7933 249.953 86.1C250.713 85.4067 251.353 84.68 251.873 83.92C252.393 83.16 252.653 82.42 252.653 81.7C252.653 81.1533 252.526 80.7267 252.273 80.42C252.019 80.1133 251.639 79.96 251.133 79.96C250.626 79.96 250.226 80.1533 249.933 80.54C249.653 80.9133 249.513 81.4467 249.513 82.14H246.213C246.239 81.0067 246.479 80.06 246.933 79.3C247.399 78.54 248.006 77.98 248.753 77.62C249.513 77.26 250.353 77.08 251.273 77.08C252.859 77.08 254.053 77.4867 254.853 78.3C255.666 79.1133 256.073 80.1733 256.073 81.48C256.073 82.9067 255.586 84.2333 254.613 85.46C253.639 86.6733 252.399 87.86 250.893 89.02H256.293V91.8H246.253V89.26ZM257.438 80.58V77.4H262.978V92H259.418V80.58H257.438ZM273.278 73L267.918 95.74H264.618L269.978 73H273.278ZM274.26 89.26C274.714 88.9 274.92 88.7333 274.88 88.76C276.187 87.68 277.214 86.7933 277.96 86.1C278.72 85.4067 279.36 84.68 279.88 83.92C280.4 83.16 280.66 82.42 280.66 81.7C280.66 81.1533 280.534 80.7267 280.28 80.42C280.027 80.1133 279.647 79.96 279.14 79.96C278.634 79.96 278.234 80.1533 277.94 80.54C277.66 80.9133 277.52 81.4467 277.52 82.14H274.22C274.247 81.0067 274.487 80.06 274.94 79.3C275.407 78.54 276.014 77.98 276.76 77.62C277.52 77.26 278.36 77.08 279.28 77.08C280.867 77.08 282.06 77.4867 282.86 78.3C283.674 79.1133 284.08 80.1733 284.08 81.48C284.08 82.9067 283.594 84.2333 282.62 85.46C281.647 86.6733 280.407 87.86 278.9 89.02H284.3V91.8H274.26V89.26ZM285.806 84.5C285.806 82.2067 286.246 80.4 287.126 79.08C288.02 77.76 289.453 77.1 291.426 77.1C293.4 77.1 294.826 77.76 295.706 79.08C296.6 80.4 297.046 82.2067 297.046 84.5C297.046 86.82 296.6 88.64 295.706 89.96C294.826 91.28 293.4 91.94 291.426 91.94C289.453 91.94 288.02 91.28 287.126 89.96C286.246 88.64 285.806 86.82 285.806 84.5ZM293.686 84.5C293.686 83.1533 293.54 82.12 293.246 81.4C292.953 80.6667 292.346 80.3 291.426 80.3C290.506 80.3 289.9 80.6667 289.606 81.4C289.313 82.12 289.166 83.1533 289.166 84.5C289.166 85.4067 289.22 86.16 289.326 86.76C289.433 87.3467 289.646 87.8267 289.966 88.2C290.3 88.56 290.786 88.74 291.426 88.74C292.066 88.74 292.546 88.56 292.866 88.2C293.2 87.8267 293.42 87.3467 293.526 86.76C293.633 86.16 293.686 85.4067 293.686 84.5ZM298.733 89.26C299.186 88.9 299.393 88.7333 299.353 88.76C300.66 87.68 301.686 86.7933 302.433 86.1C303.193 85.4067 303.833 84.68 304.353 83.92C304.873 83.16 305.133 82.42 305.133 81.7C305.133 81.1533 305.006 80.7267 304.753 80.42C304.5 80.1133 304.12 79.96 303.613 79.96C303.106 79.96 302.706 80.1533 302.413 80.54C302.133 80.9133 301.993 81.4467 301.993 82.14H298.693C298.72 81.0067 298.96 80.06 299.413 79.3C299.88 78.54 300.486 77.98 301.233 77.62C301.993 77.26 302.833 77.08 303.753 77.08C305.34 77.08 306.533 77.4867 307.333 78.3C308.146 79.1133 308.553 80.1733 308.553 81.48C308.553 82.9067 308.066 84.2333 307.093 85.46C306.12 86.6733 304.88 87.86 303.373 89.02H308.773V91.8H298.733V89.26ZM310.159 89.26C310.612 88.9 310.819 88.7333 310.779 88.76C312.086 87.68 313.112 86.7933 313.859 86.1C314.619 85.4067 315.259 84.68 315.779 83.92C316.299 83.16 316.559 82.42 316.559 81.7C316.559 81.1533 316.432 80.7267 316.179 80.42C315.926 80.1133 315.546 79.96 315.039 79.96C314.532 79.96 314.132 80.1533 313.839 80.54C313.559 80.9133 313.419 81.4467 313.419 82.14H310.119C310.146 81.0067 310.386 80.06 310.839 79.3C311.306 78.54 311.912 77.98 312.659 77.62C313.419 77.26 314.259 77.08 315.179 77.08C316.766 77.08 317.959 77.4867 318.759 78.3C319.572 79.1133 319.979 80.1733 319.979 81.48C319.979 82.9067 319.492 84.2333 318.519 85.46C317.546 86.6733 316.306 87.86 314.799 89.02H320.199V91.8H310.159V89.26Z" fill="white"/>
<defs>
<clipPath id="clip0_201_490">
<rect width="100" height="100" fill="white" transform="translate(475) rotate(90)"/>
</clipPath>
</defs>
</svg>
