<svg width="301" height="100" viewBox="0 0 301 100" fill="none" xmlns="http://www.w3.org/2000/svg">
<g clip-path="url(#clip0_387_768)">
<path d="M30.727 30.6257H61.501V-0.0155182H30.727V30.6257Z" fill="#F5824F"/>
<path d="M77.2136 30.8262L60.3096 30.8262C60.3096 47.7189 74.0557 61.4674 91.0836 61.4674V44.5746C83.4056 44.5746 77.2136 38.4094 77.2136 30.8262Z" fill="#F5824F"/>
<path d="M60.3223 99.985H100.013V61.5756H60.3223V99.985Z" fill="#2E2E2E"/>
<path d="M61.4859 78.4217V61.529C44.52 61.529 30.7119 75.2158 30.7119 92.1702H47.6779C47.6779 84.5869 53.8698 78.4217 61.4859 78.4217Z" fill="#F5824F"/>
<path d="M-0.0156956 61.4364H30.7583V30.7952H-0.0156956V61.4364Z" fill="#F5824F"/>
<path d="M7.66212 53.7914H23.0801V38.44H7.66212V53.7914Z" fill="white"/>
<path d="M44.582 61.4674H61.486C61.486 44.513 47.7399 30.8262 30.7739 30.8262L30.7739 47.6572C38.39 47.6572 44.582 53.8225 44.582 61.4674Z" fill="#2E2E2E"/>
<path d="M61.1763 29.0999C61.1763 28.2368 61.8574 27.6202 62.6623 27.6202C63.4673 27.6202 64.1484 28.2984 64.1484 29.0999C64.1484 29.963 63.4673 30.5795 62.6623 30.5795C61.8574 30.5795 61.1763 29.963 61.1763 29.0999Z" fill="#F5824F"/>
<path d="M67.6777 29.0999C67.6777 28.2368 68.3588 27.6202 69.1638 27.6202C70.0307 27.6202 70.6499 28.2984 70.6499 29.0999C70.6499 29.963 69.9688 30.5795 69.1638 30.5795C68.3588 30.6412 67.6777 29.963 67.6777 29.0999Z" fill="#F5824F"/>
<path d="M74.1792 29.0999C74.1792 28.2368 74.8603 27.6202 75.6653 27.6202C76.5321 27.6202 77.1513 28.2984 77.1513 29.0999C77.1513 29.963 76.4702 30.5795 75.6653 30.5795C74.8603 30.6412 74.1792 29.963 74.1792 29.0999Z" fill="#F5824F"/>
<path d="M80.6812 29.0999C80.6812 28.2368 81.3623 27.6202 82.1672 27.6202C83.0341 27.6202 83.6533 28.2984 83.6533 29.0999C83.6533 29.963 82.9722 30.5795 82.1672 30.5795C81.3623 30.6412 80.6812 29.963 80.6812 29.0999Z" fill="#F5824F"/>
<path d="M87.1206 29.0999C87.1206 28.2368 87.8017 27.6202 88.6067 27.6202C89.4736 27.6202 90.0927 28.2984 90.0927 29.0999C90.0927 29.963 89.4116 30.5795 88.6067 30.5795C87.8017 30.6412 87.1206 29.963 87.1206 29.0999Z" fill="#F5824F"/>
<path d="M61.1763 23.6128C61.1763 22.7497 61.8574 22.1332 62.6623 22.1332C63.4673 22.1332 64.1484 22.8114 64.1484 23.6128C64.1484 24.476 63.4673 25.0925 62.6623 25.0925C61.8574 25.0925 61.1763 24.4143 61.1763 23.6128Z" fill="#F5824F"/>
<path d="M67.6777 23.6128C67.6777 22.7497 68.3588 22.1332 69.1638 22.1332C70.0307 22.1332 70.6499 22.8114 70.6499 23.6128C70.6499 24.476 69.9688 25.0925 69.1638 25.0925C68.3588 25.0925 67.6777 24.4143 67.6777 23.6128Z" fill="#F5824F"/>
<path d="M74.1792 23.6128C74.1792 22.7497 74.8603 22.1332 75.6653 22.1332C76.5321 22.1332 77.1513 22.8114 77.1513 23.6128C77.1513 24.476 76.4702 25.0925 75.6653 25.0925C74.8603 25.0925 74.1792 24.4143 74.1792 23.6128Z" fill="#F5824F"/>
<path d="M80.6812 23.6128C80.6812 22.7497 81.3623 22.1332 82.1672 22.1332C83.0341 22.1332 83.6533 22.8114 83.6533 23.6128C83.6533 24.476 82.9722 25.0925 82.1672 25.0925C81.3623 25.0925 80.6812 24.4143 80.6812 23.6128Z" fill="#F5824F"/>
<path d="M87.1206 23.6128C87.1206 22.7497 87.8017 22.1332 88.6067 22.1332C89.4736 22.1332 90.0927 22.8114 90.0927 23.6128C90.0927 24.476 89.4116 25.0925 88.6067 25.0925C87.8017 25.0925 87.1206 24.4143 87.1206 23.6128Z" fill="#F5824F"/>
<path d="M61.1763 18.0641C61.1763 17.201 61.8574 16.5845 62.6623 16.5845C63.4673 16.5845 64.1484 17.2626 64.1484 18.0641C64.1484 18.9273 63.4673 19.5438 62.6623 19.5438C61.8574 19.5438 61.1763 18.9273 61.1763 18.0641Z" fill="#F5824F"/>
<path d="M67.6777 18.0641C67.6777 17.201 68.3588 16.5845 69.1638 16.5845C70.0307 16.5845 70.6499 17.2626 70.6499 18.0641C70.6499 18.9273 69.9688 19.5438 69.1638 19.5438C68.3588 19.6054 67.6777 18.9273 67.6777 18.0641Z" fill="#F5824F"/>
<path d="M74.1792 18.0641C74.1792 17.201 74.8603 16.5845 75.6653 16.5845C76.5321 16.5845 77.1513 17.2626 77.1513 18.0641C77.1513 18.9273 76.4702 19.5438 75.6653 19.5438C74.8603 19.6054 74.1792 18.9273 74.1792 18.0641Z" fill="#F5824F"/>
<path d="M80.6812 18.0641C80.6812 17.201 81.3623 16.5845 82.1672 16.5845C83.0341 16.5845 83.6533 17.2626 83.6533 18.0641C83.6533 18.9273 82.9722 19.5438 82.1672 19.5438C81.3623 19.6054 80.6812 18.9273 80.6812 18.0641Z" fill="#F5824F"/>
<path d="M87.1206 18.0641C87.1206 17.201 87.8017 16.5845 88.6067 16.5845C89.4736 16.5845 90.0927 17.2626 90.0927 18.0641C90.0927 18.9273 89.4116 19.5438 88.6067 19.5438C87.8017 19.6054 87.1206 18.9273 87.1206 18.0641Z" fill="#F5824F"/>
<path d="M61.1763 12.5771C61.1763 11.7139 61.8574 11.0974 62.6623 11.0974C63.4673 11.0974 64.1484 11.7756 64.1484 12.5771C64.1484 13.4402 63.4673 14.0567 62.6623 14.0567C61.8574 14.0567 61.1763 13.3785 61.1763 12.5771Z" fill="#F5824F"/>
<path d="M67.6777 12.5771C67.6777 11.7139 68.3588 11.0974 69.1638 11.0974C70.0307 11.0974 70.6499 11.7756 70.6499 12.5771C70.6499 13.4402 69.9688 14.0567 69.1638 14.0567C68.3588 14.0567 67.6777 13.3785 67.6777 12.5771Z" fill="#F5824F"/>
<path d="M74.1792 12.5771C74.1792 11.7139 74.8603 11.0974 75.6653 11.0974C76.5321 11.0974 77.1513 11.7756 77.1513 12.5771C77.1513 13.4402 76.4702 14.0567 75.6653 14.0567C74.8603 14.0567 74.1792 13.3785 74.1792 12.5771Z" fill="#F5824F"/>
<path d="M80.6812 12.5771C80.6812 11.7139 81.3623 11.0974 82.1672 11.0974C83.0341 11.0974 83.6533 11.7756 83.6533 12.5771C83.6533 13.4402 82.9722 14.0567 82.1672 14.0567C81.3623 14.0567 80.6812 13.3785 80.6812 12.5771Z" fill="#F5824F"/>
<path d="M87.1206 12.5771C87.1206 11.7139 87.8017 11.0974 88.6067 11.0974C89.4736 11.0974 90.0927 11.7756 90.0927 12.5771C90.0927 13.4402 89.4116 14.0567 88.6067 14.0567C87.8017 14.0567 87.1206 13.3785 87.1206 12.5771Z" fill="#F5824F"/>
<path d="M61.1763 7.02836C61.1763 6.16523 61.8574 5.54871 62.6623 5.54871C63.4673 5.54871 64.1484 6.22688 64.1484 7.02836C64.1484 7.89149 63.4673 8.50802 62.6623 8.50802C61.8574 8.50802 61.1763 7.89149 61.1763 7.02836Z" fill="#F5824F"/>
<path d="M67.6777 7.02836C67.6777 6.16523 68.3588 5.54871 69.1638 5.54871C70.0307 5.54871 70.6499 6.22688 70.6499 7.02836C70.6499 7.89149 69.9688 8.50802 69.1638 8.50802C68.3588 8.56967 67.6777 7.89149 67.6777 7.02836Z" fill="#F5824F"/>
<path d="M74.1792 7.02836C74.1792 6.16523 74.8603 5.54871 75.6653 5.54871C76.5321 5.54871 77.1513 6.22688 77.1513 7.02836C77.1513 7.89149 76.4702 8.50802 75.6653 8.50802C74.8603 8.56967 74.1792 7.89149 74.1792 7.02836Z" fill="#F5824F"/>
<path d="M80.6812 7.02836C80.6812 6.16523 81.3623 5.54871 82.1672 5.54871C83.0341 5.54871 83.6533 6.22688 83.6533 7.02836C83.6533 7.89149 82.9722 8.50802 82.1672 8.50802C81.3623 8.56967 80.6812 7.89149 80.6812 7.02836Z" fill="#F5824F"/>
<path d="M87.1206 7.02836C87.1206 6.16523 87.8017 5.54871 88.6067 5.54871C89.4736 5.54871 90.0927 6.22688 90.0927 7.02836C90.0927 7.89149 89.4116 8.50802 88.6067 8.50802C87.8017 8.56967 87.1206 7.89149 87.1206 7.02836Z" fill="#F5824F"/>
<path d="M61.1763 1.47966C61.1763 0.616523 61.8574 0 62.6623 0C63.4673 0 64.1484 0.678175 64.1484 1.47966C64.1484 2.34279 63.4673 2.95931 62.6623 2.95931C61.8574 2.95931 61.1763 2.34279 61.1763 1.47966Z" fill="#F5824F"/>
<path d="M67.6777 1.47966C67.6777 0.616523 68.3588 0 69.1638 0C70.0307 0 70.6499 0.678175 70.6499 1.47966C70.6499 2.34279 69.9688 2.95931 69.1638 2.95931C68.3588 3.02096 67.6777 2.34279 67.6777 1.47966Z" fill="#F5824F"/>
<path d="M74.1792 1.47966C74.1792 0.616523 74.8603 0 75.6653 0C76.5321 0 77.1513 0.678175 77.1513 1.47966C77.1513 2.34279 76.4702 2.95931 75.6653 2.95931C74.8603 3.02096 74.1792 2.34279 74.1792 1.47966Z" fill="#F5824F"/>
<path d="M80.6812 1.47966C80.6812 0.616523 81.3623 0 82.1672 0C83.0341 0 83.6533 0.678175 83.6533 1.47966C83.6533 2.34279 82.9722 2.95931 82.1672 2.95931C81.3623 3.02096 80.6812 2.34279 80.6812 1.47966Z" fill="#F5824F"/>
<path d="M87.1206 1.47966C87.1206 0.616523 87.8017 0 88.6067 0C89.4736 0 90.0927 0.678175 90.0927 1.47966C90.0927 2.34279 89.4116 2.95931 88.6067 2.95931C87.8017 3.02096 87.1206 2.34279 87.1206 1.47966Z" fill="#F5824F"/>
<path d="M30.774 75.3391L30.774 61.529L16.904 61.529H0C0 78.4217 13.7461 92.1702 30.774 92.1702V75.3391Z" fill="#2E2E2E"/>
<path d="M100.062 44.5746H91.0835V61.4057H100.062V44.5746Z" fill="#F5824F"/>
<path d="M47.678 92.1702H30.7739V100H47.678V92.1702Z" fill="#F5824F"/>
</g>
<path d="M72 95.2C72 81.2824 83.2824 70 97.2 70H301V74.7826C301 88.7098 289.71 100 275.783 100H72V95.2Z" fill="#F5824F"/>
<path d="M173.8 92H170.38L164.66 83.34V92H161.24V77.96H164.66L170.38 86.66V77.96H173.8V92ZM181.539 77.96C183.019 77.96 184.312 78.2533 185.419 78.84C186.526 79.4267 187.379 80.2533 187.979 81.32C188.592 82.3733 188.899 83.5933 188.899 84.98C188.899 86.3533 188.592 87.5733 187.979 88.64C187.379 89.7067 186.519 90.5333 185.399 91.12C184.292 91.7067 183.006 92 181.539 92H176.279V77.96H181.539ZM181.319 89.04C182.612 89.04 183.619 88.6867 184.339 87.98C185.059 87.2733 185.419 86.2733 185.419 84.98C185.419 83.6867 185.059 82.68 184.339 81.96C183.619 81.24 182.612 80.88 181.319 80.88H179.699V89.04H181.319ZM196.07 77.96C197.55 77.96 198.844 78.2533 199.95 78.84C201.057 79.4267 201.91 80.2533 202.51 81.32C203.124 82.3733 203.43 83.5933 203.43 84.98C203.43 86.3533 203.124 87.5733 202.51 88.64C201.91 89.7067 201.05 90.5333 199.93 91.12C198.824 91.7067 197.537 92 196.07 92H190.81V77.96H196.07ZM195.85 89.04C197.144 89.04 198.15 88.6867 198.87 87.98C199.59 87.2733 199.95 86.2733 199.95 84.98C199.95 83.6867 199.59 82.68 198.87 81.96C198.15 81.24 197.144 80.88 195.85 80.88H194.23V89.04H195.85ZM204.762 84.96C204.762 83.5733 205.062 82.34 205.662 81.26C206.262 80.1667 207.095 79.32 208.162 78.72C209.242 78.1067 210.462 77.8 211.822 77.8C213.488 77.8 214.915 78.24 216.102 79.12C217.288 80 218.082 81.2 218.482 82.72H214.722C214.442 82.1333 214.042 81.6867 213.522 81.38C213.015 81.0733 212.435 80.92 211.782 80.92C210.728 80.92 209.875 81.2867 209.222 82.02C208.568 82.7533 208.242 83.7333 208.242 84.96C208.242 86.1867 208.568 87.1667 209.222 87.9C209.875 88.6333 210.728 89 211.782 89C212.435 89 213.015 88.8467 213.522 88.54C214.042 88.2333 214.442 87.7867 214.722 87.2H218.482C218.082 88.72 217.288 89.92 216.102 90.8C214.915 91.6667 213.488 92.1 211.822 92.1C210.462 92.1 209.242 91.8 208.162 91.2C207.095 90.5867 206.262 89.74 205.662 88.66C205.062 87.58 204.762 86.3467 204.762 84.96Z" fill="white"/>
<defs>
<clipPath id="clip0_387_768">
<rect width="100" height="100" fill="white"/>
</clipPath>
</defs>
</svg>
