<svg width="234" height="47" viewBox="0 0 234 47" fill="none" xmlns="http://www.w3.org/2000/svg">
<path d="M140.115 46.7454V0L93.3694 0V46.7454L140.115 46.7454Z" fill="#FAFAFA"/>
<path d="M233.484 46.8669V0.121552L186.739 0.121552V46.8669L233.484 46.8669Z" fill="#64BF78"/>
<path d="M93.4302 46.8513V0.105957L46.6848 0.105957L46.6848 46.8513L93.4302 46.8513Z" fill="#FAFAFA"/>
<path d="M186.8 46.8062V0.060791L140.054 0.060791V46.8062L186.8 46.8062Z" fill="#2E2E2E"/>
<path d="M46.7454 46.7905L46.7454 0.045105L-1.52588e-05 0.045105L-1.52588e-05 46.7905L46.7454 46.7905Z" fill="#2E2E2E"/>
<path d="M58.4525 46.6852L46.8077 35.0405V46.6852H58.4525Z" fill="#64BF78"/>
<path d="M70.0972 46.6852L81.742 46.6852L46.8077 11.751V23.3957L70.0972 46.6852Z" fill="#64BF78"/>
<path d="M93.3867 46.6851L46.8077 0.106079L58.4525 0.106079L93.3867 35.0403V46.6851Z" fill="#64BF78"/>
<path d="M93.3867 23.3956L70.0972 0.106079L81.7419 0.106079L93.3867 11.7508V23.3956Z" fill="#64BF78"/>
<path d="M210.167 35.0405C216.598 35.0405 221.812 29.8269 221.812 23.3957C221.812 16.9645 216.598 11.7509 210.167 11.7509C203.736 11.7509 198.522 16.9645 198.522 23.3957C198.522 29.8269 203.736 35.0405 210.167 35.0405Z" fill="#2E2E2E"/>
<path d="M163.422 35.0405C169.853 35.0405 175.066 29.8269 175.066 23.3957C175.066 16.9645 169.853 11.7509 163.422 11.7509C156.99 11.7509 151.777 16.9645 151.777 23.3957C151.777 29.8269 156.99 35.0405 163.422 35.0405Z" fill="#FAFAFA"/>
<path d="M116.796 46.7482L140.086 23.4578L116.796 0.167322L93.5055 23.4578L116.796 46.7482Z" fill="#2E2E2E"/>
<path d="M0.0628662 0.106842L23.3524 23.3963L0.0628662 46.6859L0.0628662 0.106842Z" fill="#FAFAFA"/>
</svg>
