<svg width="299" height="100" viewBox="0 0 299 100" fill="none" xmlns="http://www.w3.org/2000/svg">
<g clip-path="url(#clip0_386_760)">
<path d="M30.727 30.6257H61.501V-0.0155182H30.727V30.6257Z" fill="#64BF78"/>
<path d="M77.2136 30.8262L60.3096 30.8262C60.3096 47.7189 74.0557 61.4674 91.0836 61.4674V44.5746C83.4056 44.5746 77.2136 38.4094 77.2136 30.8262Z" fill="#64BF78"/>
<path d="M60.3223 99.985H100.013V61.5756H60.3223V99.985Z" fill="#2E2E2E"/>
<path d="M61.4862 78.4217V61.529C44.5202 61.529 30.7122 75.2158 30.7122 92.1702H47.6781C47.6781 84.5869 53.8701 78.4217 61.4862 78.4217Z" fill="#64BF78"/>
<path d="M-0.0156956 61.4364H30.7583V30.7952H-0.0156956V61.4364Z" fill="#64BF78"/>
<path d="M7.66236 53.7914H23.0803V38.44H7.66236V53.7914Z" fill="white"/>
<path d="M44.582 61.4674H61.486C61.486 44.513 47.7399 30.8262 30.7739 30.8262L30.7739 47.6572C38.39 47.6572 44.582 53.8225 44.582 61.4674Z" fill="#2E2E2E"/>
<path d="M61.1765 29.0999C61.1765 28.2368 61.8576 27.6202 62.6626 27.6202C63.4675 27.6202 64.1486 28.2984 64.1486 29.0999C64.1486 29.963 63.4675 30.5795 62.6626 30.5795C61.8576 30.5795 61.1765 29.963 61.1765 29.0999Z" fill="#64BF78"/>
<path d="M67.678 29.0999C67.678 28.2368 68.3591 27.6202 69.164 27.6202C70.0309 27.6202 70.6501 28.2984 70.6501 29.0999C70.6501 29.963 69.969 30.5795 69.164 30.5795C68.3591 30.6412 67.678 29.963 67.678 29.0999Z" fill="#64BF78"/>
<path d="M74.1797 29.0999C74.1797 28.2368 74.8608 27.6202 75.6658 27.6202C76.5326 27.6202 77.1518 28.2984 77.1518 29.0999C77.1518 29.963 76.4707 30.5795 75.6658 30.5795C74.8608 30.6412 74.1797 29.963 74.1797 29.0999Z" fill="#64BF78"/>
<path d="M80.6812 29.0999C80.6812 28.2368 81.3623 27.6202 82.1672 27.6202C83.0341 27.6202 83.6533 28.2984 83.6533 29.0999C83.6533 29.963 82.9722 30.5795 82.1672 30.5795C81.3623 30.6412 80.6812 29.963 80.6812 29.0999Z" fill="#64BF78"/>
<path d="M87.1208 29.0999C87.1208 28.2368 87.802 27.6202 88.6069 27.6202C89.4738 27.6202 90.093 28.2984 90.093 29.0999C90.093 29.963 89.4119 30.5795 88.6069 30.5795C87.802 30.6412 87.1208 29.963 87.1208 29.0999Z" fill="#64BF78"/>
<path d="M61.1765 23.6128C61.1765 22.7497 61.8576 22.1332 62.6626 22.1332C63.4675 22.1332 64.1486 22.8114 64.1486 23.6128C64.1486 24.476 63.4675 25.0925 62.6626 25.0925C61.8576 25.0925 61.1765 24.4143 61.1765 23.6128Z" fill="#64BF78"/>
<path d="M67.678 23.6128C67.678 22.7497 68.3591 22.1332 69.164 22.1332C70.0309 22.1332 70.6501 22.8114 70.6501 23.6128C70.6501 24.476 69.969 25.0925 69.164 25.0925C68.3591 25.0925 67.678 24.4143 67.678 23.6128Z" fill="#64BF78"/>
<path d="M74.1797 23.6128C74.1797 22.7497 74.8608 22.1332 75.6658 22.1332C76.5326 22.1332 77.1518 22.8114 77.1518 23.6128C77.1518 24.476 76.4707 25.0925 75.6658 25.0925C74.8608 25.0925 74.1797 24.4143 74.1797 23.6128Z" fill="#64BF78"/>
<path d="M80.6812 23.6128C80.6812 22.7497 81.3623 22.1332 82.1672 22.1332C83.0341 22.1332 83.6533 22.8114 83.6533 23.6128C83.6533 24.476 82.9722 25.0925 82.1672 25.0925C81.3623 25.0925 80.6812 24.4143 80.6812 23.6128Z" fill="#64BF78"/>
<path d="M87.1208 23.6128C87.1208 22.7497 87.802 22.1332 88.6069 22.1332C89.4738 22.1332 90.093 22.8114 90.093 23.6128C90.093 24.476 89.4119 25.0925 88.6069 25.0925C87.802 25.0925 87.1208 24.4143 87.1208 23.6128Z" fill="#64BF78"/>
<path d="M61.1765 18.0641C61.1765 17.201 61.8576 16.5845 62.6626 16.5845C63.4675 16.5845 64.1486 17.2626 64.1486 18.0641C64.1486 18.9273 63.4675 19.5438 62.6626 19.5438C61.8576 19.5438 61.1765 18.9273 61.1765 18.0641Z" fill="#64BF78"/>
<path d="M67.678 18.0641C67.678 17.201 68.3591 16.5845 69.164 16.5845C70.0309 16.5845 70.6501 17.2626 70.6501 18.0641C70.6501 18.9273 69.969 19.5438 69.164 19.5438C68.3591 19.6054 67.678 18.9273 67.678 18.0641Z" fill="#64BF78"/>
<path d="M74.1797 18.0641C74.1797 17.201 74.8608 16.5845 75.6658 16.5845C76.5326 16.5845 77.1518 17.2626 77.1518 18.0641C77.1518 18.9273 76.4707 19.5438 75.6658 19.5438C74.8608 19.6054 74.1797 18.9273 74.1797 18.0641Z" fill="#64BF78"/>
<path d="M80.6812 18.0641C80.6812 17.201 81.3623 16.5845 82.1672 16.5845C83.0341 16.5845 83.6533 17.2626 83.6533 18.0641C83.6533 18.9273 82.9722 19.5438 82.1672 19.5438C81.3623 19.6054 80.6812 18.9273 80.6812 18.0641Z" fill="#64BF78"/>
<path d="M87.1208 18.0641C87.1208 17.201 87.802 16.5845 88.6069 16.5845C89.4738 16.5845 90.093 17.2626 90.093 18.0641C90.093 18.9273 89.4119 19.5438 88.6069 19.5438C87.802 19.6054 87.1208 18.9273 87.1208 18.0641Z" fill="#64BF78"/>
<path d="M61.1765 12.5771C61.1765 11.7139 61.8576 11.0974 62.6626 11.0974C63.4675 11.0974 64.1486 11.7756 64.1486 12.5771C64.1486 13.4402 63.4675 14.0567 62.6626 14.0567C61.8576 14.0567 61.1765 13.3785 61.1765 12.5771Z" fill="#64BF78"/>
<path d="M67.678 12.5771C67.678 11.7139 68.3591 11.0974 69.164 11.0974C70.0309 11.0974 70.6501 11.7756 70.6501 12.5771C70.6501 13.4402 69.969 14.0567 69.164 14.0567C68.3591 14.0567 67.678 13.3785 67.678 12.5771Z" fill="#64BF78"/>
<path d="M74.1797 12.5771C74.1797 11.7139 74.8608 11.0974 75.6658 11.0974C76.5326 11.0974 77.1518 11.7756 77.1518 12.5771C77.1518 13.4402 76.4707 14.0567 75.6658 14.0567C74.8608 14.0567 74.1797 13.3785 74.1797 12.5771Z" fill="#64BF78"/>
<path d="M80.6812 12.5771C80.6812 11.7139 81.3623 11.0974 82.1672 11.0974C83.0341 11.0974 83.6533 11.7756 83.6533 12.5771C83.6533 13.4402 82.9722 14.0567 82.1672 14.0567C81.3623 14.0567 80.6812 13.3785 80.6812 12.5771Z" fill="#64BF78"/>
<path d="M87.1208 12.5771C87.1208 11.7139 87.802 11.0974 88.6069 11.0974C89.4738 11.0974 90.093 11.7756 90.093 12.5771C90.093 13.4402 89.4119 14.0567 88.6069 14.0567C87.802 14.0567 87.1208 13.3785 87.1208 12.5771Z" fill="#64BF78"/>
<path d="M61.1765 7.02836C61.1765 6.16523 61.8576 5.54871 62.6626 5.54871C63.4675 5.54871 64.1486 6.22688 64.1486 7.02836C64.1486 7.89149 63.4675 8.50802 62.6626 8.50802C61.8576 8.50802 61.1765 7.89149 61.1765 7.02836Z" fill="#64BF78"/>
<path d="M67.678 7.02836C67.678 6.16523 68.3591 5.54871 69.164 5.54871C70.0309 5.54871 70.6501 6.22688 70.6501 7.02836C70.6501 7.89149 69.969 8.50802 69.164 8.50802C68.3591 8.56967 67.678 7.89149 67.678 7.02836Z" fill="#64BF78"/>
<path d="M74.1797 7.02836C74.1797 6.16523 74.8608 5.54871 75.6658 5.54871C76.5326 5.54871 77.1518 6.22688 77.1518 7.02836C77.1518 7.89149 76.4707 8.50802 75.6658 8.50802C74.8608 8.56967 74.1797 7.89149 74.1797 7.02836Z" fill="#64BF78"/>
<path d="M80.6812 7.02836C80.6812 6.16523 81.3623 5.54871 82.1672 5.54871C83.0341 5.54871 83.6533 6.22688 83.6533 7.02836C83.6533 7.89149 82.9722 8.50802 82.1672 8.50802C81.3623 8.56967 80.6812 7.89149 80.6812 7.02836Z" fill="#64BF78"/>
<path d="M87.1208 7.02836C87.1208 6.16523 87.802 5.54871 88.6069 5.54871C89.4738 5.54871 90.093 6.22688 90.093 7.02836C90.093 7.89149 89.4119 8.50802 88.6069 8.50802C87.802 8.56967 87.1208 7.89149 87.1208 7.02836Z" fill="#64BF78"/>
<path d="M61.1765 1.47966C61.1765 0.616523 61.8576 0 62.6626 0C63.4675 0 64.1486 0.678175 64.1486 1.47966C64.1486 2.34279 63.4675 2.95931 62.6626 2.95931C61.8576 2.95931 61.1765 2.34279 61.1765 1.47966Z" fill="#64BF78"/>
<path d="M67.678 1.47966C67.678 0.616523 68.3591 0 69.164 0C70.0309 0 70.6501 0.678175 70.6501 1.47966C70.6501 2.34279 69.969 2.95931 69.164 2.95931C68.3591 3.02096 67.678 2.34279 67.678 1.47966Z" fill="#64BF78"/>
<path d="M74.1797 1.47966C74.1797 0.616523 74.8608 0 75.6658 0C76.5326 0 77.1518 0.678175 77.1518 1.47966C77.1518 2.34279 76.4707 2.95931 75.6658 2.95931C74.8608 3.02096 74.1797 2.34279 74.1797 1.47966Z" fill="#64BF78"/>
<path d="M80.6812 1.47966C80.6812 0.616523 81.3623 0 82.1672 0C83.0341 0 83.6533 0.678175 83.6533 1.47966C83.6533 2.34279 82.9722 2.95931 82.1672 2.95931C81.3623 3.02096 80.6812 2.34279 80.6812 1.47966Z" fill="#64BF78"/>
<path d="M87.1208 1.47966C87.1208 0.616523 87.802 0 88.6069 0C89.4738 0 90.093 0.678175 90.093 1.47966C90.093 2.34279 89.4119 2.95931 88.6069 2.95931C87.802 3.02096 87.1208 2.34279 87.1208 1.47966Z" fill="#64BF78"/>
<path d="M30.774 75.3391L30.774 61.529L16.904 61.529H0C0 78.4217 13.7461 92.1702 30.774 92.1702V75.3391Z" fill="#2E2E2E"/>
<path d="M100.062 44.5746H91.0835V61.4057H100.062V44.5746Z" fill="#64BF78"/>
<path d="M47.678 92.1702H30.7739V100H47.678V92.1702Z" fill="#64BF78"/>
</g>
<path d="M72 95.2C72 81.2824 83.2824 70 97.2 70H299V74.7826C299 88.7098 287.71 100 273.783 100H72V95.2Z" fill="#64BF78"/>
<path d="M173.8 92H170.38L164.66 83.34V92H161.24V77.96H164.66L170.38 86.66V77.96H173.8V92ZM175.699 84.96C175.699 83.5733 175.999 82.34 176.599 81.26C177.199 80.1667 178.032 79.32 179.099 78.72C180.179 78.1067 181.399 77.8 182.759 77.8C184.426 77.8 185.852 78.24 187.039 79.12C188.226 80 189.019 81.2 189.419 82.72H185.659C185.379 82.1333 184.979 81.6867 184.459 81.38C183.952 81.0733 183.372 80.92 182.719 80.92C181.666 80.92 180.812 81.2867 180.159 82.02C179.506 82.7533 179.179 83.7333 179.179 84.96C179.179 86.1867 179.506 87.1667 180.159 87.9C180.812 88.6333 181.666 89 182.719 89C183.372 89 183.952 88.8467 184.459 88.54C184.979 88.2333 185.379 87.7867 185.659 87.2H189.419C189.019 88.72 188.226 89.92 187.039 90.8C185.852 91.6667 184.426 92.1 182.759 92.1C181.399 92.1 180.179 91.8 179.099 91.2C178.032 90.5867 177.199 89.74 176.599 88.66C175.999 87.58 175.699 86.3467 175.699 84.96ZM202.213 82.48C202.213 83.2933 202.027 84.04 201.653 84.72C201.28 85.3867 200.707 85.9267 199.933 86.34C199.16 86.7533 198.2 86.96 197.053 86.96H194.933V92H191.513V77.96H197.053C198.173 77.96 199.12 78.1533 199.893 78.54C200.667 78.9267 201.247 79.46 201.633 80.14C202.02 80.82 202.213 81.6 202.213 82.48ZM196.793 84.24C197.447 84.24 197.933 84.0867 198.253 83.78C198.573 83.4733 198.733 83.04 198.733 82.48C198.733 81.92 198.573 81.4867 198.253 81.18C197.933 80.8733 197.447 80.72 196.793 80.72H194.933V84.24H196.793ZM203.414 84.96C203.414 83.5733 203.714 82.34 204.314 81.26C204.914 80.1667 205.747 79.32 206.814 78.72C207.894 78.1067 209.114 77.8 210.474 77.8C212.141 77.8 213.567 78.24 214.754 79.12C215.941 80 216.734 81.2 217.134 82.72H213.374C213.094 82.1333 212.694 81.6867 212.174 81.38C211.667 81.0733 211.087 80.92 210.434 80.92C209.381 80.92 208.527 81.2867 207.874 82.02C207.221 82.7533 206.894 83.7333 206.894 84.96C206.894 86.1867 207.221 87.1667 207.874 87.9C208.527 88.6333 209.381 89 210.434 89C211.087 89 211.667 88.8467 212.174 88.54C212.694 88.2333 213.094 87.7867 213.374 87.2H217.134C216.734 88.72 215.941 89.92 214.754 90.8C213.567 91.6667 212.141 92.1 210.474 92.1C209.114 92.1 207.894 91.8 206.814 91.2C205.747 90.5867 204.914 89.74 204.314 88.66C203.714 87.58 203.414 86.3467 203.414 84.96Z" fill="white"/>
<defs>
<clipPath id="clip0_386_760">
<rect width="100" height="100" fill="white"/>
</clipPath>
</defs>
</svg>
