<svg width="318" height="188" viewBox="0 0 318 188" fill="none" xmlns="http://www.w3.org/2000/svg">
<path d="M23.88 122.96C23.88 124.587 23.5067 126.08 22.76 127.44C22.0133 128.773 20.8667 129.853 19.32 130.68C17.7733 131.507 15.8533 131.92 13.56 131.92H9.32V142H2.48V113.92H13.56C15.8 113.92 17.6933 114.307 19.24 115.08C20.7867 115.853 21.9467 116.92 22.72 118.28C23.4933 119.64 23.88 121.2 23.88 122.96ZM13.04 126.48C14.3467 126.48 15.32 126.173 15.96 125.56C16.6 124.947 16.92 124.08 16.92 122.96C16.92 121.84 16.6 120.973 15.96 120.36C15.32 119.747 14.3467 119.44 13.04 119.44H9.32V126.48H13.04ZM41.7609 142L35.9209 131.4H34.2809V142H27.4409V113.92H38.9209C41.1343 113.92 43.0143 114.307 44.5609 115.08C46.1343 115.853 47.3076 116.92 48.0809 118.28C48.8543 119.613 49.2409 121.107 49.2409 122.76C49.2409 124.627 48.7076 126.293 47.6409 127.76C46.6009 129.227 45.0543 130.267 43.0009 130.88L49.4809 142H41.7609ZM34.2809 126.56H38.5209C39.7743 126.56 40.7076 126.253 41.3209 125.64C41.9609 125.027 42.2809 124.16 42.2809 123.04C42.2809 121.973 41.9609 121.133 41.3209 120.52C40.7076 119.907 39.7743 119.6 38.5209 119.6H34.2809V126.56ZM60.3747 119.4V125.08H69.5347V130.36H60.3747V136.52H70.7347V142H53.5347V113.92H70.7347V119.4H60.3747ZM85.3353 142.28C83.282 142.28 81.442 141.947 79.8153 141.28C78.1886 140.613 76.882 139.627 75.8953 138.32C74.9353 137.013 74.4286 135.44 74.3753 133.6H81.6553C81.762 134.64 82.122 135.44 82.7353 136C83.3486 136.533 84.1486 136.8 85.1353 136.8C86.1486 136.8 86.9486 136.573 87.5353 136.12C88.122 135.64 88.4153 134.987 88.4153 134.16C88.4153 133.467 88.1753 132.893 87.6953 132.44C87.242 131.987 86.6686 131.613 85.9753 131.32C85.3086 131.027 84.3486 130.693 83.0953 130.32C81.282 129.76 79.802 129.2 78.6553 128.64C77.5086 128.08 76.522 127.253 75.6953 126.16C74.8686 125.067 74.4553 123.64 74.4553 121.88C74.4553 119.267 75.402 117.227 77.2953 115.76C79.1886 114.267 81.6553 113.52 84.6953 113.52C87.7886 113.52 90.282 114.267 92.1753 115.76C94.0686 117.227 95.082 119.28 95.2153 121.92H87.8153C87.762 121.013 87.4286 120.307 86.8153 119.8C86.202 119.267 85.4153 119 84.4553 119C83.6286 119 82.962 119.227 82.4553 119.68C81.9486 120.107 81.6953 120.733 81.6953 121.56C81.6953 122.467 82.122 123.173 82.9753 123.68C83.8286 124.187 85.162 124.733 86.9753 125.32C88.7886 125.933 90.2553 126.52 91.3753 127.08C92.522 127.64 93.5086 128.453 94.3353 129.52C95.162 130.587 95.5753 131.96 95.5753 133.64C95.5753 135.24 95.162 136.693 94.3353 138C93.5353 139.307 92.362 140.347 90.8153 141.12C89.2686 141.893 87.442 142.28 85.3353 142.28ZM106.625 113.92V142H99.7847V113.92H106.625ZM122.102 113.92C125.062 113.92 127.648 114.507 129.862 115.68C132.075 116.853 133.782 118.507 134.982 120.64C136.208 122.747 136.822 125.187 136.822 127.96C136.822 130.707 136.208 133.147 134.982 135.28C133.782 137.413 132.062 139.067 129.822 140.24C127.608 141.413 125.035 142 122.102 142H111.582V113.92H122.102ZM121.662 136.08C124.248 136.08 126.262 135.373 127.702 133.96C129.142 132.547 129.862 130.547 129.862 127.96C129.862 125.373 129.142 123.36 127.702 121.92C126.262 120.48 124.248 119.76 121.662 119.76H118.422V136.08H121.662ZM147.484 119.4V125.08H156.644V130.36H147.484V136.52H157.844V142H140.644V113.92H157.844V119.4H147.484ZM187.405 142H180.565L169.125 124.68V142H162.285V113.92H169.125L180.565 131.32V113.92H187.405V142ZM212.563 113.92V119.4H205.123V142H198.283V119.4H190.843V113.92H212.563ZM245.952 142L243.352 139.48C240.766 141.453 237.672 142.44 234.072 142.44C231.912 142.44 230.032 142.093 228.432 141.4C226.832 140.68 225.592 139.68 224.712 138.4C223.859 137.093 223.432 135.573 223.432 133.84C223.432 132.08 223.899 130.493 224.832 129.08C225.792 127.64 227.219 126.467 229.112 125.56C228.419 124.707 227.926 123.893 227.632 123.12C227.339 122.32 227.192 121.453 227.192 120.52C227.192 119.187 227.539 117.973 228.232 116.88C228.926 115.787 229.926 114.933 231.232 114.32C232.566 113.68 234.139 113.36 235.952 113.36C237.792 113.36 239.352 113.693 240.632 114.36C241.912 115.027 242.872 115.92 243.512 117.04C244.152 118.16 244.446 119.387 244.392 120.72H237.952C237.979 120 237.792 119.453 237.392 119.08C237.019 118.68 236.512 118.48 235.872 118.48C235.232 118.48 234.699 118.667 234.272 119.04C233.846 119.413 233.632 119.893 233.632 120.48C233.632 121.04 233.806 121.627 234.152 122.24C234.526 122.853 235.099 123.56 235.872 124.36L242.712 131.04C242.766 130.907 242.832 130.747 242.912 130.56C243.019 130.373 243.126 130.16 243.232 129.92L244.712 127.4H251.552L249.632 130.88C248.912 132.453 248.086 133.947 247.152 135.36L253.912 142H245.952ZM234.392 136.92C236.179 136.92 237.766 136.413 239.152 135.4L232.912 129.36C230.992 130.347 230.032 131.68 230.032 133.36C230.032 134.373 230.419 135.227 231.192 135.92C231.992 136.587 233.059 136.92 234.392 136.92ZM28.84 153.92L18.88 182H10.32L0.36 153.92H7.64L14.6 175.12L21.6 153.92H28.84ZM38.5388 153.92V182H31.6988V153.92H38.5388ZM42.3356 167.92C42.3356 165.147 42.9356 162.68 44.1356 160.52C45.3356 158.333 47.0023 156.64 49.1356 155.44C51.2956 154.213 53.7356 153.6 56.4556 153.6C59.789 153.6 62.6423 154.48 65.0156 156.24C67.389 158 68.9756 160.4 69.7756 163.44H62.2556C61.6956 162.267 60.8956 161.373 59.8556 160.76C58.8423 160.147 57.6823 159.84 56.3756 159.84C54.269 159.84 52.5623 160.573 51.2556 162.04C49.949 163.507 49.2956 165.467 49.2956 167.92C49.2956 170.373 49.949 172.333 51.2556 173.8C52.5623 175.267 54.269 176 56.3756 176C57.6823 176 58.8423 175.693 59.8556 175.08C60.8956 174.467 61.6956 173.573 62.2556 172.4H69.7756C68.9756 175.44 67.389 177.84 65.0156 179.6C62.6423 181.333 59.789 182.2 56.4556 182.2C53.7356 182.2 51.2956 181.6 49.1356 180.4C47.0023 179.173 45.3356 177.48 44.1356 175.32C42.9356 173.16 42.3356 170.693 42.3356 167.92ZM80.8044 159.4V165.08H89.9644V170.36H80.8044V176.52H91.1644V182H73.9644V153.92H91.1644V159.4H80.8044ZM125.482 162.96C125.482 164.587 125.108 166.08 124.362 167.44C123.615 168.773 122.468 169.853 120.922 170.68C119.375 171.507 117.455 171.92 115.162 171.92H110.922V182H104.082V153.92H115.162C117.402 153.92 119.295 154.307 120.842 155.08C122.388 155.853 123.548 156.92 124.322 158.28C125.095 159.64 125.482 161.2 125.482 162.96ZM114.642 166.48C115.948 166.48 116.922 166.173 117.562 165.56C118.202 164.947 118.522 164.08 118.522 162.96C118.522 161.84 118.202 160.973 117.562 160.36C116.922 159.747 115.948 159.44 114.642 159.44H110.922V166.48H114.642ZM143.363 182L137.523 171.4H135.883V182H129.043V153.92H140.523C142.736 153.92 144.616 154.307 146.163 155.08C147.736 155.853 148.909 156.92 149.683 158.28C150.456 159.613 150.843 161.107 150.843 162.76C150.843 164.627 150.309 166.293 149.243 167.76C148.203 169.227 146.656 170.267 144.603 170.88L151.083 182H143.363ZM135.883 166.56H140.123C141.376 166.56 142.309 166.253 142.923 165.64C143.563 165.027 143.883 164.16 143.883 163.04C143.883 161.973 143.563 161.133 142.923 160.52C142.309 159.907 141.376 159.6 140.123 159.6H135.883V166.56ZM161.976 159.4V165.08H171.136V170.36H161.976V176.52H172.336V182H155.136V153.92H172.336V159.4H161.976ZM186.937 182.28C184.884 182.28 183.044 181.947 181.417 181.28C179.79 180.613 178.484 179.627 177.497 178.32C176.537 177.013 176.03 175.44 175.977 173.6H183.257C183.364 174.64 183.724 175.44 184.337 176C184.95 176.533 185.75 176.8 186.737 176.8C187.75 176.8 188.55 176.573 189.137 176.12C189.724 175.64 190.017 174.987 190.017 174.16C190.017 173.467 189.777 172.893 189.297 172.44C188.844 171.987 188.27 171.613 187.577 171.32C186.91 171.027 185.95 170.693 184.697 170.32C182.884 169.76 181.404 169.2 180.257 168.64C179.11 168.08 178.124 167.253 177.297 166.16C176.47 165.067 176.057 163.64 176.057 161.88C176.057 159.267 177.004 157.227 178.897 155.76C180.79 154.267 183.257 153.52 186.297 153.52C189.39 153.52 191.884 154.267 193.777 155.76C195.67 157.227 196.684 159.28 196.817 161.92H189.417C189.364 161.013 189.03 160.307 188.417 159.8C187.804 159.267 187.017 159 186.057 159C185.23 159 184.564 159.227 184.057 159.68C183.55 160.107 183.297 160.733 183.297 161.56C183.297 162.467 183.724 163.173 184.577 163.68C185.43 164.187 186.764 164.733 188.577 165.32C190.39 165.933 191.857 166.52 192.977 167.08C194.124 167.64 195.11 168.453 195.937 169.52C196.764 170.587 197.177 171.96 197.177 173.64C197.177 175.24 196.764 176.693 195.937 178C195.137 179.307 193.964 180.347 192.417 181.12C190.87 181.893 189.044 182.28 186.937 182.28ZM208.226 153.92V182H201.386V153.92H208.226ZM223.703 153.92C226.663 153.92 229.25 154.507 231.463 155.68C233.676 156.853 235.383 158.507 236.583 160.64C237.81 162.747 238.423 165.187 238.423 167.96C238.423 170.707 237.81 173.147 236.583 175.28C235.383 177.413 233.663 179.067 231.423 180.24C229.21 181.413 226.636 182 223.703 182H213.183V153.92H223.703ZM223.263 176.08C225.85 176.08 227.863 175.373 229.303 173.96C230.743 172.547 231.463 170.547 231.463 167.96C231.463 165.373 230.743 163.36 229.303 161.92C227.863 160.48 225.85 159.76 223.263 159.76H220.023V176.08H223.263ZM249.086 159.4V165.08H258.246V170.36H249.086V176.52H259.446V182H242.246V153.92H259.446V159.4H249.086ZM289.006 182H282.166L270.726 164.68V182H263.886V153.92H270.726L282.166 171.32V153.92H289.006V182ZM314.164 153.92V159.4H306.724V182H299.884V159.4H292.444V153.92H314.164Z" fill="#2E2E2E"/>
<g clip-path="url(#clip0_370_1142)">
<path d="M287.374 30.7271L287.374 61.5011L318.016 61.5011L318.016 30.7271L287.374 30.7271Z" fill="#55B3E5"/>
<path d="M287.174 77.2136L287.174 60.3096C270.281 60.3096 256.533 74.0557 256.533 91.0836L273.425 91.0836C273.425 83.4056 279.591 77.2136 287.174 77.2136Z" fill="#55B3E5"/>
<path d="M218.015 60.3223L218.015 100.013L256.424 100.013L256.424 60.3223L218.015 60.3223Z" fill="#2E2E2E"/>
<path d="M239.578 61.4861L256.471 61.4861C256.471 44.5201 242.784 30.7121 225.83 30.7121L225.83 47.678C233.413 47.678 239.578 53.87 239.578 61.4861Z" fill="#55B3E5"/>
<path d="M256.564 -0.0156651L256.564 30.7583L287.205 30.7583L287.205 -0.0156637L256.564 -0.0156651Z" fill="#55B3E5"/>
<path d="M264.209 7.6623L264.209 23.0803L279.56 23.0803L279.56 7.6623L264.209 7.6623Z" fill="white"/>
<path d="M256.533 44.582L256.533 61.4861C273.487 61.4861 287.174 47.7399 287.174 30.774L270.343 30.774C270.343 38.3901 264.178 44.582 256.533 44.582Z" fill="#2E2E2E"/>
<path d="M288.9 61.1765C289.763 61.1765 290.38 61.8576 290.38 62.6625C290.38 63.4675 289.702 64.1486 288.9 64.1486C288.037 64.1486 287.42 63.4675 287.42 62.6625C287.42 61.8576 288.037 61.1765 288.9 61.1765Z" fill="#55B3E5"/>
<path d="M288.9 67.678C289.763 67.678 290.38 68.3592 290.38 69.1641C290.38 70.031 289.702 70.6502 288.9 70.6502C288.037 70.6502 287.42 69.9691 287.42 69.1641C287.359 68.3592 288.037 67.678 288.9 67.678Z" fill="#55B3E5"/>
<path d="M288.9 74.1796C289.763 74.1796 290.38 74.8607 290.38 75.6657C290.38 76.5325 289.702 77.1517 288.9 77.1517C288.037 77.1517 287.42 76.4706 287.42 75.6657C287.359 74.8607 288.037 74.1796 288.9 74.1796Z" fill="#55B3E5"/>
<path d="M288.9 80.6811C289.763 80.6811 290.38 81.3622 290.38 82.1672C290.38 83.0341 289.702 83.6533 288.9 83.6533C288.037 83.6533 287.42 82.9721 287.42 82.1672C287.359 81.3622 288.037 80.6811 288.9 80.6811Z" fill="#55B3E5"/>
<path d="M288.9 87.1208C289.763 87.1208 290.38 87.8019 290.38 88.6068C290.38 89.4737 289.702 90.0929 288.9 90.0929C288.037 90.0929 287.42 89.4118 287.42 88.6068C287.359 87.8019 288.037 87.1208 288.9 87.1208Z" fill="#55B3E5"/>
<path d="M294.387 61.1765C295.25 61.1765 295.867 61.8576 295.867 62.6625C295.867 63.4675 295.189 64.1486 294.387 64.1486C293.524 64.1486 292.908 63.4675 292.908 62.6625C292.908 61.8576 293.586 61.1765 294.387 61.1765Z" fill="#55B3E5"/>
<path d="M294.387 67.678C295.25 67.678 295.867 68.3592 295.867 69.1641C295.867 70.031 295.189 70.6502 294.387 70.6502C293.524 70.6502 292.908 69.9691 292.908 69.1641C292.908 68.3592 293.586 67.678 294.387 67.678Z" fill="#55B3E5"/>
<path d="M294.387 74.1796C295.25 74.1796 295.867 74.8607 295.867 75.6657C295.867 76.5325 295.189 77.1517 294.387 77.1517C293.524 77.1517 292.908 76.4706 292.908 75.6657C292.908 74.8607 293.586 74.1796 294.387 74.1796Z" fill="#55B3E5"/>
<path d="M294.387 80.6811C295.25 80.6811 295.867 81.3622 295.867 82.1672C295.867 83.0341 295.189 83.6533 294.387 83.6533C293.524 83.6533 292.908 82.9721 292.908 82.1672C292.908 81.3622 293.586 80.6811 294.387 80.6811Z" fill="#55B3E5"/>
<path d="M294.387 87.1208C295.25 87.1208 295.867 87.8019 295.867 88.6068C295.867 89.4737 295.189 90.0929 294.387 90.0929C293.524 90.0929 292.908 89.4118 292.908 88.6068C292.908 87.8019 293.586 87.1208 294.387 87.1208Z" fill="#55B3E5"/>
<path d="M299.936 61.1765C300.799 61.1765 301.416 61.8576 301.416 62.6625C301.416 63.4675 300.737 64.1486 299.936 64.1486C299.073 64.1486 298.456 63.4675 298.456 62.6625C298.456 61.8576 299.073 61.1765 299.936 61.1765Z" fill="#55B3E5"/>
<path d="M299.936 67.678C300.799 67.678 301.416 68.3592 301.416 69.1641C301.416 70.031 300.737 70.6502 299.936 70.6502C299.073 70.6502 298.456 69.9691 298.456 69.1641C298.395 68.3592 299.073 67.678 299.936 67.678Z" fill="#55B3E5"/>
<path d="M299.936 74.1796C300.799 74.1796 301.416 74.8607 301.416 75.6657C301.416 76.5325 300.737 77.1517 299.936 77.1517C299.073 77.1517 298.456 76.4706 298.456 75.6657C298.395 74.8607 299.073 74.1796 299.936 74.1796Z" fill="#55B3E5"/>
<path d="M299.936 80.6811C300.799 80.6811 301.416 81.3622 301.416 82.1672C301.416 83.0341 300.737 83.6533 299.936 83.6533C299.073 83.6533 298.456 82.9721 298.456 82.1672C298.395 81.3622 299.073 80.6811 299.936 80.6811Z" fill="#55B3E5"/>
<path d="M299.936 87.1208C300.799 87.1208 301.416 87.8019 301.416 88.6068C301.416 89.4737 300.737 90.0929 299.936 90.0929C299.073 90.0929 298.456 89.4118 298.456 88.6068C298.395 87.8019 299.073 87.1208 299.936 87.1208Z" fill="#55B3E5"/>
<path d="M305.423 61.1765C306.286 61.1765 306.903 61.8576 306.903 62.6625C306.903 63.4675 306.224 64.1486 305.423 64.1486C304.56 64.1486 303.943 63.4675 303.943 62.6625C303.943 61.8576 304.621 61.1765 305.423 61.1765Z" fill="#55B3E5"/>
<path d="M305.423 67.678C306.286 67.678 306.903 68.3592 306.903 69.1641C306.903 70.031 306.224 70.6502 305.423 70.6502C304.56 70.6502 303.943 69.9691 303.943 69.1641C303.943 68.3592 304.621 67.678 305.423 67.678Z" fill="#55B3E5"/>
<path d="M305.423 74.1796C306.286 74.1796 306.903 74.8607 306.903 75.6657C306.903 76.5325 306.224 77.1517 305.423 77.1517C304.56 77.1517 303.943 76.4706 303.943 75.6657C303.943 74.8607 304.621 74.1796 305.423 74.1796Z" fill="#55B3E5"/>
<path d="M305.423 80.6811C306.286 80.6811 306.903 81.3622 306.903 82.1672C306.903 83.0341 306.224 83.6533 305.423 83.6533C304.56 83.6533 303.943 82.9721 303.943 82.1672C303.943 81.3622 304.621 80.6811 305.423 80.6811Z" fill="#55B3E5"/>
<path d="M305.423 87.1208C306.286 87.1208 306.903 87.8019 306.903 88.6068C306.903 89.4737 306.224 90.0929 305.423 90.0929C304.56 90.0929 303.943 89.4118 303.943 88.6068C303.943 87.8019 304.621 87.1208 305.423 87.1208Z" fill="#55B3E5"/>
<path d="M310.972 61.1765C311.835 61.1765 312.451 61.8576 312.451 62.6625C312.451 63.4675 311.773 64.1486 310.972 64.1486C310.109 64.1486 309.492 63.4675 309.492 62.6625C309.492 61.8576 310.109 61.1765 310.972 61.1765Z" fill="#55B3E5"/>
<path d="M310.972 67.678C311.835 67.678 312.451 68.3592 312.451 69.1641C312.451 70.031 311.773 70.6502 310.972 70.6502C310.109 70.6502 309.492 69.9691 309.492 69.1641C309.43 68.3592 310.109 67.678 310.972 67.678Z" fill="#55B3E5"/>
<path d="M310.972 74.1796C311.835 74.1796 312.451 74.8607 312.451 75.6657C312.451 76.5325 311.773 77.1517 310.972 77.1517C310.109 77.1517 309.492 76.4706 309.492 75.6657C309.43 74.8607 310.109 74.1796 310.972 74.1796Z" fill="#55B3E5"/>
<path d="M310.972 80.6811C311.835 80.6811 312.451 81.3622 312.451 82.1672C312.451 83.0341 311.773 83.6533 310.972 83.6533C310.109 83.6533 309.492 82.9721 309.492 82.1672C309.43 81.3622 310.109 80.6811 310.972 80.6811Z" fill="#55B3E5"/>
<path d="M310.972 87.1208C311.835 87.1208 312.451 87.8019 312.451 88.6068C312.451 89.4737 311.773 90.0929 310.972 90.0929C310.109 90.0929 309.492 89.4118 309.492 88.6068C309.43 87.8019 310.109 87.1208 310.972 87.1208Z" fill="#55B3E5"/>
<path d="M316.52 61.1765C317.383 61.1765 318 61.8576 318 62.6625C318 63.4675 317.322 64.1486 316.52 64.1486C315.657 64.1486 315.041 63.4675 315.041 62.6625C315.041 61.8576 315.657 61.1765 316.52 61.1765Z" fill="#55B3E5"/>
<path d="M316.52 67.678C317.383 67.678 318 68.3592 318 69.1641C318 70.031 317.322 70.6502 316.52 70.6502C315.657 70.6502 315.041 69.9691 315.041 69.1641C314.979 68.3592 315.657 67.678 316.52 67.678Z" fill="#55B3E5"/>
<path d="M316.52 74.1796C317.383 74.1796 318 74.8607 318 75.6657C318 76.5325 317.322 77.1517 316.52 77.1517C315.657 77.1517 315.041 76.4706 315.041 75.6657C314.979 74.8607 315.657 74.1796 316.52 74.1796Z" fill="#55B3E5"/>
<path d="M316.52 80.6811C317.383 80.6811 318 81.3622 318 82.1672C318 83.0341 317.322 83.6533 316.52 83.6533C315.657 83.6533 315.041 82.9721 315.041 82.1672C314.979 81.3622 315.657 80.6811 316.52 80.6811Z" fill="#55B3E5"/>
<path d="M316.52 87.1208C317.383 87.1208 318 87.8019 318 88.6068C318 89.4737 317.322 90.0929 316.52 90.0929C315.657 90.0929 315.041 89.4118 315.041 88.6068C314.979 87.8019 315.657 87.1208 316.52 87.1208Z" fill="#55B3E5"/>
<path d="M242.661 30.774L256.471 30.774L256.471 16.904L256.471 0C239.578 -7.38405e-07 225.83 13.7461 225.83 30.774L242.661 30.774Z" fill="#2E2E2E"/>
<path d="M273.425 100.062L273.425 91.0836L256.594 91.0836L256.594 100.062L273.425 100.062Z" fill="#55B3E5"/>
<path d="M225.83 47.678L225.83 30.774L218 30.774L218 47.678L225.83 47.678Z" fill="#55B3E5"/>
</g>
<path d="M10 95.2C10 81.2824 21.2824 70 35.2 70H245V74.7826C245 88.7098 233.71 100 219.783 100H10V95.2Z" fill="#55B3E5"/>
<path d="M111.8 92H108.38L102.66 83.34V92H99.24V77.96H102.66L108.38 86.66V77.96H111.8V92ZM133.599 77.96L129.939 92H125.799L123.559 82.76L121.239 92H117.099L113.539 77.96H117.199L119.219 88.18L121.719 77.96H125.479L127.879 88.18L129.919 77.96H133.599ZM140.574 77.96C142.054 77.96 143.348 78.2533 144.454 78.84C145.561 79.4267 146.414 80.2533 147.014 81.32C147.628 82.3733 147.934 83.5933 147.934 84.98C147.934 86.3533 147.628 87.5733 147.014 88.64C146.414 89.7067 145.554 90.5333 144.434 91.12C143.328 91.7067 142.041 92 140.574 92H135.314V77.96H140.574ZM140.354 89.04C141.648 89.04 142.654 88.6867 143.374 87.98C144.094 87.2733 144.454 86.2733 144.454 84.98C144.454 83.6867 144.094 82.68 143.374 81.96C142.654 81.24 141.648 80.88 140.354 80.88H138.734V89.04H140.354ZM149.265 84.96C149.265 83.5733 149.565 82.34 150.165 81.26C150.765 80.1667 151.599 79.32 152.665 78.72C153.745 78.1067 154.965 77.8 156.325 77.8C157.992 77.8 159.419 78.24 160.605 79.12C161.792 80 162.585 81.2 162.985 82.72H159.225C158.945 82.1333 158.545 81.6867 158.025 81.38C157.519 81.0733 156.939 80.92 156.285 80.92C155.232 80.92 154.379 81.2867 153.725 82.02C153.072 82.7533 152.745 83.7333 152.745 84.96C152.745 86.1867 153.072 87.1667 153.725 87.9C154.379 88.6333 155.232 89 156.285 89C156.939 89 157.519 88.8467 158.025 88.54C158.545 88.2333 158.945 87.7867 159.225 87.2H162.985C162.585 88.72 161.792 89.92 160.605 90.8C159.419 91.6667 157.992 92.1 156.325 92.1C154.965 92.1 153.745 91.8 152.665 91.2C151.599 90.5867 150.765 89.74 150.165 88.66C149.565 87.58 149.265 86.3467 149.265 84.96Z" fill="white"/>
<defs>
<clipPath id="clip0_370_1142">
<rect width="100" height="100" fill="white" transform="translate(318) rotate(90)"/>
</clipPath>
</defs>
</svg>
