<svg width="233" height="47" viewBox="0 0 233 47" fill="none" xmlns="http://www.w3.org/2000/svg">
<path d="M93.3694 0.121414L93.3694 46.8668L140.115 46.8668L140.115 0.121418L93.3694 0.121414Z" fill="#FAFAFA"/>
<path d="M4.08661e-06 -0.000137329L0 46.7452L46.7454 46.7452L46.7454 -0.000133242L4.08661e-06 -0.000137329Z" fill="#D62340"/>
<path d="M140.054 0.0154877L140.054 46.7609L186.799 46.7609L186.799 0.0154918L140.054 0.0154877Z" fill="#FAFAFA"/>
<path d="M46.6846 0.0606232L46.6846 46.806L93.4299 46.806L93.43 0.0606273L46.6846 0.0606232Z" fill="#2E2E2E"/>
<path d="M186.739 0.0763359L186.739 46.8217L233.484 46.8217L233.484 0.07634L186.739 0.0763359Z" fill="#2E2E2E"/>
<path d="M175.032 0.181601L186.677 11.8264L186.677 0.181602L175.032 0.181601Z" fill="#D62340"/>
<path d="M163.387 0.181589L151.742 0.181588L186.677 35.1158L186.677 23.4711L163.387 0.181589Z" fill="#D62340"/>
<path d="M140.098 0.181728L186.677 46.7607L175.032 46.7607L140.098 11.8265L140.098 0.181728Z" fill="#D62340"/>
<path d="M140.097 23.4712L163.387 46.7607L151.742 46.7607L140.097 35.116L140.097 23.4712Z" fill="#D62340"/>
<path d="M23.3173 11.8264C16.8861 11.8264 11.6725 17.0399 11.6725 23.4711C11.6725 29.9023 16.8861 35.1159 23.3173 35.1159C29.7485 35.1159 34.962 29.9023 34.962 23.4711C34.962 17.0399 29.7485 11.8264 23.3173 11.8264Z" fill="#2E2E2E"/>
<path d="M70.0626 11.8264C63.6314 11.8264 58.4179 17.0399 58.4179 23.4711C58.4179 29.9023 63.6314 35.1159 70.0626 35.1159C76.4939 35.1159 81.7074 29.9023 81.7074 23.4711C81.7074 17.0399 76.4939 11.8264 70.0626 11.8264Z" fill="#FAFAFA"/>
<path d="M116.688 0.118545L93.3979 23.409L116.688 46.6995L139.979 23.409L116.688 0.118545Z" fill="#2E2E2E"/>
<path d="M233.421 46.76L210.132 23.4705L233.421 0.180969L233.421 46.76Z" fill="#FAFAFA"/>
</svg>
