<svg width="300" height="100" viewBox="0 0 300 100" fill="none" xmlns="http://www.w3.org/2000/svg">
<g clip-path="url(#clip0_385_757)">
<path d="M30.727 30.6257H61.501V-0.0155182H30.727V30.6257Z" fill="#D62340"/>
<path d="M77.2137 30.8262L60.3096 30.8262C60.3096 47.7189 74.0558 61.4674 91.0836 61.4674V44.5746C83.4056 44.5746 77.2137 38.4094 77.2137 30.8262Z" fill="#D62340"/>
<path d="M60.3223 99.985H100.013V61.5756H60.3223V99.985Z" fill="#2E2E2E"/>
<path d="M61.4861 78.4217V61.529C44.5202 61.529 30.7121 75.2158 30.7121 92.1702H47.678C47.678 84.5869 53.87 78.4217 61.4861 78.4217Z" fill="#D62340"/>
<path d="M-0.0156956 61.4364H30.7583V30.7952H-0.0156956V61.4364Z" fill="#D62340"/>
<path d="M7.66224 53.7914H23.0802V38.44H7.66224V53.7914Z" fill="white"/>
<path d="M44.582 61.4674H61.4861C61.4861 44.513 47.7399 30.8262 30.774 30.8262L30.774 47.6572C38.3901 47.6572 44.582 53.8225 44.582 61.4674Z" fill="#2E2E2E"/>
<path d="M61.1765 29.0999C61.1765 28.2368 61.8576 27.6202 62.6625 27.6202C63.4675 27.6202 64.1486 28.2984 64.1486 29.0999C64.1486 29.963 63.4675 30.5795 62.6625 30.5795C61.8576 30.5795 61.1765 29.963 61.1765 29.0999Z" fill="#D62340"/>
<path d="M67.678 29.0999C67.678 28.2368 68.3591 27.6202 69.164 27.6202C70.0309 27.6202 70.6501 28.2984 70.6501 29.0999C70.6501 29.963 69.969 30.5795 69.164 30.5795C68.3591 30.6412 67.678 29.963 67.678 29.0999Z" fill="#D62340"/>
<path d="M74.1796 29.0999C74.1796 28.2368 74.8607 27.6202 75.6656 27.6202C76.5325 27.6202 77.1517 28.2984 77.1517 29.0999C77.1517 29.963 76.4706 30.5795 75.6656 30.5795C74.8607 30.6412 74.1796 29.963 74.1796 29.0999Z" fill="#D62340"/>
<path d="M80.6811 29.0999C80.6811 28.2368 81.3622 27.6202 82.1672 27.6202C83.034 27.6202 83.6532 28.2984 83.6532 29.0999C83.6532 29.963 82.9721 30.5795 82.1672 30.5795C81.3622 30.6412 80.6811 29.963 80.6811 29.0999Z" fill="#D62340"/>
<path d="M87.1207 29.0999C87.1207 28.2368 87.8018 27.6202 88.6068 27.6202C89.4737 27.6202 90.0929 28.2984 90.0929 29.0999C90.0929 29.963 89.4118 30.5795 88.6068 30.5795C87.8018 30.6412 87.1207 29.963 87.1207 29.0999Z" fill="#D62340"/>
<path d="M61.1765 23.6128C61.1765 22.7497 61.8576 22.1332 62.6625 22.1332C63.4675 22.1332 64.1486 22.8114 64.1486 23.6128C64.1486 24.476 63.4675 25.0925 62.6625 25.0925C61.8576 25.0925 61.1765 24.4143 61.1765 23.6128Z" fill="#D62340"/>
<path d="M67.678 23.6128C67.678 22.7497 68.3591 22.1332 69.164 22.1332C70.0309 22.1332 70.6501 22.8114 70.6501 23.6128C70.6501 24.476 69.969 25.0925 69.164 25.0925C68.3591 25.0925 67.678 24.4143 67.678 23.6128Z" fill="#D62340"/>
<path d="M74.1796 23.6128C74.1796 22.7497 74.8607 22.1332 75.6656 22.1332C76.5325 22.1332 77.1517 22.8114 77.1517 23.6128C77.1517 24.476 76.4706 25.0925 75.6656 25.0925C74.8607 25.0925 74.1796 24.4143 74.1796 23.6128Z" fill="#D62340"/>
<path d="M80.6811 23.6128C80.6811 22.7497 81.3622 22.1332 82.1672 22.1332C83.034 22.1332 83.6532 22.8114 83.6532 23.6128C83.6532 24.476 82.9721 25.0925 82.1672 25.0925C81.3622 25.0925 80.6811 24.4143 80.6811 23.6128Z" fill="#D62340"/>
<path d="M87.1207 23.6128C87.1207 22.7497 87.8018 22.1332 88.6068 22.1332C89.4737 22.1332 90.0929 22.8114 90.0929 23.6128C90.0929 24.476 89.4118 25.0925 88.6068 25.0925C87.8018 25.0925 87.1207 24.4143 87.1207 23.6128Z" fill="#D62340"/>
<path d="M61.1765 18.0641C61.1765 17.201 61.8576 16.5845 62.6625 16.5845C63.4675 16.5845 64.1486 17.2626 64.1486 18.0641C64.1486 18.9273 63.4675 19.5438 62.6625 19.5438C61.8576 19.5438 61.1765 18.9273 61.1765 18.0641Z" fill="#D62340"/>
<path d="M67.678 18.0641C67.678 17.201 68.3591 16.5845 69.164 16.5845C70.0309 16.5845 70.6501 17.2626 70.6501 18.0641C70.6501 18.9273 69.969 19.5438 69.164 19.5438C68.3591 19.6054 67.678 18.9273 67.678 18.0641Z" fill="#D62340"/>
<path d="M74.1796 18.0641C74.1796 17.201 74.8607 16.5845 75.6656 16.5845C76.5325 16.5845 77.1517 17.2626 77.1517 18.0641C77.1517 18.9273 76.4706 19.5438 75.6656 19.5438C74.8607 19.6054 74.1796 18.9273 74.1796 18.0641Z" fill="#D62340"/>
<path d="M80.6811 18.0641C80.6811 17.201 81.3622 16.5845 82.1672 16.5845C83.034 16.5845 83.6532 17.2626 83.6532 18.0641C83.6532 18.9273 82.9721 19.5438 82.1672 19.5438C81.3622 19.6054 80.6811 18.9273 80.6811 18.0641Z" fill="#D62340"/>
<path d="M87.1207 18.0641C87.1207 17.201 87.8018 16.5845 88.6068 16.5845C89.4737 16.5845 90.0929 17.2626 90.0929 18.0641C90.0929 18.9273 89.4118 19.5438 88.6068 19.5438C87.8018 19.6054 87.1207 18.9273 87.1207 18.0641Z" fill="#D62340"/>
<path d="M61.1765 12.5771C61.1765 11.7139 61.8576 11.0974 62.6625 11.0974C63.4675 11.0974 64.1486 11.7756 64.1486 12.5771C64.1486 13.4402 63.4675 14.0567 62.6625 14.0567C61.8576 14.0567 61.1765 13.3785 61.1765 12.5771Z" fill="#D62340"/>
<path d="M67.678 12.5771C67.678 11.7139 68.3591 11.0974 69.164 11.0974C70.0309 11.0974 70.6501 11.7756 70.6501 12.5771C70.6501 13.4402 69.969 14.0567 69.164 14.0567C68.3591 14.0567 67.678 13.3785 67.678 12.5771Z" fill="#D62340"/>
<path d="M74.1796 12.5771C74.1796 11.7139 74.8607 11.0974 75.6656 11.0974C76.5325 11.0974 77.1517 11.7756 77.1517 12.5771C77.1517 13.4402 76.4706 14.0567 75.6656 14.0567C74.8607 14.0567 74.1796 13.3785 74.1796 12.5771Z" fill="#D62340"/>
<path d="M80.6811 12.5771C80.6811 11.7139 81.3622 11.0974 82.1672 11.0974C83.034 11.0974 83.6532 11.7756 83.6532 12.5771C83.6532 13.4402 82.9721 14.0567 82.1672 14.0567C81.3622 14.0567 80.6811 13.3785 80.6811 12.5771Z" fill="#D62340"/>
<path d="M87.1207 12.5771C87.1207 11.7139 87.8018 11.0974 88.6068 11.0974C89.4737 11.0974 90.0929 11.7756 90.0929 12.5771C90.0929 13.4402 89.4118 14.0567 88.6068 14.0567C87.8018 14.0567 87.1207 13.3785 87.1207 12.5771Z" fill="#D62340"/>
<path d="M61.1765 7.02836C61.1765 6.16523 61.8576 5.54871 62.6625 5.54871C63.4675 5.54871 64.1486 6.22688 64.1486 7.02836C64.1486 7.89149 63.4675 8.50802 62.6625 8.50802C61.8576 8.50802 61.1765 7.89149 61.1765 7.02836Z" fill="#D62340"/>
<path d="M67.678 7.02836C67.678 6.16523 68.3591 5.54871 69.164 5.54871C70.0309 5.54871 70.6501 6.22688 70.6501 7.02836C70.6501 7.89149 69.969 8.50802 69.164 8.50802C68.3591 8.56967 67.678 7.89149 67.678 7.02836Z" fill="#D62340"/>
<path d="M74.1796 7.02836C74.1796 6.16523 74.8607 5.54871 75.6656 5.54871C76.5325 5.54871 77.1517 6.22688 77.1517 7.02836C77.1517 7.89149 76.4706 8.50802 75.6656 8.50802C74.8607 8.56967 74.1796 7.89149 74.1796 7.02836Z" fill="#D62340"/>
<path d="M80.6811 7.02836C80.6811 6.16523 81.3622 5.54871 82.1672 5.54871C83.034 5.54871 83.6532 6.22688 83.6532 7.02836C83.6532 7.89149 82.9721 8.50802 82.1672 8.50802C81.3622 8.56967 80.6811 7.89149 80.6811 7.02836Z" fill="#D62340"/>
<path d="M87.1207 7.02836C87.1207 6.16523 87.8018 5.54871 88.6068 5.54871C89.4737 5.54871 90.0929 6.22688 90.0929 7.02836C90.0929 7.89149 89.4118 8.50802 88.6068 8.50802C87.8018 8.56967 87.1207 7.89149 87.1207 7.02836Z" fill="#D62340"/>
<path d="M61.1765 1.47966C61.1765 0.616523 61.8576 0 62.6625 0C63.4675 0 64.1486 0.678175 64.1486 1.47966C64.1486 2.34279 63.4675 2.95931 62.6625 2.95931C61.8576 2.95931 61.1765 2.34279 61.1765 1.47966Z" fill="#D62340"/>
<path d="M67.678 1.47966C67.678 0.616523 68.3591 0 69.164 0C70.0309 0 70.6501 0.678175 70.6501 1.47966C70.6501 2.34279 69.969 2.95931 69.164 2.95931C68.3591 3.02096 67.678 2.34279 67.678 1.47966Z" fill="#D62340"/>
<path d="M74.1796 1.47966C74.1796 0.616523 74.8607 0 75.6656 0C76.5325 0 77.1517 0.678175 77.1517 1.47966C77.1517 2.34279 76.4706 2.95931 75.6656 2.95931C74.8607 3.02096 74.1796 2.34279 74.1796 1.47966Z" fill="#D62340"/>
<path d="M80.6811 1.47966C80.6811 0.616523 81.3622 0 82.1672 0C83.034 0 83.6532 0.678175 83.6532 1.47966C83.6532 2.34279 82.9721 2.95931 82.1672 2.95931C81.3622 3.02096 80.6811 2.34279 80.6811 1.47966Z" fill="#D62340"/>
<path d="M87.1207 1.47966C87.1207 0.616523 87.8018 0 88.6068 0C89.4737 0 90.0929 0.678175 90.0929 1.47966C90.0929 2.34279 89.4118 2.95931 88.6068 2.95931C87.8018 3.02096 87.1207 2.34279 87.1207 1.47966Z" fill="#D62340"/>
<path d="M30.774 75.3391L30.774 61.529L16.904 61.529H0C0 78.4217 13.7461 92.1702 30.774 92.1702V75.3391Z" fill="#2E2E2E"/>
<path d="M100.062 44.5746H91.0836V61.4057H100.062V44.5746Z" fill="#D62340"/>
<path d="M47.678 92.1702H30.774V100H47.678V92.1702Z" fill="#D62340"/>
</g>
<path d="M72 95.2C72 81.2824 83.2824 70 97.2 70H300V74.7826C300 88.7098 288.71 100 274.783 100H72V95.2Z" fill="#D62340"/>
<path d="M173.8 92H170.38L164.66 83.34V92H161.24V77.96H164.66L170.38 86.66V77.96H173.8V92ZM179.639 77.96V86.36C179.639 87.2 179.846 87.8467 180.259 88.3C180.672 88.7533 181.279 88.98 182.079 88.98C182.879 88.98 183.492 88.7533 183.919 88.3C184.346 87.8467 184.559 87.2 184.559 86.36V77.96H187.979V86.34C187.979 87.5933 187.712 88.6533 187.179 89.52C186.646 90.3867 185.926 91.04 185.019 91.48C184.126 91.92 183.126 92.14 182.019 92.14C180.912 92.14 179.919 91.9267 179.039 91.5C178.172 91.06 177.486 90.4067 176.979 89.54C176.472 88.66 176.219 87.5933 176.219 86.34V77.96H179.639ZM198.981 92L196.121 87.7L193.601 92H189.721L194.221 84.86L189.621 77.96H193.601L196.421 82.2L198.901 77.96H202.781L198.321 85.04L202.961 92H198.981ZM204.097 84.96C204.097 83.5733 204.398 82.34 204.998 81.26C205.598 80.1667 206.431 79.32 207.498 78.72C208.578 78.1067 209.798 77.8 211.158 77.8C212.824 77.8 214.251 78.24 215.438 79.12C216.624 80 217.418 81.2 217.818 82.72H214.058C213.778 82.1333 213.378 81.6867 212.858 81.38C212.351 81.0733 211.771 80.92 211.118 80.92C210.064 80.92 209.211 81.2867 208.558 82.02C207.904 82.7533 207.578 83.7333 207.578 84.96C207.578 86.1867 207.904 87.1667 208.558 87.9C209.211 88.6333 210.064 89 211.118 89C211.771 89 212.351 88.8467 212.858 88.54C213.378 88.2333 213.778 87.7867 214.058 87.2H217.818C217.418 88.72 216.624 89.92 215.438 90.8C214.251 91.6667 212.824 92.1 211.158 92.1C209.798 92.1 208.578 91.8 207.498 91.2C206.431 90.5867 205.598 89.74 204.998 88.66C204.398 87.58 204.097 86.3467 204.097 84.96Z" fill="white"/>
<defs>
<clipPath id="clip0_385_757">
<rect width="100" height="100" fill="white"/>
</clipPath>
</defs>
</svg>
