<svg width="277" height="138" viewBox="0 0 277 138" fill="none" xmlns="http://www.w3.org/2000/svg">
<g clip-path="url(#clip0_223_437)">
<path d="M138 0C107.072 0 82 25.072 82 56C82 86.928 107.072 112 138 112C168.928 112 194 86.928 194 56C194 25.072 168.928 0 138 0ZM109.063 30.2285H166.937V68.1065H109.063V30.2285ZM116.241 37.1329V61.209H159.759V37.1329H116.241ZM101.811 71.5518H174.189V77.957L170.512 81.7715H105.488L101.811 77.957V71.5518ZM131.287 73.6504V79.4541H144.713V73.6504H131.287Z" fill="#2E2E2E"/>
</g>
<rect y="96" width="277" height="42" rx="21" fill="#D62340"/>
<path d="M46.5643 108.96V123H43.1443V108.96H46.5643ZM55.8427 111.72C57.1494 111.72 58.1894 112.147 58.9627 113C59.7494 113.84 60.1427 115 60.1427 116.48V123H56.7427V116.94C56.7427 116.193 56.5494 115.613 56.1627 115.2C55.7761 114.787 55.2561 114.58 54.6027 114.58C53.9494 114.58 53.4294 114.787 53.0427 115.2C52.6561 115.613 52.4627 116.193 52.4627 116.94V123H49.0427V111.84H52.4627V113.32C52.8094 112.827 53.2761 112.44 53.8627 112.16C54.4494 111.867 55.1094 111.72 55.8427 111.72ZM68.7393 120.1V123H66.9993C65.7593 123 64.7926 122.7 64.0993 122.1C63.406 121.487 63.0593 120.493 63.0593 119.12V114.68H61.6993V111.84H63.0593V109.12H66.4793V111.84H68.7193V114.68H66.4793V119.16C66.4793 119.493 66.5593 119.733 66.7193 119.88C66.8793 120.027 67.146 120.1 67.5193 120.1H68.7393ZM81.1643 117.24C81.1643 117.56 81.1443 117.893 81.1043 118.24H73.3643C73.4176 118.933 73.6376 119.467 74.0243 119.84C74.4243 120.2 74.911 120.38 75.4843 120.38C76.3376 120.38 76.931 120.02 77.2643 119.3H80.9043C80.7176 120.033 80.3776 120.693 79.8843 121.28C79.4043 121.867 78.7976 122.327 78.0643 122.66C77.331 122.993 76.511 123.16 75.6043 123.16C74.511 123.16 73.5376 122.927 72.6843 122.46C71.831 121.993 71.1643 121.327 70.6843 120.46C70.2043 119.593 69.9643 118.58 69.9643 117.42C69.9643 116.26 70.1976 115.247 70.6643 114.38C71.1443 113.513 71.811 112.847 72.6643 112.38C73.5176 111.913 74.4976 111.68 75.6043 111.68C76.6843 111.68 77.6443 111.907 78.4843 112.36C79.3243 112.813 79.9776 113.46 80.4443 114.3C80.9243 115.14 81.1643 116.12 81.1643 117.24ZM77.6643 116.34C77.6643 115.753 77.4643 115.287 77.0643 114.94C76.6643 114.593 76.1643 114.42 75.5643 114.42C74.991 114.42 74.5043 114.587 74.1043 114.92C73.7176 115.253 73.4776 115.727 73.3843 116.34H77.6643ZM86.3885 113.7C86.7885 113.087 87.2885 112.607 87.8885 112.26C88.4885 111.9 89.1552 111.72 89.8885 111.72V115.34H88.9485C88.0952 115.34 87.4552 115.527 87.0285 115.9C86.6018 116.26 86.3885 116.9 86.3885 117.82V123H82.9685V111.84H86.3885V113.7ZM98.3232 111.72C99.6299 111.72 100.67 112.147 101.443 113C102.23 113.84 102.623 115 102.623 116.48V123H99.2232V116.94C99.2232 116.193 99.0299 115.613 98.6432 115.2C98.2565 114.787 97.7365 114.58 97.0832 114.58C96.4299 114.58 95.9099 114.787 95.5232 115.2C95.1365 115.613 94.9432 116.193 94.9432 116.94V123H91.5232V111.84H94.9432V113.32C95.2899 112.827 95.7565 112.44 96.3432 112.16C96.9299 111.867 97.5899 111.72 98.3232 111.72ZM104.32 117.4C104.32 116.253 104.533 115.247 104.96 114.38C105.4 113.513 105.993 112.847 106.74 112.38C107.486 111.913 108.32 111.68 109.24 111.68C110.026 111.68 110.713 111.84 111.3 112.16C111.9 112.48 112.36 112.9 112.68 113.42V111.84H116.1V123H112.68V121.42C112.346 121.94 111.88 122.36 111.28 122.68C110.693 123 110.006 123.16 109.22 123.16C108.313 123.16 107.486 122.927 106.74 122.46C105.993 121.98 105.4 121.307 104.96 120.44C104.533 119.56 104.32 118.547 104.32 117.4ZM112.68 117.42C112.68 116.567 112.44 115.893 111.96 115.4C111.493 114.907 110.92 114.66 110.24 114.66C109.56 114.66 108.98 114.907 108.5 115.4C108.033 115.88 107.8 116.547 107.8 117.4C107.8 118.253 108.033 118.933 108.5 119.44C108.98 119.933 109.56 120.18 110.24 120.18C110.92 120.18 111.493 119.933 111.96 119.44C112.44 118.947 112.68 118.273 112.68 117.42ZM121.994 108.2V123H118.574V108.2H121.994ZM148.031 108.96L144.371 123H140.231L137.991 113.76L135.671 123H131.531L127.971 108.96H131.631L133.651 119.18L136.151 108.96H139.911L142.311 119.18L144.351 108.96H148.031ZM154.826 123.16C153.733 123.16 152.746 122.927 151.866 122.46C150.999 121.993 150.313 121.327 149.806 120.46C149.313 119.593 149.066 118.58 149.066 117.42C149.066 116.273 149.319 115.267 149.826 114.4C150.333 113.52 151.026 112.847 151.906 112.38C152.786 111.913 153.773 111.68 154.866 111.68C155.959 111.68 156.946 111.913 157.826 112.38C158.706 112.847 159.399 113.52 159.906 114.4C160.413 115.267 160.666 116.273 160.666 117.42C160.666 118.567 160.406 119.58 159.886 120.46C159.379 121.327 158.679 121.993 157.786 122.46C156.906 122.927 155.919 123.16 154.826 123.16ZM154.826 120.2C155.479 120.2 156.033 119.96 156.486 119.48C156.953 119 157.186 118.313 157.186 117.42C157.186 116.527 156.959 115.84 156.506 115.36C156.066 114.88 155.519 114.64 154.866 114.64C154.199 114.64 153.646 114.88 153.206 115.36C152.766 115.827 152.546 116.513 152.546 117.42C152.546 118.313 152.759 119 153.186 119.48C153.626 119.96 154.173 120.2 154.826 120.2ZM165.9 113.7C166.3 113.087 166.8 112.607 167.4 112.26C168 111.9 168.667 111.72 169.4 111.72V115.34H168.46C167.607 115.34 166.967 115.527 166.54 115.9C166.114 116.26 165.9 116.9 165.9 117.82V123H162.48V111.84H165.9V113.7ZM177.855 123L174.455 118.32V123H171.035V108.2H174.455V116.38L177.835 111.84H182.055L177.415 117.44L182.095 123H177.855ZM187.938 123.16C186.965 123.16 186.098 122.993 185.338 122.66C184.578 122.327 183.978 121.873 183.538 121.3C183.098 120.713 182.852 120.06 182.798 119.34H186.178C186.218 119.727 186.398 120.04 186.718 120.28C187.038 120.52 187.432 120.64 187.898 120.64C188.325 120.64 188.652 120.56 188.878 120.4C189.118 120.227 189.238 120.007 189.238 119.74C189.238 119.42 189.072 119.187 188.738 119.04C188.405 118.88 187.865 118.707 187.118 118.52C186.318 118.333 185.652 118.14 185.118 117.94C184.585 117.727 184.125 117.4 183.738 116.96C183.352 116.507 183.158 115.9 183.158 115.14C183.158 114.5 183.332 113.92 183.678 113.4C184.038 112.867 184.558 112.447 185.238 112.14C185.932 111.833 186.752 111.68 187.698 111.68C189.098 111.68 190.198 112.027 190.998 112.72C191.812 113.413 192.278 114.333 192.398 115.48H189.238C189.185 115.093 189.012 114.787 188.718 114.56C188.438 114.333 188.065 114.22 187.598 114.22C187.198 114.22 186.892 114.3 186.678 114.46C186.465 114.607 186.358 114.813 186.358 115.08C186.358 115.4 186.525 115.64 186.858 115.8C187.205 115.96 187.738 116.12 188.458 116.28C189.285 116.493 189.958 116.707 190.478 116.92C190.998 117.12 191.452 117.453 191.838 117.92C192.238 118.373 192.445 118.987 192.458 119.76C192.458 120.413 192.272 121 191.898 121.52C191.538 122.027 191.012 122.427 190.318 122.72C189.638 123.013 188.845 123.16 187.938 123.16ZM201.411 111.72C202.691 111.72 203.717 112.147 204.491 113C205.264 113.84 205.651 115 205.651 116.48V123H202.251V116.94C202.251 116.193 202.057 115.613 201.671 115.2C201.284 114.787 200.764 114.58 200.111 114.58C199.457 114.58 198.937 114.787 198.551 115.2C198.164 115.613 197.971 116.193 197.971 116.94V123H194.551V108.2H197.971V113.34C198.317 112.847 198.791 112.453 199.391 112.16C199.991 111.867 200.664 111.72 201.411 111.72ZM213.107 123.16C212.014 123.16 211.027 122.927 210.147 122.46C209.28 121.993 208.594 121.327 208.087 120.46C207.594 119.593 207.347 118.58 207.347 117.42C207.347 116.273 207.6 115.267 208.107 114.4C208.614 113.52 209.307 112.847 210.187 112.38C211.067 111.913 212.054 111.68 213.147 111.68C214.24 111.68 215.227 111.913 216.107 112.38C216.987 112.847 217.68 113.52 218.187 114.4C218.694 115.267 218.947 116.273 218.947 117.42C218.947 118.567 218.687 119.58 218.167 120.46C217.66 121.327 216.96 121.993 216.067 122.46C215.187 122.927 214.2 123.16 213.107 123.16ZM213.107 120.2C213.76 120.2 214.314 119.96 214.767 119.48C215.234 119 215.467 118.313 215.467 117.42C215.467 116.527 215.24 115.84 214.787 115.36C214.347 114.88 213.8 114.64 213.147 114.64C212.48 114.64 211.927 114.88 211.487 115.36C211.047 115.827 210.827 116.513 210.827 117.42C210.827 118.313 211.04 119 211.467 119.48C211.907 119.96 212.454 120.2 213.107 120.2ZM224.181 113.42C224.515 112.9 224.975 112.48 225.561 112.16C226.148 111.84 226.835 111.68 227.621 111.68C228.541 111.68 229.375 111.913 230.121 112.38C230.868 112.847 231.455 113.513 231.881 114.38C232.321 115.247 232.541 116.253 232.541 117.4C232.541 118.547 232.321 119.56 231.881 120.44C231.455 121.307 230.868 121.98 230.121 122.46C229.375 122.927 228.541 123.16 227.621 123.16C226.848 123.16 226.161 123 225.561 122.68C224.975 122.36 224.515 121.947 224.181 121.44V128.32H220.761V111.84H224.181V113.42ZM229.061 117.4C229.061 116.547 228.821 115.88 228.341 115.4C227.875 114.907 227.295 114.66 226.601 114.66C225.921 114.66 225.341 114.907 224.861 115.4C224.395 115.893 224.161 116.567 224.161 117.42C224.161 118.273 224.395 118.947 224.861 119.44C225.341 119.933 225.921 120.18 226.601 120.18C227.281 120.18 227.861 119.933 228.341 119.44C228.821 118.933 229.061 118.253 229.061 117.4Z" fill="#FAFAFA"/>
<defs>
<clipPath id="clip0_223_437">
<rect width="112" height="112" fill="white" transform="translate(82)"/>
</clipPath>
</defs>
</svg>
