<svg width="277" height="138" viewBox="0 0 277 138" fill="none" xmlns="http://www.w3.org/2000/svg">
<circle cx="138" cy="56" r="56" fill="#2E2E2E"/>
<path d="M126.333 55.5C129.56 55.5 132.654 54.2182 134.936 51.9365C137.218 49.6548 138.5 46.5601 138.5 43.3333C138.5 40.1065 137.218 37.0119 134.936 34.7302C132.654 32.4485 129.56 31.1667 126.333 31.1667C123.106 31.1667 120.012 32.4485 117.73 34.7302C115.448 37.0119 114.166 40.1065 114.166 43.3333C114.166 46.5601 115.448 49.6548 117.73 51.9365C120.012 54.2182 123.106 55.5 126.333 55.5V55.5ZM153.708 55.5C156.128 55.5 158.449 54.5386 160.16 52.8273C161.872 51.1161 162.833 48.7951 162.833 46.375C162.833 43.9549 161.872 41.6339 160.16 39.9227C158.449 38.2114 156.128 37.25 153.708 37.25C151.288 37.25 148.967 38.2114 147.256 39.9227C145.544 41.6339 144.583 43.9549 144.583 46.375C144.583 48.7951 145.544 51.1161 147.256 52.8273C148.967 54.5386 151.288 55.5 153.708 55.5ZM115.687 61.5833C111.49 61.5833 108.083 64.99 108.083 69.1875C108.083 69.1875 108.083 82.875 126.333 82.875C140.799 82.875 143.798 74.2732 144.419 70.7083C144.583 69.7776 144.583 69.1875 144.583 69.1875C144.583 64.99 141.176 61.5833 136.979 61.5833H115.687ZM150.642 71.3167C150.572 72.4195 150.388 73.5121 150.095 74.5773C149.711 75.9339 149.079 77.5582 148.014 79.2311C149.881 79.6493 151.789 79.8514 153.702 79.8333C168.91 79.8333 168.91 69.1875 168.91 69.1875C168.91 64.99 165.504 61.5833 161.306 61.5833H148.355C149.815 63.7612 150.66 66.3709 150.66 69.1875V70.7083L150.642 71.3167Z" fill="white"/>
<rect y="96" width="277" height="42" rx="21" fill="#D62340"/>
<path d="M41.2225 111.7V114.54H45.8025V117.18H41.2225V120.26H46.4025V123H37.8025V108.96H46.4025V111.7H41.2225ZM55.4228 111.72C56.7295 111.72 57.7695 112.147 58.5428 113C59.3295 113.84 59.7228 115 59.7228 116.48V123H56.3228V116.94C56.3228 116.193 56.1295 115.613 55.7428 115.2C55.3561 114.787 54.8361 114.58 54.1828 114.58C53.5295 114.58 53.0095 114.787 52.6228 115.2C52.2361 115.613 52.0428 116.193 52.0428 116.94V123H48.6228V111.84H52.0428V113.32C52.3895 112.827 52.8561 112.44 53.4428 112.16C54.0295 111.867 54.6895 111.72 55.4228 111.72ZM65.5194 108.2V123H62.0994V108.2H65.5194ZM67.3178 117.4C67.3178 116.253 67.5311 115.247 67.9578 114.38C68.3978 113.513 68.9911 112.847 69.7378 112.38C70.4845 111.913 71.3178 111.68 72.2378 111.68C73.0245 111.68 73.7111 111.84 74.2978 112.16C74.8978 112.48 75.3578 112.9 75.6778 113.42V111.84H79.0978V123H75.6778V121.42C75.3445 121.94 74.8778 122.36 74.2778 122.68C73.6911 123 73.0045 123.16 72.2178 123.16C71.3111 123.16 70.4845 122.927 69.7378 122.46C68.9911 121.98 68.3978 121.307 67.9578 120.44C67.5311 119.56 67.3178 118.547 67.3178 117.4ZM75.6778 117.42C75.6778 116.567 75.4378 115.893 74.9578 115.4C74.4911 114.907 73.9178 114.66 73.2378 114.66C72.5578 114.66 71.9778 114.907 71.4978 115.4C71.0311 115.88 70.7978 116.547 70.7978 117.4C70.7978 118.253 71.0311 118.933 71.4978 119.44C71.9778 119.933 72.5578 120.18 73.2378 120.18C73.9178 120.18 74.4911 119.933 74.9578 119.44C75.4378 118.947 75.6778 118.273 75.6778 117.42ZM84.992 113.7C85.392 113.087 85.892 112.607 86.492 112.26C87.092 111.9 87.7587 111.72 88.492 111.72V115.34H87.552C86.6987 115.34 86.0587 115.527 85.632 115.9C85.2054 116.26 84.992 116.9 84.992 117.82V123H81.572V111.84H84.992V113.7ZM94.3667 111.68C95.1534 111.68 95.8401 111.84 96.4267 112.16C97.0267 112.48 97.4867 112.9 97.8067 113.42V111.84H101.227V122.98C101.227 124.007 101.02 124.933 100.607 125.76C100.207 126.6 99.5867 127.267 98.7467 127.76C97.9201 128.253 96.8867 128.5 95.6467 128.5C93.9934 128.5 92.6534 128.107 91.6267 127.32C90.6001 126.547 90.0134 125.493 89.8667 124.16H93.2467C93.3534 124.587 93.6067 124.92 94.0067 125.16C94.4067 125.413 94.9001 125.54 95.4867 125.54C96.1934 125.54 96.7534 125.333 97.1667 124.92C97.5934 124.52 97.8067 123.873 97.8067 122.98V121.4C97.4734 121.92 97.0134 122.347 96.4267 122.68C95.8401 123 95.1534 123.16 94.3667 123.16C93.4467 123.16 92.6134 122.927 91.8667 122.46C91.1201 121.98 90.5267 121.307 90.0867 120.44C89.6601 119.56 89.4467 118.547 89.4467 117.4C89.4467 116.253 89.6601 115.247 90.0867 114.38C90.5267 113.513 91.1201 112.847 91.8667 112.38C92.6134 111.913 93.4467 111.68 94.3667 111.68ZM97.8067 117.42C97.8067 116.567 97.5667 115.893 97.0867 115.4C96.6201 114.907 96.0467 114.66 95.3667 114.66C94.6867 114.66 94.1067 114.907 93.6267 115.4C93.1601 115.88 92.9267 116.547 92.9267 117.4C92.9267 118.253 93.1601 118.933 93.6267 119.44C94.1067 119.933 94.6867 120.18 95.3667 120.18C96.0467 120.18 96.6201 119.933 97.0867 119.44C97.5667 118.947 97.8067 118.273 97.8067 117.42ZM114.221 117.24C114.221 117.56 114.201 117.893 114.161 118.24H106.421C106.474 118.933 106.694 119.467 107.081 119.84C107.481 120.2 107.968 120.38 108.541 120.38C109.394 120.38 109.988 120.02 110.321 119.3H113.961C113.774 120.033 113.434 120.693 112.941 121.28C112.461 121.867 111.854 122.327 111.121 122.66C110.388 122.993 109.568 123.16 108.661 123.16C107.568 123.16 106.594 122.927 105.741 122.46C104.888 121.993 104.221 121.327 103.741 120.46C103.261 119.593 103.021 118.58 103.021 117.42C103.021 116.26 103.254 115.247 103.721 114.38C104.201 113.513 104.868 112.847 105.721 112.38C106.574 111.913 107.554 111.68 108.661 111.68C109.741 111.68 110.701 111.907 111.541 112.36C112.381 112.813 113.034 113.46 113.501 114.3C113.981 115.14 114.221 116.12 114.221 117.24ZM110.721 116.34C110.721 115.753 110.521 115.287 110.121 114.94C109.721 114.593 109.221 114.42 108.621 114.42C108.048 114.42 107.561 114.587 107.161 114.92C106.774 115.253 106.534 115.727 106.441 116.34H110.721ZM132.823 123H129.403L123.683 114.34V123H120.263V108.96H123.683L129.403 117.66V108.96H132.823V123ZM145.822 117.24C145.822 117.56 145.803 117.893 145.763 118.24H138.023C138.076 118.933 138.296 119.467 138.683 119.84C139.083 120.2 139.569 120.38 140.143 120.38C140.996 120.38 141.589 120.02 141.923 119.3H145.563C145.376 120.033 145.036 120.693 144.543 121.28C144.063 121.867 143.456 122.327 142.723 122.66C141.989 122.993 141.169 123.16 140.263 123.16C139.169 123.16 138.196 122.927 137.343 122.46C136.489 121.993 135.823 121.327 135.343 120.46C134.863 119.593 134.623 118.58 134.623 117.42C134.623 116.26 134.856 115.247 135.323 114.38C135.803 113.513 136.469 112.847 137.323 112.38C138.176 111.913 139.156 111.68 140.263 111.68C141.343 111.68 142.303 111.907 143.143 112.36C143.983 112.813 144.636 113.46 145.103 114.3C145.583 115.14 145.822 116.12 145.822 117.24ZM142.323 116.34C142.323 115.753 142.123 115.287 141.723 114.94C141.323 114.593 140.823 114.42 140.223 114.42C139.649 114.42 139.163 114.587 138.763 114.92C138.376 115.253 138.136 115.727 138.043 116.34H142.323ZM153.847 120.1V123H152.107C150.867 123 149.9 122.7 149.207 122.1C148.513 121.487 148.167 120.493 148.167 119.12V114.68H146.807V111.84H148.167V109.12H151.587V111.84H153.827V114.68H151.587V119.16C151.587 119.493 151.667 119.733 151.827 119.88C151.987 120.027 152.253 120.1 152.627 120.1H153.847ZM171.772 111.84L168.752 123H164.972L163.212 115.76L161.392 123H157.632L154.592 111.84H158.012L159.592 119.82L161.472 111.84H165.092L166.992 119.78L168.552 111.84H171.772ZM178.156 123.16C177.063 123.16 176.076 122.927 175.196 122.46C174.329 121.993 173.643 121.327 173.136 120.46C172.643 119.593 172.396 118.58 172.396 117.42C172.396 116.273 172.649 115.267 173.156 114.4C173.663 113.52 174.356 112.847 175.236 112.38C176.116 111.913 177.103 111.68 178.196 111.68C179.289 111.68 180.276 111.913 181.156 112.38C182.036 112.847 182.729 113.52 183.236 114.4C183.743 115.267 183.996 116.273 183.996 117.42C183.996 118.567 183.736 119.58 183.216 120.46C182.709 121.327 182.009 121.993 181.116 122.46C180.236 122.927 179.249 123.16 178.156 123.16ZM178.156 120.2C178.809 120.2 179.363 119.96 179.816 119.48C180.283 119 180.516 118.313 180.516 117.42C180.516 116.527 180.289 115.84 179.836 115.36C179.396 114.88 178.849 114.64 178.196 114.64C177.529 114.64 176.976 114.88 176.536 115.36C176.096 115.827 175.876 116.513 175.876 117.42C175.876 118.313 176.089 119 176.516 119.48C176.956 119.96 177.503 120.2 178.156 120.2ZM189.23 113.7C189.63 113.087 190.13 112.607 190.73 112.26C191.33 111.9 191.997 111.72 192.73 111.72V115.34H191.79C190.937 115.34 190.297 115.527 189.87 115.9C189.444 116.26 189.23 116.9 189.23 117.82V123H185.81V111.84H189.23V113.7ZM201.185 123L197.785 118.32V123H194.365V108.2H197.785V116.38L201.165 111.84H205.385L200.745 117.44L205.425 123H201.185ZM208.448 110.68C207.848 110.68 207.355 110.507 206.968 110.16C206.595 109.8 206.408 109.36 206.408 108.84C206.408 108.307 206.595 107.867 206.968 107.52C207.355 107.16 207.848 106.98 208.448 106.98C209.035 106.98 209.515 107.16 209.888 107.52C210.275 107.867 210.468 108.307 210.468 108.84C210.468 109.36 210.275 109.8 209.888 110.16C209.515 110.507 209.035 110.68 208.448 110.68ZM210.148 111.84V123H206.728V111.84H210.148ZM219.427 111.72C220.733 111.72 221.773 112.147 222.547 113C223.333 113.84 223.727 115 223.727 116.48V123H220.327V116.94C220.327 116.193 220.133 115.613 219.747 115.2C219.36 114.787 218.84 114.58 218.187 114.58C217.533 114.58 217.013 114.787 216.627 115.2C216.24 115.613 216.047 116.193 216.047 116.94V123H212.627V111.84H216.047V113.32C216.393 112.827 216.86 112.44 217.447 112.16C218.033 111.867 218.693 111.72 219.427 111.72ZM230.343 111.68C231.13 111.68 231.817 111.84 232.403 112.16C233.003 112.48 233.463 112.9 233.783 113.42V111.84H237.203V122.98C237.203 124.007 236.997 124.933 236.583 125.76C236.183 126.6 235.563 127.267 234.723 127.76C233.897 128.253 232.863 128.5 231.623 128.5C229.97 128.5 228.63 128.107 227.603 127.32C226.577 126.547 225.99 125.493 225.843 124.16H229.223C229.33 124.587 229.583 124.92 229.983 125.16C230.383 125.413 230.877 125.54 231.463 125.54C232.17 125.54 232.73 125.333 233.143 124.92C233.57 124.52 233.783 123.873 233.783 122.98V121.4C233.45 121.92 232.99 122.347 232.403 122.68C231.817 123 231.13 123.16 230.343 123.16C229.423 123.16 228.59 122.927 227.843 122.46C227.097 121.98 226.503 121.307 226.063 120.44C225.637 119.56 225.423 118.547 225.423 117.4C225.423 116.253 225.637 115.247 226.063 114.38C226.503 113.513 227.097 112.847 227.843 112.38C228.59 111.913 229.423 111.68 230.343 111.68ZM233.783 117.42C233.783 116.567 233.543 115.893 233.063 115.4C232.597 114.907 232.023 114.66 231.343 114.66C230.663 114.66 230.083 114.907 229.603 115.4C229.137 115.88 228.903 116.547 228.903 117.4C228.903 118.253 229.137 118.933 229.603 119.44C230.083 119.933 230.663 120.18 231.343 120.18C232.023 120.18 232.597 119.933 233.063 119.44C233.543 118.947 233.783 118.273 233.783 117.42Z" fill="#FAFAFA"/>
</svg>
