<svg width="277" height="138" viewBox="0 0 277 138" fill="none" xmlns="http://www.w3.org/2000/svg">
<circle cx="140" cy="56" r="56" fill="#2E2E2E"/>
<rect y="96" width="277" height="42" rx="21" fill="#D62340"/>
<path d="M67.4041 108.96V123H63.9841V108.96H67.4041ZM76.6826 111.72C77.9892 111.72 79.0292 112.147 79.8026 113C80.5892 113.84 80.9826 115 80.9826 116.48V123H77.5826V116.94C77.5826 116.193 77.3892 115.613 77.0026 115.2C76.6159 114.787 76.0959 114.58 75.4426 114.58C74.7892 114.58 74.2692 114.787 73.8826 115.2C73.4959 115.613 73.3026 116.193 73.3026 116.94V123H69.8826V111.84H73.3026V113.32C73.6492 112.827 74.1159 112.44 74.7026 112.16C75.2892 111.867 75.9492 111.72 76.6826 111.72ZM89.5791 120.1V123H87.8391C86.5991 123 85.6325 122.7 84.9391 122.1C84.2458 121.487 83.8991 120.493 83.8991 119.12V114.68H82.5391V111.84H83.8991V109.12H87.3191V111.84H89.5591V114.68H87.3191V119.16C87.3191 119.493 87.3991 119.733 87.5591 119.88C87.7191 120.027 87.9858 120.1 88.3591 120.1H89.5791ZM102.004 117.24C102.004 117.56 101.984 117.893 101.944 118.24H94.2041C94.2575 118.933 94.4775 119.467 94.8641 119.84C95.2641 120.2 95.7508 120.38 96.3241 120.38C97.1775 120.38 97.7708 120.02 98.1041 119.3H101.744C101.557 120.033 101.217 120.693 100.724 121.28C100.244 121.867 99.6375 122.327 98.9041 122.66C98.1708 122.993 97.3508 123.16 96.4441 123.16C95.3508 123.16 94.3775 122.927 93.5241 122.46C92.6708 121.993 92.0041 121.327 91.5241 120.46C91.0441 119.593 90.8041 118.58 90.8041 117.42C90.8041 116.26 91.0375 115.247 91.5041 114.38C91.9841 113.513 92.6508 112.847 93.5041 112.38C94.3575 111.913 95.3375 111.68 96.4441 111.68C97.5241 111.68 98.4841 111.907 99.3241 112.36C100.164 112.813 100.817 113.46 101.284 114.3C101.764 115.14 102.004 116.12 102.004 117.24ZM98.5041 116.34C98.5041 115.753 98.3041 115.287 97.9041 114.94C97.5041 114.593 97.0041 114.42 96.4041 114.42C95.8308 114.42 95.3441 114.587 94.9441 114.92C94.5575 115.253 94.3175 115.727 94.2241 116.34H98.5041ZM107.228 113.7C107.628 113.087 108.128 112.607 108.728 112.26C109.328 111.9 109.995 111.72 110.728 111.72V115.34H109.788C108.935 115.34 108.295 115.527 107.868 115.9C107.442 116.26 107.228 116.9 107.228 117.82V123H103.808V111.84H107.228V113.7ZM119.163 111.72C120.47 111.72 121.51 112.147 122.283 113C123.07 113.84 123.463 115 123.463 116.48V123H120.063V116.94C120.063 116.193 119.87 115.613 119.483 115.2C119.096 114.787 118.576 114.58 117.923 114.58C117.27 114.58 116.75 114.787 116.363 115.2C115.976 115.613 115.783 116.193 115.783 116.94V123H112.363V111.84H115.783V113.32C116.13 112.827 116.596 112.44 117.183 112.16C117.77 111.867 118.43 111.72 119.163 111.72ZM130.38 123.16C129.406 123.16 128.54 122.993 127.78 122.66C127.02 122.327 126.42 121.873 125.98 121.3C125.54 120.713 125.293 120.06 125.24 119.34H128.62C128.66 119.727 128.84 120.04 129.16 120.28C129.48 120.52 129.873 120.64 130.34 120.64C130.766 120.64 131.093 120.56 131.32 120.4C131.56 120.227 131.68 120.007 131.68 119.74C131.68 119.42 131.513 119.187 131.18 119.04C130.846 118.88 130.306 118.707 129.56 118.52C128.76 118.333 128.093 118.14 127.56 117.94C127.026 117.727 126.566 117.4 126.18 116.96C125.793 116.507 125.6 115.9 125.6 115.14C125.6 114.5 125.773 113.92 126.12 113.4C126.48 112.867 127 112.447 127.68 112.14C128.373 111.833 129.193 111.68 130.14 111.68C131.54 111.68 132.64 112.027 133.44 112.72C134.253 113.413 134.72 114.333 134.84 115.48H131.68C131.626 115.093 131.453 114.787 131.16 114.56C130.88 114.333 130.506 114.22 130.04 114.22C129.64 114.22 129.333 114.3 129.12 114.46C128.906 114.607 128.8 114.813 128.8 115.08C128.8 115.4 128.966 115.64 129.3 115.8C129.646 115.96 130.18 116.12 130.9 116.28C131.726 116.493 132.4 116.707 132.92 116.92C133.44 117.12 133.893 117.453 134.28 117.92C134.68 118.373 134.886 118.987 134.9 119.76C134.9 120.413 134.713 121 134.34 121.52C133.98 122.027 133.453 122.427 132.76 122.72C132.08 123.013 131.286 123.16 130.38 123.16ZM143.852 111.72C145.132 111.72 146.159 112.147 146.932 113C147.705 113.84 148.092 115 148.092 116.48V123H144.692V116.94C144.692 116.193 144.499 115.613 144.112 115.2C143.725 114.787 143.205 114.58 142.552 114.58C141.899 114.58 141.379 114.787 140.992 115.2C140.605 115.613 140.412 116.193 140.412 116.94V123H136.992V108.2H140.412V113.34C140.759 112.847 141.232 112.453 141.832 112.16C142.432 111.867 143.105 111.72 143.852 111.72ZM152.189 110.68C151.589 110.68 151.095 110.507 150.709 110.16C150.335 109.8 150.149 109.36 150.149 108.84C150.149 108.307 150.335 107.867 150.709 107.52C151.095 107.16 151.589 106.98 152.189 106.98C152.775 106.98 153.255 107.16 153.629 107.52C154.015 107.867 154.209 108.307 154.209 108.84C154.209 109.36 154.015 109.8 153.629 110.16C153.255 110.507 152.775 110.68 152.189 110.68ZM153.889 111.84V123H150.469V111.84H153.889ZM159.787 113.42C160.12 112.9 160.58 112.48 161.167 112.16C161.754 111.84 162.44 111.68 163.227 111.68C164.147 111.68 164.98 111.913 165.727 112.38C166.474 112.847 167.06 113.513 167.487 114.38C167.927 115.247 168.147 116.253 168.147 117.4C168.147 118.547 167.927 119.56 167.487 120.44C167.06 121.307 166.474 121.98 165.727 122.46C164.98 122.927 164.147 123.16 163.227 123.16C162.454 123.16 161.767 123 161.167 122.68C160.58 122.36 160.12 121.947 159.787 121.44V128.32H156.367V111.84H159.787V113.42ZM164.667 117.4C164.667 116.547 164.427 115.88 163.947 115.4C163.48 114.907 162.9 114.66 162.207 114.66C161.527 114.66 160.947 114.907 160.467 115.4C160 115.893 159.767 116.567 159.767 117.42C159.767 118.273 160 118.947 160.467 119.44C160.947 119.933 161.527 120.18 162.207 120.18C162.887 120.18 163.467 119.933 163.947 119.44C164.427 118.933 164.667 118.253 164.667 117.4ZM177.599 108.96V123H174.179V108.96H177.599ZM186.878 111.72C188.185 111.72 189.225 112.147 189.998 113C190.785 113.84 191.178 115 191.178 116.48V123H187.778V116.94C187.778 116.193 187.585 115.613 187.198 115.2C186.811 114.787 186.291 114.58 185.638 114.58C184.985 114.58 184.465 114.787 184.078 115.2C183.691 115.613 183.498 116.193 183.498 116.94V123H180.078V111.84H183.498V113.32C183.845 112.827 184.311 112.44 184.898 112.16C185.485 111.867 186.145 111.72 186.878 111.72ZM199.154 114.68H197.314V123H193.894V114.68H192.654V111.84H193.894V111.52C193.894 110.147 194.288 109.107 195.074 108.4C195.861 107.68 197.014 107.32 198.534 107.32C198.788 107.32 198.974 107.327 199.094 107.34V110.24C198.441 110.2 197.981 110.293 197.714 110.52C197.448 110.747 197.314 111.153 197.314 111.74V111.84H199.154V114.68ZM205.841 123.16C204.748 123.16 203.761 122.927 202.881 122.46C202.015 121.993 201.328 121.327 200.821 120.46C200.328 119.593 200.081 118.58 200.081 117.42C200.081 116.273 200.335 115.267 200.841 114.4C201.348 113.52 202.041 112.847 202.921 112.38C203.801 111.913 204.788 111.68 205.881 111.68C206.975 111.68 207.961 111.913 208.841 112.38C209.721 112.847 210.415 113.52 210.921 114.4C211.428 115.267 211.681 116.273 211.681 117.42C211.681 118.567 211.421 119.58 210.901 120.46C210.395 121.327 209.695 121.993 208.801 122.46C207.921 122.927 206.935 123.16 205.841 123.16ZM205.841 120.2C206.495 120.2 207.048 119.96 207.501 119.48C207.968 119 208.201 118.313 208.201 117.42C208.201 116.527 207.975 115.84 207.521 115.36C207.081 114.88 206.535 114.64 205.881 114.64C205.215 114.64 204.661 114.88 204.221 115.36C203.781 115.827 203.561 116.513 203.561 117.42C203.561 118.313 203.775 119 204.201 119.48C204.641 119.96 205.188 120.2 205.841 120.2Z" fill="#FAFAFA"/>
<path d="M125.428 68.75C125.428 66.9128 125.867 65.2083 126.745 63.6367C127.623 62.0651 128.841 60.7702 130.4 59.752C129.829 59.0879 129.39 58.3464 129.083 57.5273C128.776 56.7083 128.611 55.8451 128.589 54.9375C128.589 53.9193 128.776 52.9564 129.149 52.0488C129.522 51.1413 130.049 50.3555 130.729 49.6914C131.41 49.0273 132.189 48.4961 133.067 48.0977C133.945 47.6992 134.91 47.5 135.964 47.5C136.974 47.5 137.928 47.6882 138.828 48.0645C139.728 48.4408 140.507 48.972 141.166 49.6582C141.824 50.3444 142.351 51.1413 142.746 52.0488C143.141 52.9564 143.339 53.9193 143.339 54.9375C143.339 55.8229 143.185 56.6751 142.878 57.4941C142.571 58.3132 142.121 59.0658 141.528 59.752C143.086 60.748 144.305 62.0319 145.183 63.6035C146.061 65.1751 146.499 66.8906 146.499 68.75H142.285C142.285 67.8646 142.121 67.0345 141.791 66.2598C141.462 65.485 141.012 64.8099 140.442 64.2344C139.871 63.6589 139.201 63.2051 138.433 62.873C137.665 62.541 136.842 62.375 135.964 62.375C135.086 62.375 134.263 62.541 133.495 62.873C132.726 63.2051 132.057 63.6589 131.486 64.2344C130.916 64.8099 130.466 65.4961 130.136 66.293C129.807 67.0898 129.643 67.9089 129.643 68.75H125.428ZM135.964 51.75C135.086 51.75 134.34 52.0599 133.725 52.6797C133.111 53.2995 132.803 54.0521 132.803 54.9375C132.803 55.8229 133.111 56.5755 133.725 57.1953C134.34 57.8151 135.086 58.125 135.964 58.125C136.864 58.125 137.61 57.8262 138.203 57.2285C138.795 56.6309 139.103 55.8672 139.125 54.9375C139.125 54.0521 138.817 53.2995 138.203 52.6797C137.588 52.0599 136.842 51.75 135.964 51.75ZM121.214 77.25H140.277L136.063 81.5H120.161C119.283 81.5 118.536 81.1901 117.922 80.5703C117.307 79.9505 117 79.1979 117 78.3125V33.6875C117 32.8021 117.307 32.0495 117.922 31.4297C118.536 30.8099 119.283 30.5 120.161 30.5H128.161L123.914 22H128.622L132.869 30.5H138.993L143.207 22H147.915L143.701 30.5H151.767C152.645 30.5 153.391 30.8099 154.006 31.4297C154.621 32.0495 154.928 32.8021 154.928 33.6875V48.6621C154.16 49.0827 153.424 49.5365 152.722 50.0234C152.02 50.5104 151.35 51.0749 150.714 51.7168V34.75H134.976C135.108 35.0378 135.338 35.4805 135.668 36.0781C135.997 36.6758 136.326 37.3066 136.655 37.9707C136.985 38.6348 137.281 39.2546 137.544 39.8301C137.808 40.4056 137.939 40.8372 137.939 41.125C137.939 41.7227 137.731 42.2318 137.314 42.6523C136.897 43.0729 136.403 43.2832 135.832 43.2832C135.437 43.2832 135.075 43.1836 134.746 42.9844C134.417 42.7852 134.153 42.4974 133.956 42.1211L130.268 34.75H121.214V77.25ZM163.356 51.75C165.09 51.75 166.726 52.082 168.262 52.7461C169.798 53.4102 171.137 54.3177 172.279 55.4688C173.42 56.6198 174.331 57.9811 175.011 59.5527C175.692 61.1243 176.021 62.7734 175.999 64.5C175.999 66.2708 175.67 67.9199 175.011 69.4473C174.353 70.9746 173.453 72.3249 172.312 73.498C171.17 74.6712 169.82 75.5898 168.262 76.2539C166.704 76.918 165.068 77.25 163.356 77.25C162.039 77.25 160.766 77.0508 159.537 76.6523C158.308 76.2539 157.145 75.6562 156.047 74.8594L141.66 89.3691C141.243 89.7897 140.749 90 140.178 90C139.607 90 139.114 89.7897 138.697 89.3691C138.28 88.9486 138.071 88.4505 138.071 87.875C138.071 87.2773 138.28 86.7682 138.697 86.3477L153.051 71.8711C152.305 70.7865 151.734 69.6243 151.339 68.3848C150.944 67.1452 150.736 65.8503 150.714 64.5C150.714 62.7513 151.043 61.1022 151.701 59.5527C152.36 58.0033 153.26 56.653 154.401 55.502C155.542 54.3509 156.881 53.4323 158.418 52.7461C159.954 52.0599 161.6 51.7279 163.356 51.75ZM163.356 73C164.52 73 165.606 72.7786 166.616 72.3359C167.625 71.8932 168.525 71.2845 169.315 70.5098C170.106 69.735 170.709 68.8385 171.126 67.8203C171.543 66.8021 171.763 65.6953 171.785 64.5C171.785 63.3268 171.565 62.2311 171.126 61.2129C170.687 60.1947 170.084 59.2871 169.315 58.4902C168.547 57.6934 167.658 57.0846 166.649 56.6641C165.639 56.2435 164.542 56.0221 163.356 56C162.193 56 161.107 56.2214 160.097 56.6641C159.087 57.1068 158.187 57.7155 157.397 58.4902C156.607 59.265 156.003 60.1615 155.586 61.1797C155.169 62.1979 154.95 63.3047 154.928 64.5C154.928 65.6732 155.147 66.7689 155.586 67.7871C156.025 68.8053 156.629 69.7129 157.397 70.5098C158.165 71.3066 159.054 71.9154 160.064 72.3359C161.074 72.7565 162.171 72.9779 163.356 73Z" fill="white"/>
</svg>
