<svg width="583" height="100" viewBox="0 0 583 100" fill="none" xmlns="http://www.w3.org/2000/svg">
<g clip-path="url(#clip0_208_510)">
<path d="M30.727 30.6256H61.501V-0.0155487H30.727V30.6256Z" fill="#D62340"/>
<path d="M77.2136 30.8261L60.3096 30.8261C60.3096 47.7189 74.0557 61.4673 91.0836 61.4673V44.5746C83.4056 44.5746 77.2136 38.4094 77.2136 30.8261Z" fill="#D62340"/>
<path d="M60.3223 99.985H100.013V61.5756H60.3223V99.985Z" fill="#2E2E2E"/>
<path d="M61.4859 78.4217V61.529C44.52 61.529 30.7119 75.2158 30.7119 92.1702H47.6779C47.6779 84.5869 53.8698 78.4217 61.4859 78.4217Z" fill="#D62340"/>
<path d="M-0.0152073 61.4364H30.7588V30.7952H-0.0152073V61.4364Z" fill="#D62340"/>
<path d="M7.66212 53.7914H23.0801V38.44H7.66212V53.7914Z" fill="white"/>
<path d="M44.5825 61.4673H61.4865C61.4865 44.5129 47.7404 30.8261 30.7744 30.8261L30.7744 47.6572C38.3905 47.6572 44.5825 53.8224 44.5825 61.4673Z" fill="#2E2E2E"/>
<path d="M61.1768 29.0999C61.1768 28.2368 61.8579 27.6202 62.6628 27.6202C63.4678 27.6202 64.1489 28.2984 64.1489 29.0999C64.1489 29.963 63.4678 30.5795 62.6628 30.5795C61.8579 30.5795 61.1768 29.963 61.1768 29.0999Z" fill="#D62340"/>
<path d="M67.6787 29.0999C67.6787 28.2368 68.3598 27.6202 69.1648 27.6202C70.0316 27.6202 70.6508 28.2984 70.6508 29.0999C70.6508 29.963 69.9697 30.5795 69.1648 30.5795C68.3598 30.6412 67.6787 29.963 67.6787 29.0999Z" fill="#D62340"/>
<path d="M74.1797 29.0999C74.1797 28.2368 74.8608 27.6202 75.6658 27.6202C76.5326 27.6202 77.1518 28.2984 77.1518 29.0999C77.1518 29.963 76.4707 30.5795 75.6658 30.5795C74.8608 30.6412 74.1797 29.963 74.1797 29.0999Z" fill="#D62340"/>
<path d="M80.6816 29.0999C80.6816 28.2368 81.3628 27.6202 82.1677 27.6202C83.0346 27.6202 83.6538 28.2984 83.6538 29.0999C83.6538 29.963 82.9727 30.5795 82.1677 30.5795C81.3628 30.6412 80.6816 29.963 80.6816 29.0999Z" fill="#D62340"/>
<path d="M87.1211 29.0999C87.1211 28.2368 87.8022 27.6202 88.6072 27.6202C89.474 27.6202 90.0932 28.2984 90.0932 29.0999C90.0932 29.963 89.4121 30.5795 88.6072 30.5795C87.8022 30.6412 87.1211 29.963 87.1211 29.0999Z" fill="#D62340"/>
<path d="M61.1768 23.6128C61.1768 22.7497 61.8579 22.1332 62.6628 22.1332C63.4678 22.1332 64.1489 22.8114 64.1489 23.6128C64.1489 24.476 63.4678 25.0925 62.6628 25.0925C61.8579 25.0925 61.1768 24.4143 61.1768 23.6128Z" fill="#D62340"/>
<path d="M67.6787 23.6128C67.6787 22.7497 68.3598 22.1332 69.1648 22.1332C70.0316 22.1332 70.6508 22.8114 70.6508 23.6128C70.6508 24.476 69.9697 25.0925 69.1648 25.0925C68.3598 25.0925 67.6787 24.4143 67.6787 23.6128Z" fill="#D62340"/>
<path d="M74.1797 23.6128C74.1797 22.7497 74.8608 22.1332 75.6658 22.1332C76.5326 22.1332 77.1518 22.8114 77.1518 23.6128C77.1518 24.476 76.4707 25.0925 75.6658 25.0925C74.8608 25.0925 74.1797 24.4143 74.1797 23.6128Z" fill="#D62340"/>
<path d="M80.6816 23.6128C80.6816 22.7497 81.3628 22.1332 82.1677 22.1332C83.0346 22.1332 83.6538 22.8114 83.6538 23.6128C83.6538 24.476 82.9727 25.0925 82.1677 25.0925C81.3628 25.0925 80.6816 24.4143 80.6816 23.6128Z" fill="#D62340"/>
<path d="M87.1211 23.6128C87.1211 22.7497 87.8022 22.1332 88.6072 22.1332C89.474 22.1332 90.0932 22.8114 90.0932 23.6128C90.0932 24.476 89.4121 25.0925 88.6072 25.0925C87.8022 25.0925 87.1211 24.4143 87.1211 23.6128Z" fill="#D62340"/>
<path d="M61.1768 18.0641C61.1768 17.201 61.8579 16.5845 62.6628 16.5845C63.4678 16.5845 64.1489 17.2626 64.1489 18.0641C64.1489 18.9273 63.4678 19.5438 62.6628 19.5438C61.8579 19.5438 61.1768 18.9273 61.1768 18.0641Z" fill="#D62340"/>
<path d="M67.6787 18.0641C67.6787 17.201 68.3598 16.5845 69.1648 16.5845C70.0316 16.5845 70.6508 17.2626 70.6508 18.0641C70.6508 18.9273 69.9697 19.5438 69.1648 19.5438C68.3598 19.6054 67.6787 18.9273 67.6787 18.0641Z" fill="#D62340"/>
<path d="M74.1797 18.0641C74.1797 17.201 74.8608 16.5845 75.6658 16.5845C76.5326 16.5845 77.1518 17.2626 77.1518 18.0641C77.1518 18.9273 76.4707 19.5438 75.6658 19.5438C74.8608 19.6054 74.1797 18.9273 74.1797 18.0641Z" fill="#D62340"/>
<path d="M80.6816 18.0641C80.6816 17.201 81.3628 16.5845 82.1677 16.5845C83.0346 16.5845 83.6538 17.2626 83.6538 18.0641C83.6538 18.9273 82.9727 19.5438 82.1677 19.5438C81.3628 19.6054 80.6816 18.9273 80.6816 18.0641Z" fill="#D62340"/>
<path d="M87.1211 18.0641C87.1211 17.201 87.8022 16.5845 88.6072 16.5845C89.474 16.5845 90.0932 17.2626 90.0932 18.0641C90.0932 18.9273 89.4121 19.5438 88.6072 19.5438C87.8022 19.6054 87.1211 18.9273 87.1211 18.0641Z" fill="#D62340"/>
<path d="M61.1768 12.5771C61.1768 11.7139 61.8579 11.0974 62.6628 11.0974C63.4678 11.0974 64.1489 11.7756 64.1489 12.5771C64.1489 13.4402 63.4678 14.0567 62.6628 14.0567C61.8579 14.0567 61.1768 13.3785 61.1768 12.5771Z" fill="#D62340"/>
<path d="M67.6787 12.5771C67.6787 11.7139 68.3598 11.0974 69.1648 11.0974C70.0316 11.0974 70.6508 11.7756 70.6508 12.5771C70.6508 13.4402 69.9697 14.0567 69.1648 14.0567C68.3598 14.0567 67.6787 13.3785 67.6787 12.5771Z" fill="#D62340"/>
<path d="M74.1797 12.5771C74.1797 11.7139 74.8608 11.0974 75.6658 11.0974C76.5326 11.0974 77.1518 11.7756 77.1518 12.5771C77.1518 13.4402 76.4707 14.0567 75.6658 14.0567C74.8608 14.0567 74.1797 13.3785 74.1797 12.5771Z" fill="#D62340"/>
<path d="M80.6816 12.5771C80.6816 11.7139 81.3628 11.0974 82.1677 11.0974C83.0346 11.0974 83.6538 11.7756 83.6538 12.5771C83.6538 13.4402 82.9727 14.0567 82.1677 14.0567C81.3628 14.0567 80.6816 13.3785 80.6816 12.5771Z" fill="#D62340"/>
<path d="M87.1211 12.5771C87.1211 11.7139 87.8022 11.0974 88.6072 11.0974C89.474 11.0974 90.0932 11.7756 90.0932 12.5771C90.0932 13.4402 89.4121 14.0567 88.6072 14.0567C87.8022 14.0567 87.1211 13.3785 87.1211 12.5771Z" fill="#D62340"/>
<path d="M61.1768 7.02836C61.1768 6.16523 61.8579 5.54871 62.6628 5.54871C63.4678 5.54871 64.1489 6.22688 64.1489 7.02836C64.1489 7.89149 63.4678 8.50802 62.6628 8.50802C61.8579 8.50802 61.1768 7.89149 61.1768 7.02836Z" fill="#D62340"/>
<path d="M67.6787 7.02836C67.6787 6.16523 68.3598 5.54871 69.1648 5.54871C70.0316 5.54871 70.6508 6.22688 70.6508 7.02836C70.6508 7.89149 69.9697 8.50802 69.1648 8.50802C68.3598 8.56967 67.6787 7.89149 67.6787 7.02836Z" fill="#D62340"/>
<path d="M74.1797 7.02836C74.1797 6.16523 74.8608 5.54871 75.6658 5.54871C76.5326 5.54871 77.1518 6.22688 77.1518 7.02836C77.1518 7.89149 76.4707 8.50802 75.6658 8.50802C74.8608 8.56967 74.1797 7.89149 74.1797 7.02836Z" fill="#D62340"/>
<path d="M80.6816 7.02836C80.6816 6.16523 81.3628 5.54871 82.1677 5.54871C83.0346 5.54871 83.6538 6.22688 83.6538 7.02836C83.6538 7.89149 82.9727 8.50802 82.1677 8.50802C81.3628 8.56967 80.6816 7.89149 80.6816 7.02836Z" fill="#D62340"/>
<path d="M87.1211 7.02836C87.1211 6.16523 87.8022 5.54871 88.6072 5.54871C89.474 5.54871 90.0932 6.22688 90.0932 7.02836C90.0932 7.89149 89.4121 8.50802 88.6072 8.50802C87.8022 8.56967 87.1211 7.89149 87.1211 7.02836Z" fill="#D62340"/>
<path d="M61.1768 1.47966C61.1768 0.616523 61.8579 0 62.6628 0C63.4678 0 64.1489 0.678175 64.1489 1.47966C64.1489 2.34279 63.4678 2.95931 62.6628 2.95931C61.8579 2.95931 61.1768 2.34279 61.1768 1.47966Z" fill="#D62340"/>
<path d="M67.6787 1.47966C67.6787 0.616523 68.3598 0 69.1648 0C70.0316 0 70.6508 0.678175 70.6508 1.47966C70.6508 2.34279 69.9697 2.95931 69.1648 2.95931C68.3598 3.02096 67.6787 2.34279 67.6787 1.47966Z" fill="#D62340"/>
<path d="M74.1797 1.47966C74.1797 0.616523 74.8608 0 75.6658 0C76.5326 0 77.1518 0.678175 77.1518 1.47966C77.1518 2.34279 76.4707 2.95931 75.6658 2.95931C74.8608 3.02096 74.1797 2.34279 74.1797 1.47966Z" fill="#D62340"/>
<path d="M80.6816 1.47966C80.6816 0.616523 81.3628 0 82.1677 0C83.0346 0 83.6538 0.678175 83.6538 1.47966C83.6538 2.34279 82.9727 2.95931 82.1677 2.95931C81.3628 3.02096 80.6816 2.34279 80.6816 1.47966Z" fill="#D62340"/>
<path d="M87.1211 1.47966C87.1211 0.616523 87.8022 0 88.6072 0C89.474 0 90.0932 0.678175 90.0932 1.47966C90.0932 2.34279 89.4121 2.95931 88.6072 2.95931C87.8022 3.02096 87.1211 2.34279 87.1211 1.47966Z" fill="#D62340"/>
<path d="M30.774 75.3391L30.774 61.529L16.904 61.529H0C0 78.4217 13.7461 92.1702 30.774 92.1702V75.3391Z" fill="#2E2E2E"/>
<path d="M100.062 44.5746H91.084V61.4057H100.062V44.5746Z" fill="#D62340"/>
<path d="M47.6784 92.1702H30.7744V100H47.6784V92.1702Z" fill="#D62340"/>
</g>
<path d="M72 95.2C72 81.2824 83.2824 70 97.2 70H326V74.7826C326 88.7098 314.71 100 300.783 100H72V95.2Z" fill="#D62340"/>
<path d="M177.14 77.96V92H173.72V83.58L170.58 92H167.82L164.66 83.56V92H161.24V77.96H165.28L169.22 87.68L173.12 77.96H177.14ZM183.019 80.7V83.54H187.599V86.18H183.019V89.26H188.199V92H179.599V77.96H188.199V80.7H183.019ZM206.32 77.96V92H202.9V83.58L199.76 92H197L193.84 83.56V92H190.42V77.96H194.46L198.4 87.68L202.3 77.96H206.32ZM217.279 84.8C218.092 84.9733 218.746 85.38 219.239 86.02C219.732 86.6467 219.979 87.3667 219.979 88.18C219.979 89.3533 219.566 90.2867 218.739 90.98C217.926 91.66 216.786 92 215.319 92H208.779V77.96H215.099C216.526 77.96 217.639 78.2867 218.439 78.94C219.252 79.5933 219.659 80.48 219.659 81.6C219.659 82.4267 219.439 83.1133 218.999 83.66C218.572 84.2067 217.999 84.5867 217.279 84.8ZM212.199 83.64H214.439C214.999 83.64 215.426 83.52 215.719 83.28C216.026 83.0267 216.179 82.66 216.179 82.18C216.179 81.7 216.026 81.3333 215.719 81.08C215.426 80.8267 214.999 80.7 214.439 80.7H212.199V83.64ZM214.719 89.24C215.292 89.24 215.732 89.1133 216.039 88.86C216.359 88.5933 216.519 88.2133 216.519 87.72C216.519 87.2267 216.352 86.84 216.019 86.56C215.699 86.28 215.252 86.14 214.679 86.14H212.199V89.24H214.719ZM225.383 80.7V83.54H229.963V86.18H225.383V89.26H230.563V92H221.963V77.96H230.563V80.7H225.383ZM239.943 92L237.023 86.7H236.203V92H232.783V77.96H238.523C239.63 77.96 240.57 78.1533 241.343 78.54C242.13 78.9267 242.716 79.46 243.103 80.14C243.49 80.8067 243.683 81.5533 243.683 82.38C243.683 83.3133 243.416 84.1467 242.883 84.88C242.363 85.6133 241.59 86.1333 240.563 86.44L243.803 92H239.943ZM236.203 84.28H238.323C238.95 84.28 239.416 84.1267 239.723 83.82C240.043 83.5133 240.203 83.08 240.203 82.52C240.203 81.9867 240.043 81.5667 239.723 81.26C239.416 80.9533 238.95 80.8 238.323 80.8H236.203V84.28Z" fill="white"/>
<path d="M125.912 59.336C122.744 59.336 119.832 58.6 117.176 57.128C114.552 55.656 112.456 53.608 110.888 50.984C109.352 48.328 108.584 45.352 108.584 42.056C108.584 38.76 109.352 35.8 110.888 33.176C112.456 30.552 114.552 28.504 117.176 27.032C119.832 25.56 122.744 24.824 125.912 24.824C129.08 24.824 131.976 25.56 134.6 27.032C137.256 28.504 139.336 30.552 140.84 33.176C142.376 35.8 143.144 38.76 143.144 42.056C143.144 45.352 142.376 48.328 140.84 50.984C139.304 53.608 137.224 55.656 134.6 57.128C131.976 58.6 129.08 59.336 125.912 59.336ZM125.912 51.848C128.6 51.848 130.744 50.952 132.344 49.16C133.976 47.368 134.792 45 134.792 42.056C134.792 39.08 133.976 36.712 132.344 34.952C130.744 33.16 128.6 32.264 125.912 32.264C123.192 32.264 121.016 33.144 119.384 34.904C117.784 36.664 116.984 39.048 116.984 42.056C116.984 45.032 117.784 47.416 119.384 49.208C121.016 50.968 123.192 51.848 125.912 51.848ZM173.39 36.152C173.39 38.104 172.942 39.896 172.046 41.528C171.15 43.128 169.774 44.424 167.918 45.416C166.062 46.408 163.758 46.904 161.006 46.904H155.918V59H147.71V25.304H161.006C163.694 25.304 165.966 25.768 167.822 26.696C169.678 27.624 171.07 28.904 171.998 30.536C172.926 32.168 173.39 34.04 173.39 36.152ZM160.382 40.376C161.95 40.376 163.118 40.008 163.886 39.272C164.654 38.536 165.038 37.496 165.038 36.152C165.038 34.808 164.654 33.768 163.886 33.032C163.118 32.296 161.95 31.928 160.382 31.928H155.918V40.376H160.382ZM185.872 31.88V38.696H196.864V45.032H185.872V52.424H198.304V59H177.664V25.304H198.304V31.88H185.872ZM233.776 59H225.568L211.84 38.216V59H203.632V25.304H211.84L225.568 46.184V25.304H233.776V59ZM267.082 59L260.074 46.28H258.106V59H249.898V25.304H263.674C266.33 25.304 268.586 25.768 270.442 26.696C272.33 27.624 273.738 28.904 274.666 30.536C275.594 32.136 276.058 33.928 276.058 35.912C276.058 38.152 275.418 40.152 274.138 41.912C272.89 43.672 271.034 44.92 268.57 45.656L276.346 59H267.082ZM258.106 40.472H263.194C264.698 40.472 265.818 40.104 266.554 39.368C267.322 38.632 267.706 37.592 267.706 36.248C267.706 34.968 267.322 33.96 266.554 33.224C265.818 32.488 264.698 32.12 263.194 32.12H258.106V40.472ZM289.418 31.88V38.696H300.41V45.032H289.418V52.424H301.85V59H281.21V25.304H301.85V31.88H289.418ZM305.787 42.104C305.787 38.776 306.507 35.816 307.947 33.224C309.387 30.6 311.387 28.568 313.947 27.128C316.539 25.656 319.467 24.92 322.731 24.92C326.731 24.92 330.155 25.976 333.003 28.088C335.851 30.2 337.755 33.08 338.715 36.728H329.691C329.019 35.32 328.059 34.248 326.811 33.512C325.595 32.776 324.203 32.408 322.635 32.408C320.107 32.408 318.059 33.288 316.491 35.048C314.923 36.808 314.139 39.16 314.139 42.104C314.139 45.048 314.923 47.4 316.491 49.16C318.059 50.92 320.107 51.8 322.635 51.8C324.203 51.8 325.595 51.432 326.811 50.696C328.059 49.96 329.019 48.888 329.691 47.48H338.715C337.755 51.128 335.851 54.008 333.003 56.12C330.155 58.2 326.731 59.24 322.731 59.24C319.467 59.24 316.539 58.52 313.947 57.08C311.387 55.608 309.387 53.576 307.947 50.984C306.507 48.392 305.787 45.432 305.787 42.104ZM360.926 59L353.918 46.28H351.95V59H343.742V25.304H357.518C360.174 25.304 362.43 25.768 364.286 26.696C366.174 27.624 367.582 28.904 368.51 30.536C369.438 32.136 369.902 33.928 369.902 35.912C369.902 38.152 369.262 40.152 367.982 41.912C366.734 43.672 364.878 44.92 362.414 45.656L370.19 59H360.926ZM351.95 40.472H357.038C358.542 40.472 359.662 40.104 360.398 39.368C361.166 38.632 361.55 37.592 361.55 36.248C361.55 34.968 361.166 33.96 360.398 33.224C359.662 32.488 358.542 32.12 357.038 32.12H351.95V40.472ZM383.118 25.304V45.464C383.118 47.48 383.614 49.032 384.606 50.12C385.598 51.208 387.054 51.752 388.974 51.752C390.894 51.752 392.366 51.208 393.39 50.12C394.414 49.032 394.926 47.48 394.926 45.464V25.304H403.134V45.416C403.134 48.424 402.494 50.968 401.214 53.048C399.934 55.128 398.206 56.696 396.03 57.752C393.886 58.808 391.486 59.336 388.83 59.336C386.174 59.336 383.79 58.824 381.678 57.8C379.598 56.744 377.95 55.176 376.734 53.096C375.518 50.984 374.91 48.424 374.91 45.416V25.304H383.118ZM417.106 25.304V59H408.898V25.304H417.106ZM447.294 25.304V31.88H438.366V59H430.158V31.88H421.23V25.304H447.294ZM489.574 25.304V59H481.366V38.792L473.83 59H467.206L459.622 38.744V59H451.414V25.304H461.109L470.566 48.632L479.926 25.304H489.574ZM503.684 31.88V38.696H514.676V45.032H503.684V52.424H516.116V59H495.476V25.304H516.116V31.88H503.684ZM551.589 59H543.381L529.653 38.216V59H521.445V25.304H529.653L543.381 46.184V25.304H551.589V59ZM581.779 25.304V31.88H572.851V59H564.643V31.88H555.715V25.304H581.779Z" fill="#2E2E2E"/>
<defs>
<clipPath id="clip0_208_510">
<rect width="100" height="100" fill="white"/>
</clipPath>
</defs>
</svg>
