<svg width="583" height="100" viewBox="0 0 583 100" fill="none" xmlns="http://www.w3.org/2000/svg">
<g clip-path="url(#clip0_210_779)">
<path d="M552.374 30.7271L552.374 61.5011L583.015 61.5011L583.015 30.7271L552.374 30.7271Z" fill="#D62340"/>
<path d="M552.174 77.2136L552.174 60.3096C535.281 60.3096 521.533 74.0558 521.533 91.0836L538.425 91.0836C538.425 83.4056 544.591 77.2136 552.174 77.2136Z" fill="#D62340"/>
<path d="M483.015 60.3224L483.015 100.013L521.424 100.013L521.424 60.3224L483.015 60.3224Z" fill="#2E2E2E"/>
<path d="M504.578 61.4861L521.471 61.4861C521.471 44.5201 507.784 30.7121 490.83 30.7121L490.83 47.678C498.413 47.678 504.578 53.87 504.578 61.4861Z" fill="#D62340"/>
<path d="M521.563 -0.0156498L521.563 30.7583L552.205 30.7583L552.205 -0.0156485L521.563 -0.0156498Z" fill="#D62340"/>
<path d="M529.209 7.6623L529.209 23.0803L544.56 23.0803L544.56 7.6623L529.209 7.6623Z" fill="white"/>
<path d="M521.533 44.5821L521.533 61.4861C538.487 61.4861 552.174 47.7399 552.174 30.774L535.343 30.774C535.343 38.3901 529.178 44.5821 521.533 44.5821Z" fill="#2E2E2E"/>
<path d="M553.9 61.1765C554.763 61.1765 555.38 61.8576 555.38 62.6625C555.38 63.4675 554.702 64.1486 553.9 64.1486C553.037 64.1486 552.421 63.4675 552.421 62.6625C552.421 61.8576 553.037 61.1765 553.9 61.1765Z" fill="#D62340"/>
<path d="M553.9 67.678C554.763 67.678 555.38 68.3592 555.38 69.1641C555.38 70.031 554.702 70.6502 553.9 70.6502C553.037 70.6502 552.421 69.9691 552.421 69.1641C552.359 68.3592 553.037 67.678 553.9 67.678Z" fill="#D62340"/>
<path d="M553.9 74.1796C554.763 74.1796 555.38 74.8607 555.38 75.6656C555.38 76.5325 554.702 77.1517 553.9 77.1517C553.037 77.1517 552.421 76.4706 552.421 75.6656C552.359 74.8607 553.037 74.1796 553.9 74.1796Z" fill="#D62340"/>
<path d="M553.9 80.6811C554.763 80.6811 555.38 81.3622 555.38 82.1672C555.38 83.0341 554.702 83.6533 553.9 83.6533C553.037 83.6533 552.421 82.9722 552.421 82.1672C552.359 81.3622 553.037 80.6811 553.9 80.6811Z" fill="#D62340"/>
<path d="M553.9 87.1208C554.763 87.1208 555.38 87.8019 555.38 88.6068C555.38 89.4737 554.702 90.0929 553.9 90.0929C553.037 90.0929 552.421 89.4118 552.421 88.6068C552.359 87.8019 553.037 87.1208 553.9 87.1208Z" fill="#D62340"/>
<path d="M559.388 61.1765C560.251 61.1765 560.867 61.8576 560.867 62.6625C560.867 63.4675 560.189 64.1486 559.388 64.1486C558.524 64.1486 557.908 63.4675 557.908 62.6625C557.908 61.8576 558.586 61.1765 559.388 61.1765Z" fill="#D62340"/>
<path d="M559.388 67.678C560.251 67.678 560.867 68.3592 560.867 69.1641C560.867 70.031 560.189 70.6502 559.388 70.6502C558.524 70.6502 557.908 69.9691 557.908 69.1641C557.908 68.3592 558.586 67.678 559.388 67.678Z" fill="#D62340"/>
<path d="M559.388 74.1796C560.251 74.1796 560.867 74.8607 560.867 75.6656C560.867 76.5325 560.189 77.1517 559.388 77.1517C558.524 77.1517 557.908 76.4706 557.908 75.6656C557.908 74.8607 558.586 74.1796 559.388 74.1796Z" fill="#D62340"/>
<path d="M559.388 80.6811C560.251 80.6811 560.867 81.3622 560.867 82.1672C560.867 83.0341 560.189 83.6533 559.388 83.6533C558.524 83.6533 557.908 82.9722 557.908 82.1672C557.908 81.3622 558.586 80.6811 559.388 80.6811Z" fill="#D62340"/>
<path d="M559.388 87.1208C560.251 87.1208 560.867 87.8019 560.867 88.6068C560.867 89.4737 560.189 90.0929 559.388 90.0929C558.524 90.0929 557.908 89.4118 557.908 88.6068C557.908 87.8019 558.586 87.1208 559.388 87.1208Z" fill="#D62340"/>
<path d="M564.936 61.1765C565.799 61.1765 566.416 61.8576 566.416 62.6625C566.416 63.4675 565.738 64.1486 564.936 64.1486C564.073 64.1486 563.457 63.4675 563.457 62.6625C563.457 61.8576 564.073 61.1765 564.936 61.1765Z" fill="#D62340"/>
<path d="M564.936 67.678C565.799 67.678 566.416 68.3592 566.416 69.1641C566.416 70.031 565.738 70.6502 564.936 70.6502C564.073 70.6502 563.457 69.9691 563.457 69.1641C563.395 68.3592 564.073 67.678 564.936 67.678Z" fill="#D62340"/>
<path d="M564.936 74.1796C565.799 74.1796 566.416 74.8607 566.416 75.6656C566.416 76.5325 565.738 77.1517 564.936 77.1517C564.073 77.1517 563.457 76.4706 563.457 75.6656C563.395 74.8607 564.073 74.1796 564.936 74.1796Z" fill="#D62340"/>
<path d="M564.936 80.6811C565.799 80.6811 566.416 81.3622 566.416 82.1672C566.416 83.0341 565.738 83.6533 564.936 83.6533C564.073 83.6533 563.457 82.9722 563.457 82.1672C563.395 81.3622 564.073 80.6811 564.936 80.6811Z" fill="#D62340"/>
<path d="M564.936 87.1208C565.799 87.1208 566.416 87.8019 566.416 88.6068C566.416 89.4737 565.738 90.0929 564.936 90.0929C564.073 90.0929 563.457 89.4118 563.457 88.6068C563.395 87.8019 564.073 87.1208 564.936 87.1208Z" fill="#D62340"/>
<path d="M570.423 61.1765C571.286 61.1765 571.902 61.8576 571.902 62.6625C571.902 63.4675 571.224 64.1486 570.423 64.1486C569.56 64.1486 568.943 63.4675 568.943 62.6625C568.943 61.8576 569.621 61.1765 570.423 61.1765Z" fill="#D62340"/>
<path d="M570.423 67.678C571.286 67.678 571.902 68.3592 571.902 69.1641C571.902 70.031 571.224 70.6502 570.423 70.6502C569.56 70.6502 568.943 69.9691 568.943 69.1641C568.943 68.3592 569.621 67.678 570.423 67.678Z" fill="#D62340"/>
<path d="M570.423 74.1796C571.286 74.1796 571.902 74.8607 571.902 75.6656C571.902 76.5325 571.224 77.1517 570.423 77.1517C569.56 77.1517 568.943 76.4706 568.943 75.6656C568.943 74.8607 569.621 74.1796 570.423 74.1796Z" fill="#D62340"/>
<path d="M570.423 80.6811C571.286 80.6811 571.902 81.3622 571.902 82.1672C571.902 83.0341 571.224 83.6533 570.423 83.6533C569.56 83.6533 568.943 82.9722 568.943 82.1672C568.943 81.3622 569.621 80.6811 570.423 80.6811Z" fill="#D62340"/>
<path d="M570.423 87.1208C571.286 87.1208 571.902 87.8019 571.902 88.6068C571.902 89.4737 571.224 90.0929 570.423 90.0929C569.56 90.0929 568.943 89.4118 568.943 88.6068C568.943 87.8019 569.621 87.1208 570.423 87.1208Z" fill="#D62340"/>
<path d="M575.972 61.1765C576.835 61.1765 577.451 61.8576 577.451 62.6625C577.451 63.4675 576.773 64.1486 575.972 64.1486C575.108 64.1486 574.492 63.4675 574.492 62.6625C574.492 61.8576 575.108 61.1765 575.972 61.1765Z" fill="#D62340"/>
<path d="M575.972 67.678C576.835 67.678 577.451 68.3592 577.451 69.1641C577.451 70.031 576.773 70.6502 575.972 70.6502C575.108 70.6502 574.492 69.9691 574.492 69.1641C574.43 68.3592 575.108 67.678 575.972 67.678Z" fill="#D62340"/>
<path d="M575.972 74.1796C576.835 74.1796 577.451 74.8607 577.451 75.6656C577.451 76.5325 576.773 77.1517 575.972 77.1517C575.108 77.1517 574.492 76.4706 574.492 75.6656C574.43 74.8607 575.108 74.1796 575.972 74.1796Z" fill="#D62340"/>
<path d="M575.972 80.6811C576.835 80.6811 577.451 81.3622 577.451 82.1672C577.451 83.0341 576.773 83.6533 575.972 83.6533C575.108 83.6533 574.492 82.9722 574.492 82.1672C574.43 81.3622 575.108 80.6811 575.972 80.6811Z" fill="#D62340"/>
<path d="M575.972 87.1208C576.835 87.1208 577.451 87.8019 577.451 88.6068C577.451 89.4737 576.773 90.0929 575.972 90.0929C575.108 90.0929 574.492 89.4118 574.492 88.6068C574.43 87.8019 575.108 87.1208 575.972 87.1208Z" fill="#D62340"/>
<path d="M581.52 61.1765C582.383 61.1765 583 61.8576 583 62.6625C583 63.4675 582.322 64.1486 581.52 64.1486C580.657 64.1486 580.041 63.4675 580.041 62.6625C580.041 61.8576 580.657 61.1765 581.52 61.1765Z" fill="#D62340"/>
<path d="M581.52 67.678C582.383 67.678 583 68.3592 583 69.1641C583 70.031 582.322 70.6502 581.52 70.6502C580.657 70.6502 580.041 69.9691 580.041 69.1641C579.979 68.3592 580.657 67.678 581.52 67.678Z" fill="#D62340"/>
<path d="M581.52 74.1796C582.383 74.1796 583 74.8607 583 75.6656C583 76.5325 582.322 77.1517 581.52 77.1517C580.657 77.1517 580.041 76.4706 580.041 75.6656C579.979 74.8607 580.657 74.1796 581.52 74.1796Z" fill="#D62340"/>
<path d="M581.52 80.6811C582.383 80.6811 583 81.3622 583 82.1672C583 83.0341 582.322 83.6533 581.52 83.6533C580.657 83.6533 580.041 82.9722 580.041 82.1672C579.979 81.3622 580.657 80.6811 581.52 80.6811Z" fill="#D62340"/>
<path d="M581.52 87.1208C582.383 87.1208 583 87.8019 583 88.6068C583 89.4737 582.322 90.0929 581.52 90.0929C580.657 90.0929 580.041 89.4118 580.041 88.6068C579.979 87.8019 580.657 87.1208 581.52 87.1208Z" fill="#D62340"/>
<path d="M507.661 30.774L521.471 30.774L521.471 16.904L521.471 0C504.578 -7.38405e-07 490.83 13.7461 490.83 30.774L507.661 30.774Z" fill="#2E2E2E"/>
<path d="M538.426 100.062L538.426 91.0836L521.595 91.0836L521.595 100.062L538.426 100.062Z" fill="#D62340"/>
<path d="M490.83 47.678L490.83 30.774L483 30.774L483 47.678L490.83 47.678Z" fill="#D62340"/>
</g>
<path d="M207 95.2C207 81.2824 218.282 70 232.2 70H513V74.7826C513 88.7098 501.71 100 487.783 100H207V95.2Z" fill="#D62340"/>
<path d="M299.66 82.42C299.98 81.9 300.44 81.48 301.04 81.16C301.64 80.84 302.327 80.68 303.1 80.68C304.02 80.68 304.853 80.9133 305.6 81.38C306.347 81.8467 306.933 82.5133 307.36 83.38C307.8 84.2467 308.02 85.2533 308.02 86.4C308.02 87.5467 307.8 88.56 307.36 89.44C306.933 90.3067 306.347 90.98 305.6 91.46C304.853 91.9267 304.02 92.16 303.1 92.16C302.313 92.16 301.627 92.0067 301.04 91.7C300.453 91.38 299.993 90.96 299.66 90.44V92H296.24V77.2H299.66V82.42ZM304.54 86.4C304.54 85.5467 304.3 84.88 303.82 84.4C303.353 83.9067 302.773 83.66 302.08 83.66C301.4 83.66 300.82 83.9067 300.34 84.4C299.873 84.8933 299.64 85.5667 299.64 86.42C299.64 87.2733 299.873 87.9467 300.34 88.44C300.82 88.9333 301.4 89.18 302.08 89.18C302.76 89.18 303.34 88.9333 303.82 88.44C304.3 87.9333 304.54 87.2533 304.54 86.4ZM321.214 80.84L314.214 97.3H310.534L313.094 91.62L308.554 80.84H312.374L314.954 87.82L317.514 80.84H321.214ZM335.489 77.96V87.52C335.489 89 335.069 90.14 334.229 90.94C333.403 91.74 332.283 92.14 330.869 92.14C329.389 92.14 328.203 91.72 327.309 90.88C326.416 90.04 325.969 88.8467 325.969 87.3H329.369C329.369 87.8867 329.489 88.3333 329.729 88.64C329.969 88.9333 330.316 89.08 330.769 89.08C331.183 89.08 331.503 88.9467 331.729 88.68C331.956 88.4133 332.069 88.0267 332.069 87.52V77.96H335.489ZM343.332 92.16C342.238 92.16 341.252 91.9267 340.372 91.46C339.505 90.9933 338.818 90.3267 338.312 89.46C337.818 88.5933 337.572 87.58 337.572 86.42C337.572 85.2733 337.825 84.2667 338.332 83.4C338.838 82.52 339.532 81.8467 340.412 81.38C341.292 80.9133 342.278 80.68 343.372 80.68C344.465 80.68 345.452 80.9133 346.332 81.38C347.212 81.8467 347.905 82.52 348.412 83.4C348.918 84.2667 349.172 85.2733 349.172 86.42C349.172 87.5667 348.912 88.58 348.392 89.46C347.885 90.3267 347.185 90.9933 346.292 91.46C345.412 91.9267 344.425 92.16 343.332 92.16ZM343.332 89.2C343.985 89.2 344.538 88.96 344.992 88.48C345.458 88 345.692 87.3133 345.692 86.42C345.692 85.5267 345.465 84.84 345.012 84.36C344.572 83.88 344.025 83.64 343.372 83.64C342.705 83.64 342.152 83.88 341.712 84.36C341.272 84.8267 341.052 85.5133 341.052 86.42C341.052 87.3133 341.265 88 341.692 88.48C342.132 88.96 342.678 89.2 343.332 89.2ZM352.706 79.68C352.106 79.68 351.613 79.5067 351.226 79.16C350.853 78.8 350.666 78.36 350.666 77.84C350.666 77.3067 350.853 76.8667 351.226 76.52C351.613 76.16 352.106 75.98 352.706 75.98C353.293 75.98 353.773 76.16 354.146 76.52C354.533 76.8667 354.726 77.3067 354.726 77.84C354.726 78.36 354.533 78.8 354.146 79.16C353.773 79.5067 353.293 79.68 352.706 79.68ZM354.406 80.84V92H350.986V80.84H354.406ZM363.685 80.72C364.991 80.72 366.031 81.1467 366.805 82C367.591 82.84 367.985 84 367.985 85.48V92H364.585V85.94C364.585 85.1933 364.391 84.6133 364.005 84.2C363.618 83.7867 363.098 83.58 362.445 83.58C361.791 83.58 361.271 83.7867 360.885 84.2C360.498 84.6133 360.305 85.1933 360.305 85.94V92H356.885V80.84H360.305V82.32C360.651 81.8267 361.118 81.44 361.705 81.16C362.291 80.8667 362.951 80.72 363.685 80.72ZM372.081 79.68C371.481 79.68 370.988 79.5067 370.601 79.16C370.228 78.8 370.041 78.36 370.041 77.84C370.041 77.3067 370.228 76.8667 370.601 76.52C370.988 76.16 371.481 75.98 372.081 75.98C372.668 75.98 373.148 76.16 373.521 76.52C373.908 76.8667 374.101 77.3067 374.101 77.84C374.101 78.36 373.908 78.8 373.521 79.16C373.148 79.5067 372.668 79.68 372.081 79.68ZM373.781 80.84V92H370.361V80.84H373.781ZM383.06 80.72C384.366 80.72 385.406 81.1467 386.18 82C386.966 82.84 387.36 84 387.36 85.48V92H383.96V85.94C383.96 85.1933 383.766 84.6133 383.38 84.2C382.993 83.7867 382.473 83.58 381.82 83.58C381.166 83.58 380.646 83.7867 380.26 84.2C379.873 84.6133 379.68 85.1933 379.68 85.94V92H376.26V80.84H379.68V82.32C380.026 81.8267 380.493 81.44 381.08 81.16C381.666 80.8667 382.326 80.72 383.06 80.72ZM393.976 80.68C394.763 80.68 395.449 80.84 396.036 81.16C396.636 81.48 397.096 81.9 397.416 82.42V80.84H400.836V91.98C400.836 93.0067 400.629 93.9333 400.216 94.76C399.816 95.6 399.196 96.2667 398.356 96.76C397.529 97.2533 396.496 97.5 395.256 97.5C393.603 97.5 392.263 97.1067 391.236 96.32C390.209 95.5467 389.623 94.4933 389.476 93.16H392.856C392.963 93.5867 393.216 93.92 393.616 94.16C394.016 94.4133 394.509 94.54 395.096 94.54C395.803 94.54 396.363 94.3333 396.776 93.92C397.203 93.52 397.416 92.8733 397.416 91.98V90.4C397.083 90.92 396.623 91.3467 396.036 91.68C395.449 92 394.763 92.16 393.976 92.16C393.056 92.16 392.223 91.9267 391.476 91.46C390.729 90.98 390.136 90.3067 389.696 89.44C389.269 88.56 389.056 87.5467 389.056 86.4C389.056 85.2533 389.269 84.2467 389.696 83.38C390.136 82.5133 390.729 81.8467 391.476 81.38C392.223 80.9133 393.056 80.68 393.976 80.68ZM397.416 86.42C397.416 85.5667 397.176 84.8933 396.696 84.4C396.229 83.9067 395.656 83.66 394.976 83.66C394.296 83.66 393.716 83.9067 393.236 84.4C392.769 84.88 392.536 85.5467 392.536 86.4C392.536 87.2533 392.769 87.9333 393.236 88.44C393.716 88.9333 394.296 89.18 394.976 89.18C395.656 89.18 396.229 88.9333 396.696 88.44C397.176 87.9467 397.416 87.2733 397.416 86.42ZM410.909 77.96V86.36C410.909 87.2 411.115 87.8467 411.529 88.3C411.942 88.7533 412.549 88.98 413.349 88.98C414.149 88.98 414.762 88.7533 415.189 88.3C415.615 87.8467 415.829 87.2 415.829 86.36V77.96H419.249V86.34C419.249 87.5933 418.982 88.6533 418.449 89.52C417.915 90.3867 417.195 91.04 416.289 91.48C415.395 91.92 414.395 92.14 413.289 92.14C412.182 92.14 411.189 91.9267 410.309 91.5C409.442 91.06 408.755 90.4067 408.249 89.54C407.742 88.66 407.489 87.5933 407.489 86.34V77.96H410.909ZM426.19 92.16C425.217 92.16 424.35 91.9933 423.59 91.66C422.83 91.3267 422.23 90.8733 421.79 90.3C421.35 89.7133 421.103 89.06 421.05 88.34H424.43C424.47 88.7267 424.65 89.04 424.97 89.28C425.29 89.52 425.683 89.64 426.15 89.64C426.577 89.64 426.903 89.56 427.13 89.4C427.37 89.2267 427.49 89.0067 427.49 88.74C427.49 88.42 427.323 88.1867 426.99 88.04C426.657 87.88 426.117 87.7067 425.37 87.52C424.57 87.3333 423.903 87.14 423.37 86.94C422.837 86.7267 422.377 86.4 421.99 85.96C421.603 85.5067 421.41 84.9 421.41 84.14C421.41 83.5 421.583 82.92 421.93 82.4C422.29 81.8667 422.81 81.4467 423.49 81.14C424.183 80.8333 425.003 80.68 425.95 80.68C427.35 80.68 428.45 81.0267 429.25 81.72C430.063 82.4133 430.53 83.3333 430.65 84.48H427.49C427.437 84.0933 427.263 83.7867 426.97 83.56C426.69 83.3333 426.317 83.22 425.85 83.22C425.45 83.22 425.143 83.3 424.93 83.46C424.717 83.6067 424.61 83.8133 424.61 84.08C424.61 84.4 424.777 84.64 425.11 84.8C425.457 84.96 425.99 85.12 426.71 85.28C427.537 85.4933 428.21 85.7067 428.73 85.92C429.25 86.12 429.703 86.4533 430.09 86.92C430.49 87.3733 430.697 87.9867 430.71 88.76C430.71 89.4133 430.523 90 430.15 90.52C429.79 91.0267 429.263 91.4267 428.57 91.72C427.89 92.0133 427.097 92.16 426.19 92.16Z" fill="white"/>
<path d="M161.344 27.304L152.56 61H142.624L137.248 38.824L131.68 61H121.744L113.2 27.304H121.984L126.832 51.832L132.832 27.304H141.856L147.616 51.832L152.512 27.304H161.344ZM194.644 27.304V61H186.436V47.128H173.668V61H165.46V27.304H173.668V40.504H186.436V27.304H194.644ZM221.546 55.048H208.97L206.954 61H198.362L210.554 27.304H220.058L232.25 61H223.562L221.546 55.048ZM219.434 48.712L215.258 36.376L211.13 48.712H219.434ZM260.2 27.304V33.88H251.272V61H243.064V33.88H234.136V27.304H260.2ZM303.388 27.304L291.724 49.864V61H283.516V49.864L271.852 27.304H281.164L287.692 41.416L294.172 27.304H303.388ZM322.631 61.336C319.463 61.336 316.551 60.6 313.895 59.128C311.271 57.656 309.175 55.608 307.607 52.984C306.071 50.328 305.303 47.352 305.303 44.056C305.303 40.76 306.071 37.8 307.607 35.176C309.175 32.552 311.271 30.504 313.895 29.032C316.551 27.56 319.463 26.824 322.631 26.824C325.799 26.824 328.695 27.56 331.319 29.032C333.975 30.504 336.055 32.552 337.559 35.176C339.095 37.8 339.863 40.76 339.863 44.056C339.863 47.352 339.095 50.328 337.559 52.984C336.023 55.608 333.943 57.656 331.319 59.128C328.695 60.6 325.799 61.336 322.631 61.336ZM322.631 53.848C325.319 53.848 327.463 52.952 329.063 51.16C330.695 49.368 331.511 47 331.511 44.056C331.511 41.08 330.695 38.712 329.063 36.952C327.463 35.16 325.319 34.264 322.631 34.264C319.911 34.264 317.735 35.144 316.103 36.904C314.503 38.664 313.703 41.048 313.703 44.056C313.703 47.032 314.503 49.416 316.103 51.208C317.735 52.968 319.911 53.848 322.631 53.848ZM352.493 27.304V47.464C352.493 49.48 352.989 51.032 353.981 52.12C354.973 53.208 356.429 53.752 358.349 53.752C360.269 53.752 361.741 53.208 362.765 52.12C363.789 51.032 364.301 49.48 364.301 47.464V27.304H372.509V47.416C372.509 50.424 371.869 52.968 370.589 55.048C369.309 57.128 367.581 58.696 365.405 59.752C363.261 60.808 360.861 61.336 358.205 61.336C355.549 61.336 353.165 60.824 351.053 59.8C348.973 58.744 347.325 57.176 346.109 55.096C344.893 52.984 344.285 50.424 344.285 47.416V27.304H352.493ZM410.813 37.96C410.205 36.84 409.325 35.992 408.173 35.416C407.053 34.808 405.725 34.504 404.189 34.504C401.533 34.504 399.405 35.384 397.805 37.144C396.205 38.872 395.405 41.192 395.405 44.104C395.405 47.208 396.237 49.64 397.901 51.4C399.597 53.128 401.917 53.992 404.861 53.992C406.877 53.992 408.573 53.48 409.949 52.456C411.357 51.432 412.381 49.96 413.021 48.04H402.605V41.992H420.461V49.624C419.853 51.672 418.813 53.576 417.341 55.336C415.901 57.096 414.061 58.52 411.821 59.608C409.581 60.696 407.053 61.24 404.237 61.24C400.909 61.24 397.933 60.52 395.309 59.08C392.717 57.608 390.685 55.576 389.213 52.984C387.773 50.392 387.053 47.432 387.053 44.104C387.053 40.776 387.773 37.816 389.213 35.224C390.685 32.6 392.717 30.568 395.309 29.128C397.901 27.656 400.861 26.92 404.189 26.92C408.221 26.92 411.613 27.896 414.365 29.848C417.149 31.8 418.989 34.504 419.885 37.96H410.813ZM433.215 33.88V40.696H444.207V47.032H433.215V54.424H445.647V61H425.007V27.304H445.647V33.88H433.215ZM475.216 27.304V33.88H466.288V61H458.08V33.88H449.152V27.304H475.216Z" fill="#2E2E2E"/>
<defs>
<clipPath id="clip0_210_779">
<rect width="100" height="100" fill="white" transform="translate(583) rotate(90)"/>
</clipPath>
</defs>
</svg>
