<svg width="317" height="100" viewBox="0 0 317 100" fill="none" xmlns="http://www.w3.org/2000/svg">
<path d="M23.88 40.96C23.88 42.5867 23.5067 44.08 22.76 45.44C22.0133 46.7733 20.8667 47.8533 19.32 48.68C17.7733 49.5067 15.8533 49.92 13.56 49.92H9.32V60H2.48V31.92H13.56C15.8 31.92 17.6933 32.3067 19.24 33.08C20.7867 33.8533 21.9467 34.92 22.72 36.28C23.4933 37.64 23.88 39.2 23.88 40.96ZM13.04 44.48C14.3467 44.48 15.32 44.1733 15.96 43.56C16.6 42.9467 16.92 42.08 16.92 40.96C16.92 39.84 16.6 38.9733 15.96 38.36C15.32 37.7467 14.3467 37.44 13.04 37.44H9.32V44.48H13.04ZM41.7609 60L35.9209 49.4H34.2809V60H27.4409V31.92H38.9209C41.1343 31.92 43.0143 32.3067 44.5609 33.08C46.1343 33.8533 47.3076 34.92 48.0809 36.28C48.8543 37.6133 49.2409 39.1067 49.2409 40.76C49.2409 42.6267 48.7076 44.2933 47.6409 45.76C46.6009 47.2267 45.0543 48.2667 43.0009 48.88L49.4809 60H41.7609ZM34.2809 44.56H38.5209C39.7743 44.56 40.7076 44.2533 41.3209 43.64C41.9609 43.0267 42.2809 42.16 42.2809 41.04C42.2809 39.9733 41.9609 39.1333 41.3209 38.52C40.7076 37.9067 39.7743 37.6 38.5209 37.6H34.2809V44.56ZM66.8147 60.28C64.1747 60.28 61.748 59.6667 59.5347 58.44C57.348 57.2133 55.6014 55.5067 54.2947 53.32C53.0147 51.1067 52.3747 48.6267 52.3747 45.88C52.3747 43.1333 53.0147 40.6667 54.2947 38.48C55.6014 36.2933 57.348 34.5867 59.5347 33.36C61.748 32.1333 64.1747 31.52 66.8147 31.52C69.4547 31.52 71.868 32.1333 74.0547 33.36C76.268 34.5867 78.0014 36.2933 79.2547 38.48C80.5347 40.6667 81.1747 43.1333 81.1747 45.88C81.1747 48.6267 80.5347 51.1067 79.2547 53.32C77.9747 55.5067 76.2414 57.2133 74.0547 58.44C71.868 59.6667 69.4547 60.28 66.8147 60.28ZM66.8147 54.04C69.0547 54.04 70.8414 53.2933 72.1747 51.8C73.5347 50.3067 74.2147 48.3333 74.2147 45.88C74.2147 43.4 73.5347 41.4267 72.1747 39.96C70.8414 38.4667 69.0547 37.72 66.8147 37.72C64.548 37.72 62.7347 38.4533 61.3747 39.92C60.0414 41.3867 59.3747 43.3733 59.3747 45.88C59.3747 48.36 60.0414 50.3467 61.3747 51.84C62.7347 53.3067 64.548 54.04 66.8147 54.04ZM102.58 31.92V51.04C102.58 54 101.74 56.28 100.06 57.88C98.4067 59.48 96.1667 60.28 93.34 60.28C90.38 60.28 88.0067 59.44 86.22 57.76C84.4333 56.08 83.54 53.6933 83.54 50.6H90.34C90.34 51.7733 90.58 52.6667 91.06 53.28C91.54 53.8667 92.2333 54.16 93.14 54.16C93.9667 54.16 94.6067 53.8933 95.06 53.36C95.5133 52.8267 95.74 52.0533 95.74 51.04V31.92H102.58ZM114.945 37.4V43.08H124.105V48.36H114.945V54.52H125.305V60H108.105V31.92H125.305V37.4H114.945ZM128.586 45.92C128.586 43.1467 129.186 40.68 130.386 38.52C131.586 36.3333 133.252 34.64 135.386 33.44C137.546 32.2133 139.986 31.6 142.706 31.6C146.039 31.6 148.892 32.48 151.266 34.24C153.639 36 155.226 38.4 156.026 41.44H148.506C147.946 40.2667 147.146 39.3733 146.106 38.76C145.092 38.1467 143.932 37.84 142.626 37.84C140.519 37.84 138.812 38.5733 137.506 40.04C136.199 41.5067 135.546 43.4667 135.546 45.92C135.546 48.3733 136.199 50.3333 137.506 51.8C138.812 53.2667 140.519 54 142.626 54C143.932 54 145.092 53.6933 146.106 53.08C147.146 52.4667 147.946 51.5733 148.506 50.4H156.026C155.226 53.44 153.639 55.84 151.266 57.6C148.892 59.3333 146.039 60.2 142.706 60.2C139.986 60.2 137.546 59.6 135.386 58.4C133.252 57.1733 131.586 55.48 130.386 53.32C129.186 51.16 128.586 48.6933 128.586 45.92ZM180.414 31.92V37.4H172.974V60H166.134V37.4H158.694V31.92H180.414ZM194.007 60.28C191.954 60.28 190.114 59.9467 188.487 59.28C186.861 58.6133 185.554 57.6267 184.567 56.32C183.607 55.0133 183.101 53.44 183.047 51.6H190.327C190.434 52.64 190.794 53.44 191.407 54C192.021 54.5333 192.821 54.8 193.807 54.8C194.821 54.8 195.621 54.5733 196.207 54.12C196.794 53.64 197.087 52.9867 197.087 52.16C197.087 51.4667 196.847 50.8933 196.367 50.44C195.914 49.9867 195.341 49.6133 194.647 49.32C193.981 49.0267 193.021 48.6933 191.767 48.32C189.954 47.76 188.474 47.2 187.327 46.64C186.181 46.08 185.194 45.2533 184.367 44.16C183.541 43.0667 183.127 41.64 183.127 39.88C183.127 37.2667 184.074 35.2267 185.967 33.76C187.861 32.2667 190.327 31.52 193.367 31.52C196.461 31.52 198.954 32.2667 200.847 33.76C202.741 35.2267 203.754 37.28 203.887 39.92H196.487C196.434 39.0133 196.101 38.3067 195.487 37.8C194.874 37.2667 194.087 37 193.127 37C192.301 37 191.634 37.2267 191.127 37.68C190.621 38.1067 190.367 38.7333 190.367 39.56C190.367 40.4667 190.794 41.1733 191.647 41.68C192.501 42.1867 193.834 42.7333 195.647 43.32C197.461 43.9333 198.927 44.52 200.047 45.08C201.194 45.64 202.181 46.4533 203.007 47.52C203.834 48.5867 204.247 49.96 204.247 51.64C204.247 53.24 203.834 54.6933 203.007 56C202.207 57.3067 201.034 58.3467 199.487 59.12C197.941 59.8933 196.114 60.28 194.007 60.28Z" fill="#2E2E2E"/>
<g clip-path="url(#clip0_387_764)">
<path d="M286.375 30.7271L286.375 61.5011L317.016 61.5011L317.016 30.7271L286.375 30.7271Z" fill="#A69D69"/>
<path d="M286.174 77.2136L286.174 60.3096C269.281 60.3096 255.533 74.0557 255.533 91.0836L272.425 91.0836C272.425 83.4056 278.591 77.2136 286.174 77.2136Z" fill="#A69D69"/>
<path d="M217.015 60.3223L217.015 100.013L255.425 100.013L255.425 60.3223L217.015 60.3223Z" fill="#2E2E2E"/>
<path d="M238.578 61.4861L255.471 61.4861C255.471 44.5201 241.784 30.7121 224.83 30.7121L224.83 47.678C232.413 47.678 238.578 53.87 238.578 61.4861Z" fill="#A69D69"/>
<path d="M255.563 -0.0156651L255.563 30.7583L286.205 30.7583L286.205 -0.0156637L255.563 -0.0156651Z" fill="#A69D69"/>
<path d="M263.208 7.6623L263.208 23.0803L278.56 23.0803L278.56 7.6623L263.208 7.6623Z" fill="white"/>
<path d="M255.533 44.582L255.533 61.4861C272.487 61.4861 286.174 47.7399 286.174 30.774L269.343 30.774C269.343 38.3901 263.178 44.582 255.533 44.582Z" fill="#2E2E2E"/>
<path d="M287.9 61.1765C288.763 61.1765 289.38 61.8576 289.38 62.6625C289.38 63.4675 288.702 64.1486 287.9 64.1486C287.037 64.1486 286.421 63.4675 286.421 62.6625C286.421 61.8576 287.037 61.1765 287.9 61.1765Z" fill="#A69D69"/>
<path d="M287.9 67.678C288.763 67.678 289.38 68.3592 289.38 69.1641C289.38 70.031 288.702 70.6502 287.9 70.6502C287.037 70.6502 286.421 69.9691 286.421 69.1641C286.359 68.3592 287.037 67.678 287.9 67.678Z" fill="#A69D69"/>
<path d="M287.9 74.1796C288.763 74.1796 289.38 74.8607 289.38 75.6657C289.38 76.5325 288.702 77.1517 287.9 77.1517C287.037 77.1517 286.421 76.4706 286.421 75.6657C286.359 74.8607 287.037 74.1796 287.9 74.1796Z" fill="#A69D69"/>
<path d="M287.9 80.6811C288.763 80.6811 289.38 81.3622 289.38 82.1672C289.38 83.0341 288.702 83.6533 287.9 83.6533C287.037 83.6533 286.421 82.9721 286.421 82.1672C286.359 81.3622 287.037 80.6811 287.9 80.6811Z" fill="#A69D69"/>
<path d="M287.9 87.1208C288.763 87.1208 289.38 87.8019 289.38 88.6068C289.38 89.4737 288.702 90.0929 287.9 90.0929C287.037 90.0929 286.421 89.4118 286.421 88.6068C286.359 87.8019 287.037 87.1208 287.9 87.1208Z" fill="#A69D69"/>
<path d="M293.387 61.1765C294.25 61.1765 294.867 61.8576 294.867 62.6625C294.867 63.4675 294.189 64.1486 293.387 64.1486C292.524 64.1486 291.907 63.4675 291.907 62.6625C291.907 61.8576 292.586 61.1765 293.387 61.1765Z" fill="#A69D69"/>
<path d="M293.387 67.678C294.25 67.678 294.867 68.3592 294.867 69.1641C294.867 70.031 294.189 70.6502 293.387 70.6502C292.524 70.6502 291.907 69.9691 291.907 69.1641C291.907 68.3592 292.586 67.678 293.387 67.678Z" fill="#A69D69"/>
<path d="M293.387 74.1796C294.25 74.1796 294.867 74.8607 294.867 75.6657C294.867 76.5325 294.189 77.1517 293.387 77.1517C292.524 77.1517 291.907 76.4706 291.907 75.6657C291.907 74.8607 292.586 74.1796 293.387 74.1796Z" fill="#A69D69"/>
<path d="M293.387 80.6811C294.25 80.6811 294.867 81.3622 294.867 82.1672C294.867 83.0341 294.189 83.6533 293.387 83.6533C292.524 83.6533 291.907 82.9721 291.907 82.1672C291.907 81.3622 292.586 80.6811 293.387 80.6811Z" fill="#A69D69"/>
<path d="M293.387 87.1208C294.25 87.1208 294.867 87.8019 294.867 88.6068C294.867 89.4737 294.189 90.0929 293.387 90.0929C292.524 90.0929 291.907 89.4118 291.907 88.6068C291.907 87.8019 292.586 87.1208 293.387 87.1208Z" fill="#A69D69"/>
<path d="M298.936 61.1765C299.799 61.1765 300.416 61.8576 300.416 62.6625C300.416 63.4675 299.737 64.1486 298.936 64.1486C298.073 64.1486 297.456 63.4675 297.456 62.6625C297.456 61.8576 298.073 61.1765 298.936 61.1765Z" fill="#A69D69"/>
<path d="M298.936 67.678C299.799 67.678 300.416 68.3592 300.416 69.1641C300.416 70.031 299.737 70.6502 298.936 70.6502C298.073 70.6502 297.456 69.9691 297.456 69.1641C297.395 68.3592 298.073 67.678 298.936 67.678Z" fill="#A69D69"/>
<path d="M298.936 74.1796C299.799 74.1796 300.416 74.8607 300.416 75.6657C300.416 76.5325 299.737 77.1517 298.936 77.1517C298.073 77.1517 297.456 76.4706 297.456 75.6657C297.395 74.8607 298.073 74.1796 298.936 74.1796Z" fill="#A69D69"/>
<path d="M298.936 80.6811C299.799 80.6811 300.416 81.3622 300.416 82.1672C300.416 83.0341 299.737 83.6533 298.936 83.6533C298.073 83.6533 297.456 82.9721 297.456 82.1672C297.395 81.3622 298.073 80.6811 298.936 80.6811Z" fill="#A69D69"/>
<path d="M298.936 87.1208C299.799 87.1208 300.416 87.8019 300.416 88.6068C300.416 89.4737 299.737 90.0929 298.936 90.0929C298.073 90.0929 297.456 89.4118 297.456 88.6068C297.395 87.8019 298.073 87.1208 298.936 87.1208Z" fill="#A69D69"/>
<path d="M304.423 61.1765C305.286 61.1765 305.902 61.8576 305.902 62.6625C305.902 63.4675 305.224 64.1486 304.423 64.1486C303.56 64.1486 302.943 63.4675 302.943 62.6625C302.943 61.8576 303.621 61.1765 304.423 61.1765Z" fill="#A69D69"/>
<path d="M304.423 67.678C305.286 67.678 305.902 68.3592 305.902 69.1641C305.902 70.031 305.224 70.6502 304.423 70.6502C303.56 70.6502 302.943 69.9691 302.943 69.1641C302.943 68.3592 303.621 67.678 304.423 67.678Z" fill="#A69D69"/>
<path d="M304.423 74.1796C305.286 74.1796 305.902 74.8607 305.902 75.6657C305.902 76.5325 305.224 77.1517 304.423 77.1517C303.56 77.1517 302.943 76.4706 302.943 75.6657C302.943 74.8607 303.621 74.1796 304.423 74.1796Z" fill="#A69D69"/>
<path d="M304.423 80.6811C305.286 80.6811 305.902 81.3622 305.902 82.1672C305.902 83.0341 305.224 83.6533 304.423 83.6533C303.56 83.6533 302.943 82.9721 302.943 82.1672C302.943 81.3622 303.621 80.6811 304.423 80.6811Z" fill="#A69D69"/>
<path d="M304.423 87.1208C305.286 87.1208 305.902 87.8019 305.902 88.6068C305.902 89.4737 305.224 90.0929 304.423 90.0929C303.56 90.0929 302.943 89.4118 302.943 88.6068C302.943 87.8019 303.621 87.1208 304.423 87.1208Z" fill="#A69D69"/>
<path d="M309.972 61.1765C310.835 61.1765 311.451 61.8576 311.451 62.6625C311.451 63.4675 310.773 64.1486 309.972 64.1486C309.108 64.1486 308.492 63.4675 308.492 62.6625C308.492 61.8576 309.108 61.1765 309.972 61.1765Z" fill="#A69D69"/>
<path d="M309.972 67.678C310.835 67.678 311.451 68.3592 311.451 69.1641C311.451 70.031 310.773 70.6502 309.972 70.6502C309.108 70.6502 308.492 69.9691 308.492 69.1641C308.43 68.3592 309.108 67.678 309.972 67.678Z" fill="#A69D69"/>
<path d="M309.972 74.1796C310.835 74.1796 311.451 74.8607 311.451 75.6657C311.451 76.5325 310.773 77.1517 309.972 77.1517C309.108 77.1517 308.492 76.4706 308.492 75.6657C308.43 74.8607 309.108 74.1796 309.972 74.1796Z" fill="#A69D69"/>
<path d="M309.972 80.6811C310.835 80.6811 311.451 81.3622 311.451 82.1672C311.451 83.0341 310.773 83.6533 309.972 83.6533C309.108 83.6533 308.492 82.9721 308.492 82.1672C308.43 81.3622 309.108 80.6811 309.972 80.6811Z" fill="#A69D69"/>
<path d="M309.972 87.1208C310.835 87.1208 311.451 87.8019 311.451 88.6068C311.451 89.4737 310.773 90.0929 309.972 90.0929C309.108 90.0929 308.492 89.4118 308.492 88.6068C308.43 87.8019 309.108 87.1208 309.972 87.1208Z" fill="#A69D69"/>
<path d="M315.52 61.1765C316.383 61.1765 317 61.8576 317 62.6625C317 63.4675 316.322 64.1486 315.52 64.1486C314.657 64.1486 314.041 63.4675 314.041 62.6625C314.041 61.8576 314.657 61.1765 315.52 61.1765Z" fill="#A69D69"/>
<path d="M315.52 67.678C316.383 67.678 317 68.3592 317 69.1641C317 70.031 316.322 70.6502 315.52 70.6502C314.657 70.6502 314.041 69.9691 314.041 69.1641C313.979 68.3592 314.657 67.678 315.52 67.678Z" fill="#A69D69"/>
<path d="M315.52 74.1796C316.383 74.1796 317 74.8607 317 75.6657C317 76.5325 316.322 77.1517 315.52 77.1517C314.657 77.1517 314.041 76.4706 314.041 75.6657C313.979 74.8607 314.657 74.1796 315.52 74.1796Z" fill="#A69D69"/>
<path d="M315.52 80.6811C316.383 80.6811 317 81.3622 317 82.1672C317 83.0341 316.322 83.6533 315.52 83.6533C314.657 83.6533 314.041 82.9721 314.041 82.1672C313.979 81.3622 314.657 80.6811 315.52 80.6811Z" fill="#A69D69"/>
<path d="M315.52 87.1208C316.383 87.1208 317 87.8019 317 88.6068C317 89.4737 316.322 90.0929 315.52 90.0929C314.657 90.0929 314.041 89.4118 314.041 88.6068C313.979 87.8019 314.657 87.1208 315.52 87.1208Z" fill="#A69D69"/>
<path d="M241.661 30.774L255.471 30.774L255.471 16.904L255.471 0C238.578 -7.38405e-07 224.83 13.7461 224.83 30.774L241.661 30.774Z" fill="#2E2E2E"/>
<path d="M272.425 100.062L272.425 91.0836L255.594 91.0836L255.594 100.062L272.425 100.062Z" fill="#A69D69"/>
<path d="M224.83 47.678L224.83 30.774L217 30.774L217 47.678L224.83 47.678Z" fill="#A69D69"/>
</g>
<path d="M9 95.2C9 81.2824 20.2824 70 34.2 70H233V74.7826C233 88.7098 221.71 100 207.783 100H9V95.2Z" fill="#A69D69"/>
<path d="M110.8 92H107.38L101.66 83.34V92H98.24V77.96H101.66L107.38 86.66V77.96H110.8V92ZM116.699 89.36H121.179V92H113.279V77.96H116.699V89.36ZM135.37 92H131.95L126.23 83.34V92H122.81V77.96H126.23L131.95 86.66V77.96H135.37V92ZM137.269 84.96C137.269 83.5733 137.569 82.34 138.169 81.26C138.769 80.1667 139.603 79.32 140.669 78.72C141.749 78.1067 142.969 77.8 144.329 77.8C145.996 77.8 147.423 78.24 148.609 79.12C149.796 80 150.589 81.2 150.989 82.72H147.229C146.949 82.1333 146.549 81.6867 146.029 81.38C145.523 81.0733 144.943 80.92 144.289 80.92C143.236 80.92 142.383 81.2867 141.729 82.02C141.076 82.7533 140.749 83.7333 140.749 84.96C140.749 86.1867 141.076 87.1667 141.729 87.9C142.383 88.6333 143.236 89 144.289 89C144.943 89 145.523 88.8467 146.029 88.54C146.549 88.2333 146.949 87.7867 147.229 87.2H150.989C150.589 88.72 149.796 89.92 148.609 90.8C147.423 91.6667 145.996 92.1 144.329 92.1C142.969 92.1 141.749 91.8 140.669 91.2C139.603 90.5867 138.769 89.74 138.169 88.66C137.569 87.58 137.269 86.3467 137.269 84.96Z" fill="white"/>
<defs>
<clipPath id="clip0_387_764">
<rect width="100" height="100" fill="white" transform="translate(317) rotate(90)"/>
</clipPath>
</defs>
</svg>
